<svg xmlns="http://www.w3.org/2000/svg" width="1952" height="321" viewBox="0 0 1952 321" version="1.1">
  <path d="M 1461 11 L 1461 45 L 1462 46 L 1463 45 L 1463 43 L 1464 42 L 1464 40 L 1465 39 L 1465 38 L 1466 37 L 1466 35 L 1467 34 L 1467 33 L 1468 32 L 1468 31 L 1469 30 L 1469 29 L 1472 26 L 1472 25 L 1475 22 L 1476 22 L 1478 20 L 1479 20 L 1480 19 L 1481 19 L 1482 18 L 1484 18 L 1485 17 L 1489 17 L 1490 16 L 1533 16 L 1534 17 L 1534 296 L 1533 297 L 1533 299 L 1531 301 L 1531 302 L 1529 304 L 1528 304 L 1527 305 L 1526 305 L 1525 306 L 1523 306 L 1522 307 L 1519 307 L 1518 308 L 1519 309 L 1577 309 L 1578 308 L 1578 307 L 1574 307 L 1573 306 L 1572 306 L 1571 305 L 1570 305 L 1569 304 L 1568 304 L 1565 301 L 1565 300 L 1564 299 L 1564 297 L 1563 296 L 1563 17 L 1564 16 L 1607 16 L 1608 17 L 1612 17 L 1613 18 L 1614 18 L 1615 19 L 1616 19 L 1617 20 L 1618 20 L 1626 28 L 1626 29 L 1627 30 L 1627 31 L 1628 32 L 1628 33 L 1629 34 L 1629 35 L 1630 36 L 1630 37 L 1631 38 L 1631 40 L 1632 41 L 1632 43 L 1633 44 L 1633 45 L 1634 46 L 1634 11 Z M 1076 11 L 1075 12 L 1075 15 L 1074 16 L 1074 19 L 1073 20 L 1073 23 L 1072 24 L 1072 26 L 1071 27 L 1071 30 L 1070 31 L 1070 34 L 1069 35 L 1069 37 L 1068 38 L 1068 41 L 1067 42 L 1067 44 L 1066 45 L 1066 48 L 1065 49 L 1065 52 L 1064 53 L 1064 56 L 1063 57 L 1063 59 L 1062 60 L 1062 63 L 1061 64 L 1061 66 L 1060 67 L 1060 70 L 1059 71 L 1059 73 L 1058 74 L 1058 76 L 1057 77 L 1057 80 L 1056 81 L 1056 84 L 1055 85 L 1055 87 L 1054 88 L 1054 90 L 1053 91 L 1053 93 L 1052 94 L 1052 97 L 1051 98 L 1051 101 L 1050 102 L 1050 104 L 1049 105 L 1049 107 L 1048 108 L 1048 110 L 1047 111 L 1047 114 L 1046 115 L 1046 118 L 1045 119 L 1045 121 L 1044 122 L 1044 124 L 1043 125 L 1043 127 L 1042 128 L 1042 131 L 1041 132 L 1041 134 L 1040 135 L 1040 138 L 1039 139 L 1039 141 L 1038 142 L 1038 145 L 1037 146 L 1037 148 L 1036 149 L 1036 151 L 1035 152 L 1035 155 L 1034 156 L 1034 158 L 1033 159 L 1033 162 L 1032 163 L 1032 166 L 1031 167 L 1031 169 L 1030 170 L 1030 172 L 1029 173 L 1029 176 L 1028 177 L 1028 179 L 1027 180 L 1027 183 L 1026 184 L 1026 186 L 1025 187 L 1025 190 L 1024 191 L 1024 194 L 1023 195 L 1023 197 L 1022 198 L 1022 201 L 1021 202 L 1021 204 L 1020 205 L 1020 208 L 1019 209 L 1019 211 L 1018 212 L 1018 215 L 1017 216 L 1017 219 L 1016 220 L 1016 222 L 1015 223 L 1015 226 L 1014 227 L 1014 229 L 1013 230 L 1013 233 L 1012 234 L 1012 236 L 1011 237 L 1011 240 L 1010 241 L 1010 243 L 1009 244 L 1009 247 L 1008 248 L 1008 250 L 1007 251 L 1007 254 L 1006 255 L 1006 257 L 1005 258 L 1005 261 L 1004 262 L 1004 264 L 1003 265 L 1003 267 L 1002 268 L 1002 271 L 1001 272 L 1001 275 L 1000 276 L 1000 278 L 999 279 L 999 282 L 998 283 L 998 285 L 997 286 L 997 288 L 996 289 L 996 291 L 995 292 L 995 294 L 994 295 L 994 296 L 992 298 L 992 299 L 988 303 L 987 303 L 986 304 L 985 304 L 984 305 L 983 305 L 982 306 L 981 306 L 980 307 L 977 307 L 977 309 L 1015 309 L 1015 307 L 1012 307 L 1011 306 L 1009 306 L 1008 305 L 1007 305 L 1003 301 L 1003 299 L 1002 298 L 1002 291 L 1003 290 L 1003 287 L 1004 286 L 1004 284 L 1005 283 L 1005 280 L 1006 279 L 1006 276 L 1007 275 L 1007 273 L 1008 272 L 1008 269 L 1009 268 L 1009 266 L 1010 265 L 1010 262 L 1011 261 L 1011 259 L 1012 258 L 1012 255 L 1013 254 L 1013 252 L 1014 251 L 1014 248 L 1015 247 L 1015 244 L 1016 243 L 1016 240 L 1017 239 L 1017 237 L 1018 236 L 1018 234 L 1019 233 L 1111 233 L 1112 234 L 1112 237 L 1113 238 L 1113 240 L 1114 241 L 1114 244 L 1115 245 L 1115 247 L 1116 248 L 1116 251 L 1117 252 L 1117 254 L 1118 255 L 1118 258 L 1119 259 L 1119 261 L 1120 262 L 1120 265 L 1121 266 L 1121 268 L 1122 269 L 1122 272 L 1123 273 L 1123 275 L 1124 276 L 1124 278 L 1125 279 L 1125 282 L 1126 283 L 1126 285 L 1127 286 L 1127 289 L 1128 290 L 1128 300 L 1123 305 L 1122 305 L 1121 306 L 1119 306 L 1118 307 L 1114 307 L 1114 309 L 1176 309 L 1177 308 L 1177 307 L 1174 307 L 1173 306 L 1171 306 L 1170 305 L 1168 305 L 1166 303 L 1165 303 L 1161 299 L 1161 298 L 1160 297 L 1160 296 L 1159 295 L 1159 293 L 1158 292 L 1158 290 L 1157 289 L 1157 287 L 1156 286 L 1156 283 L 1155 282 L 1155 280 L 1154 279 L 1154 277 L 1153 276 L 1153 273 L 1152 272 L 1152 270 L 1151 269 L 1151 266 L 1150 265 L 1150 263 L 1149 262 L 1149 260 L 1148 259 L 1148 256 L 1147 255 L 1147 253 L 1146 252 L 1146 249 L 1145 248 L 1145 246 L 1144 245 L 1144 242 L 1143 241 L 1143 239 L 1142 238 L 1142 235 L 1141 234 L 1141 232 L 1140 231 L 1140 229 L 1139 228 L 1139 225 L 1138 224 L 1138 222 L 1137 221 L 1137 218 L 1136 217 L 1136 215 L 1135 214 L 1135 211 L 1134 210 L 1134 208 L 1133 207 L 1133 204 L 1132 203 L 1132 201 L 1131 200 L 1131 197 L 1130 196 L 1130 194 L 1129 193 L 1129 191 L 1128 190 L 1128 187 L 1127 186 L 1127 183 L 1126 182 L 1126 180 L 1125 179 L 1125 176 L 1124 175 L 1124 172 L 1123 171 L 1123 169 L 1122 168 L 1122 165 L 1121 164 L 1121 162 L 1120 161 L 1120 158 L 1119 157 L 1119 155 L 1118 154 L 1118 151 L 1117 150 L 1117 148 L 1116 147 L 1116 144 L 1115 143 L 1115 141 L 1114 140 L 1114 137 L 1113 136 L 1113 134 L 1112 133 L 1112 130 L 1111 129 L 1111 127 L 1110 126 L 1110 123 L 1109 122 L 1109 120 L 1108 119 L 1108 116 L 1107 115 L 1107 113 L 1106 112 L 1106 109 L 1105 108 L 1105 106 L 1104 105 L 1104 103 L 1103 102 L 1103 99 L 1102 98 L 1102 96 L 1101 95 L 1101 92 L 1100 91 L 1100 89 L 1099 88 L 1099 85 L 1098 84 L 1098 82 L 1097 81 L 1097 78 L 1096 77 L 1096 75 L 1095 74 L 1095 71 L 1094 70 L 1094 68 L 1093 67 L 1093 64 L 1092 63 L 1092 60 L 1091 59 L 1091 57 L 1090 56 L 1090 54 L 1089 53 L 1089 51 L 1088 50 L 1088 47 L 1087 46 L 1087 43 L 1086 42 L 1086 39 L 1085 38 L 1085 36 L 1084 35 L 1084 32 L 1083 31 L 1083 28 L 1082 27 L 1082 25 L 1081 24 L 1081 22 L 1080 21 L 1080 18 L 1079 17 L 1079 14 L 1078 13 L 1078 11 Z M 1065 72 L 1066 71 L 1067 72 L 1067 75 L 1068 76 L 1068 78 L 1069 79 L 1069 82 L 1070 83 L 1070 86 L 1071 87 L 1071 90 L 1072 91 L 1072 94 L 1073 95 L 1073 97 L 1074 98 L 1074 101 L 1075 102 L 1075 105 L 1076 106 L 1076 108 L 1077 109 L 1077 112 L 1078 113 L 1078 116 L 1079 117 L 1079 120 L 1080 121 L 1080 123 L 1081 124 L 1081 127 L 1082 128 L 1082 130 L 1083 131 L 1083 134 L 1084 135 L 1084 138 L 1085 139 L 1085 141 L 1086 142 L 1086 145 L 1087 146 L 1087 148 L 1088 149 L 1088 152 L 1089 153 L 1089 155 L 1090 156 L 1090 159 L 1091 160 L 1091 162 L 1092 163 L 1092 166 L 1093 167 L 1093 169 L 1094 170 L 1094 172 L 1095 173 L 1095 176 L 1096 177 L 1096 180 L 1097 181 L 1097 184 L 1098 185 L 1098 187 L 1099 188 L 1099 190 L 1100 191 L 1100 194 L 1101 195 L 1101 197 L 1102 198 L 1102 201 L 1103 202 L 1103 204 L 1104 205 L 1104 208 L 1105 209 L 1105 211 L 1106 212 L 1106 215 L 1107 216 L 1107 218 L 1108 219 L 1108 222 L 1109 223 L 1109 226 L 1108 227 L 1021 227 L 1020 226 L 1021 225 L 1021 223 L 1022 222 L 1022 220 L 1023 219 L 1023 216 L 1024 215 L 1024 212 L 1025 211 L 1025 209 L 1026 208 L 1026 206 L 1027 205 L 1027 202 L 1028 201 L 1028 199 L 1029 198 L 1029 195 L 1030 194 L 1030 192 L 1031 191 L 1031 188 L 1032 187 L 1032 185 L 1033 184 L 1033 181 L 1034 180 L 1034 178 L 1035 177 L 1035 174 L 1036 173 L 1036 171 L 1037 170 L 1037 167 L 1038 166 L 1038 164 L 1039 163 L 1039 160 L 1040 159 L 1040 157 L 1041 156 L 1041 153 L 1042 152 L 1042 150 L 1043 149 L 1043 147 L 1044 146 L 1044 143 L 1045 142 L 1045 140 L 1046 139 L 1046 136 L 1047 135 L 1047 133 L 1048 132 L 1048 129 L 1049 128 L 1049 125 L 1050 124 L 1050 122 L 1051 121 L 1051 119 L 1052 118 L 1052 116 L 1053 115 L 1053 112 L 1054 111 L 1054 109 L 1055 108 L 1055 105 L 1056 104 L 1056 102 L 1057 101 L 1057 99 L 1058 98 L 1058 96 L 1059 95 L 1059 92 L 1060 91 L 1060 89 L 1061 88 L 1061 85 L 1062 84 L 1062 82 L 1063 81 L 1063 78 L 1064 77 L 1064 74 L 1065 73 Z M 809 11 L 809 45 L 810 46 L 811 45 L 811 43 L 812 42 L 812 41 L 813 40 L 813 38 L 814 37 L 814 36 L 815 35 L 815 34 L 816 33 L 816 32 L 817 31 L 817 30 L 819 28 L 819 27 L 826 20 L 827 20 L 828 19 L 829 19 L 830 18 L 832 18 L 833 17 L 836 17 L 837 16 L 882 16 L 883 17 L 883 295 L 882 296 L 882 298 L 881 299 L 881 300 L 876 305 L 875 305 L 874 306 L 872 306 L 871 307 L 867 307 L 867 308 L 868 309 L 927 309 L 927 307 L 923 307 L 922 306 L 920 306 L 919 305 L 918 305 L 913 300 L 913 299 L 912 298 L 912 295 L 911 294 L 911 18 L 913 16 L 954 16 L 955 17 L 958 17 L 959 18 L 961 18 L 962 19 L 963 19 L 966 22 L 967 22 L 969 24 L 969 25 L 972 28 L 972 29 L 974 31 L 974 32 L 975 33 L 975 35 L 976 36 L 976 37 L 977 38 L 977 40 L 978 41 L 978 43 L 979 44 L 979 46 L 980 46 L 980 11 Z M 600 11 L 601 12 L 603 12 L 604 13 L 606 13 L 607 14 L 608 14 L 613 19 L 613 20 L 614 21 L 614 22 L 615 23 L 615 28 L 616 29 L 616 77 L 615 78 L 615 80 L 616 81 L 616 141 L 615 142 L 615 144 L 616 145 L 616 290 L 615 291 L 615 296 L 614 297 L 614 298 L 613 299 L 613 300 L 608 305 L 607 305 L 606 306 L 605 306 L 604 307 L 601 307 L 600 308 L 601 309 L 636 309 L 636 307 L 633 307 L 632 306 L 631 306 L 630 305 L 629 305 L 623 299 L 623 297 L 622 296 L 622 291 L 621 290 L 621 289 L 622 288 L 622 285 L 621 284 L 621 275 L 622 274 L 622 265 L 621 264 L 621 262 L 622 261 L 622 250 L 621 249 L 621 248 L 622 247 L 622 236 L 621 235 L 621 218 L 622 217 L 622 199 L 621 198 L 621 194 L 622 193 L 622 176 L 621 175 L 621 168 L 622 167 L 622 160 L 621 159 L 621 147 L 622 146 L 622 136 L 621 135 L 621 130 L 622 129 L 622 123 L 621 122 L 621 118 L 622 117 L 622 103 L 621 102 L 621 99 L 622 98 L 622 96 L 621 95 L 621 84 L 622 83 L 622 75 L 621 74 L 621 69 L 622 68 L 622 57 L 621 56 L 621 49 L 622 48 L 622 34 L 623 33 L 624 34 L 624 36 L 625 37 L 625 38 L 626 39 L 626 40 L 627 41 L 627 42 L 628 43 L 628 45 L 629 46 L 629 47 L 630 48 L 630 49 L 631 50 L 631 52 L 632 53 L 632 54 L 633 55 L 633 56 L 634 57 L 634 59 L 635 60 L 635 61 L 636 62 L 636 63 L 637 64 L 637 66 L 638 67 L 638 68 L 639 69 L 639 70 L 640 71 L 640 73 L 641 74 L 641 75 L 642 76 L 642 77 L 643 78 L 643 80 L 644 81 L 644 82 L 645 83 L 645 84 L 646 85 L 646 87 L 647 88 L 647 89 L 648 90 L 648 92 L 649 93 L 649 94 L 650 95 L 650 96 L 651 97 L 651 98 L 652 99 L 652 101 L 653 102 L 653 103 L 654 104 L 654 105 L 655 106 L 655 108 L 656 109 L 656 110 L 657 111 L 657 112 L 658 113 L 658 115 L 659 116 L 659 117 L 660 118 L 660 119 L 661 120 L 661 121 L 662 122 L 662 124 L 663 125 L 663 126 L 664 127 L 664 129 L 665 130 L 665 131 L 666 132 L 666 133 L 667 134 L 667 135 L 668 136 L 668 137 L 669 138 L 669 140 L 670 141 L 670 142 L 671 143 L 671 145 L 672 146 L 672 147 L 673 148 L 673 149 L 674 150 L 674 152 L 675 153 L 675 154 L 676 155 L 676 156 L 677 157 L 677 158 L 678 159 L 678 161 L 679 162 L 679 163 L 680 164 L 680 166 L 681 167 L 681 168 L 682 169 L 682 170 L 683 171 L 683 172 L 684 173 L 684 174 L 685 175 L 685 177 L 686 178 L 686 179 L 687 180 L 687 182 L 688 183 L 688 184 L 689 185 L 689 186 L 690 187 L 690 189 L 691 190 L 691 191 L 692 192 L 692 193 L 693 194 L 693 195 L 694 196 L 694 198 L 695 199 L 695 200 L 696 201 L 696 202 L 697 203 L 697 205 L 698 206 L 698 207 L 699 208 L 699 209 L 700 210 L 700 212 L 701 213 L 701 214 L 702 215 L 702 216 L 703 217 L 703 219 L 704 220 L 704 221 L 705 222 L 705 223 L 706 224 L 706 225 L 707 226 L 707 228 L 708 229 L 708 230 L 709 231 L 709 232 L 710 233 L 710 234 L 711 235 L 711 237 L 712 238 L 712 239 L 713 240 L 713 241 L 714 242 L 714 244 L 715 245 L 715 246 L 716 247 L 716 248 L 717 249 L 717 250 L 718 251 L 718 253 L 719 254 L 719 255 L 720 256 L 720 257 L 721 258 L 721 259 L 722 260 L 722 262 L 723 263 L 723 264 L 724 265 L 724 266 L 725 267 L 725 268 L 726 269 L 726 271 L 727 272 L 727 273 L 728 274 L 728 275 L 729 276 L 729 277 L 730 278 L 730 280 L 731 281 L 731 282 L 732 283 L 732 284 L 733 285 L 733 286 L 734 287 L 734 289 L 735 290 L 735 291 L 736 292 L 736 293 L 737 294 L 737 296 L 738 297 L 738 298 L 739 299 L 739 300 L 740 301 L 740 302 L 741 303 L 741 304 L 742 305 L 742 306 L 743 307 L 743 308 L 744 309 L 751 309 L 751 186 L 752 185 L 752 182 L 751 181 L 751 177 L 752 176 L 752 175 L 751 174 L 751 153 L 752 152 L 752 149 L 751 148 L 751 145 L 752 144 L 752 101 L 751 100 L 751 98 L 752 97 L 752 92 L 751 91 L 751 88 L 752 87 L 752 84 L 751 83 L 751 70 L 752 69 L 752 58 L 751 57 L 751 47 L 752 46 L 752 44 L 751 43 L 751 30 L 752 29 L 752 24 L 753 23 L 753 22 L 754 21 L 754 20 L 755 19 L 755 18 L 758 15 L 759 15 L 760 14 L 761 14 L 762 13 L 763 13 L 764 12 L 767 12 L 767 11 L 730 11 L 731 12 L 733 12 L 734 13 L 735 13 L 736 14 L 737 14 L 738 15 L 739 15 L 742 18 L 742 19 L 743 20 L 743 21 L 744 22 L 744 23 L 745 24 L 745 28 L 746 29 L 746 141 L 745 142 L 745 145 L 746 146 L 746 147 L 745 148 L 745 156 L 746 157 L 746 159 L 745 160 L 745 163 L 746 164 L 746 203 L 745 204 L 745 206 L 746 207 L 746 220 L 745 221 L 745 237 L 746 238 L 746 239 L 745 240 L 743 238 L 743 236 L 742 235 L 742 234 L 741 233 L 741 232 L 740 231 L 740 229 L 739 228 L 739 227 L 738 226 L 738 225 L 737 224 L 737 222 L 736 221 L 736 220 L 735 219 L 735 218 L 734 217 L 734 216 L 733 215 L 733 213 L 732 212 L 732 211 L 731 210 L 731 209 L 730 208 L 730 206 L 729 205 L 729 204 L 728 203 L 728 202 L 727 201 L 727 199 L 726 198 L 726 197 L 725 196 L 725 194 L 724 193 L 724 192 L 723 191 L 723 190 L 722 189 L 722 187 L 721 186 L 721 185 L 720 184 L 720 183 L 719 182 L 719 181 L 718 180 L 718 178 L 717 177 L 717 176 L 716 175 L 716 173 L 715 172 L 715 171 L 714 170 L 714 169 L 713 168 L 713 167 L 712 166 L 712 164 L 711 163 L 711 162 L 710 161 L 710 160 L 709 159 L 709 157 L 708 156 L 708 155 L 707 154 L 707 153 L 706 152 L 706 150 L 705 149 L 705 148 L 704 147 L 704 146 L 703 145 L 703 143 L 702 142 L 702 141 L 701 140 L 701 139 L 700 138 L 700 137 L 699 136 L 699 134 L 698 133 L 698 132 L 697 131 L 697 130 L 696 129 L 696 127 L 695 126 L 695 125 L 694 124 L 694 123 L 693 122 L 693 120 L 692 119 L 692 118 L 691 117 L 691 115 L 690 114 L 690 113 L 689 112 L 689 111 L 688 110 L 688 109 L 687 108 L 687 107 L 686 106 L 686 104 L 685 103 L 685 102 L 684 101 L 684 100 L 683 99 L 683 98 L 682 97 L 682 95 L 681 94 L 681 93 L 680 92 L 680 91 L 679 90 L 679 88 L 678 87 L 678 86 L 677 85 L 677 84 L 676 83 L 676 81 L 675 80 L 675 79 L 674 78 L 674 77 L 673 76 L 673 74 L 672 73 L 672 72 L 671 71 L 671 70 L 670 69 L 670 68 L 669 67 L 669 65 L 668 64 L 668 63 L 667 62 L 667 60 L 666 59 L 666 58 L 665 57 L 665 56 L 664 55 L 664 54 L 663 53 L 663 51 L 662 50 L 662 49 L 661 48 L 661 46 L 660 45 L 660 44 L 659 43 L 659 42 L 658 41 L 658 39 L 657 38 L 657 37 L 656 36 L 656 35 L 655 34 L 655 33 L 654 32 L 654 30 L 653 29 L 653 27 L 652 26 L 652 25 L 651 24 L 651 23 L 650 22 L 650 21 L 649 20 L 649 18 L 648 17 L 648 16 L 647 15 L 647 13 L 646 12 L 646 11 Z M 1795 8 L 1794 9 L 1787 9 L 1786 10 L 1781 10 L 1780 11 L 1777 11 L 1776 12 L 1773 12 L 1772 13 L 1769 13 L 1768 14 L 1766 14 L 1765 15 L 1763 15 L 1762 16 L 1760 16 L 1759 17 L 1757 17 L 1756 18 L 1755 18 L 1754 19 L 1753 19 L 1752 20 L 1751 20 L 1750 21 L 1749 21 L 1748 22 L 1747 22 L 1746 23 L 1745 23 L 1744 24 L 1743 24 L 1741 26 L 1740 26 L 1739 27 L 1738 27 L 1736 29 L 1735 29 L 1733 31 L 1732 31 L 1729 34 L 1728 34 L 1725 37 L 1724 37 L 1708 53 L 1708 54 L 1705 57 L 1705 58 L 1701 62 L 1701 63 L 1699 65 L 1699 66 L 1697 68 L 1697 69 L 1695 71 L 1695 72 L 1693 74 L 1693 75 L 1692 76 L 1692 77 L 1691 78 L 1691 79 L 1689 81 L 1689 82 L 1688 83 L 1688 84 L 1687 85 L 1687 86 L 1686 87 L 1686 88 L 1685 89 L 1685 90 L 1684 91 L 1684 92 L 1683 93 L 1683 95 L 1682 96 L 1682 97 L 1681 98 L 1681 100 L 1680 101 L 1680 102 L 1679 103 L 1679 105 L 1678 106 L 1678 108 L 1677 109 L 1677 111 L 1676 112 L 1676 114 L 1675 115 L 1675 118 L 1674 119 L 1674 122 L 1673 123 L 1673 127 L 1672 128 L 1672 132 L 1671 133 L 1671 139 L 1670 140 L 1670 151 L 1669 152 L 1669 166 L 1670 167 L 1670 180 L 1671 181 L 1671 187 L 1672 188 L 1672 192 L 1673 193 L 1673 197 L 1674 198 L 1674 201 L 1675 202 L 1675 205 L 1676 206 L 1676 209 L 1677 210 L 1677 212 L 1678 213 L 1678 215 L 1679 216 L 1679 218 L 1680 219 L 1680 220 L 1681 221 L 1681 223 L 1682 224 L 1682 225 L 1683 226 L 1683 228 L 1684 229 L 1684 230 L 1685 231 L 1685 232 L 1686 233 L 1686 235 L 1688 237 L 1688 238 L 1689 239 L 1689 240 L 1690 241 L 1690 242 L 1691 243 L 1691 244 L 1692 245 L 1692 246 L 1694 248 L 1694 249 L 1695 250 L 1695 251 L 1697 253 L 1697 254 L 1699 256 L 1699 257 L 1702 260 L 1702 261 L 1706 265 L 1706 266 L 1723 283 L 1724 283 L 1728 287 L 1729 287 L 1731 289 L 1732 289 L 1734 291 L 1735 291 L 1737 293 L 1738 293 L 1739 294 L 1740 294 L 1742 296 L 1743 296 L 1744 297 L 1745 297 L 1746 298 L 1747 298 L 1748 299 L 1749 299 L 1750 300 L 1752 300 L 1753 301 L 1754 301 L 1755 302 L 1756 302 L 1757 303 L 1759 303 L 1760 304 L 1761 304 L 1762 305 L 1764 305 L 1765 306 L 1768 306 L 1769 307 L 1772 307 L 1773 308 L 1776 308 L 1777 309 L 1781 309 L 1782 310 L 1787 310 L 1788 311 L 1797 311 L 1798 312 L 1817 312 L 1818 311 L 1826 311 L 1827 310 L 1832 310 L 1833 309 L 1837 309 L 1838 308 L 1841 308 L 1842 307 L 1845 307 L 1846 306 L 1848 306 L 1849 305 L 1851 305 L 1852 304 L 1854 304 L 1855 303 L 1856 303 L 1857 302 L 1859 302 L 1860 301 L 1861 301 L 1862 300 L 1864 300 L 1865 299 L 1866 299 L 1868 297 L 1869 297 L 1870 296 L 1871 296 L 1872 295 L 1873 295 L 1875 293 L 1876 293 L 1877 292 L 1878 292 L 1880 290 L 1881 290 L 1884 287 L 1885 287 L 1888 284 L 1889 284 L 1906 267 L 1906 266 L 1909 263 L 1909 262 L 1912 259 L 1912 258 L 1914 256 L 1914 255 L 1916 253 L 1916 252 L 1918 250 L 1918 249 L 1920 247 L 1920 246 L 1921 245 L 1921 244 L 1922 243 L 1922 242 L 1923 241 L 1923 240 L 1924 239 L 1924 238 L 1925 237 L 1925 236 L 1926 235 L 1926 234 L 1927 233 L 1927 232 L 1928 231 L 1928 230 L 1929 229 L 1929 228 L 1930 227 L 1930 225 L 1931 224 L 1931 223 L 1932 222 L 1932 220 L 1933 219 L 1933 217 L 1934 216 L 1934 214 L 1935 213 L 1935 210 L 1936 209 L 1936 207 L 1937 206 L 1937 203 L 1938 202 L 1938 199 L 1939 198 L 1939 195 L 1940 194 L 1940 189 L 1941 188 L 1941 183 L 1942 182 L 1942 175 L 1943 174 L 1943 145 L 1942 144 L 1942 136 L 1941 135 L 1941 130 L 1940 129 L 1940 125 L 1939 124 L 1939 120 L 1938 119 L 1938 116 L 1937 115 L 1937 112 L 1936 111 L 1936 109 L 1935 108 L 1935 106 L 1934 105 L 1934 103 L 1933 102 L 1933 100 L 1932 99 L 1932 98 L 1931 97 L 1931 95 L 1930 94 L 1930 92 L 1929 91 L 1929 90 L 1928 89 L 1928 88 L 1927 87 L 1927 86 L 1926 85 L 1926 84 L 1925 83 L 1925 82 L 1924 81 L 1924 80 L 1923 79 L 1923 78 L 1922 77 L 1922 76 L 1921 75 L 1921 74 L 1919 72 L 1919 71 L 1917 69 L 1917 68 L 1915 66 L 1915 65 L 1913 63 L 1913 62 L 1911 60 L 1911 59 L 1907 55 L 1907 54 L 1900 47 L 1900 46 L 1897 43 L 1896 43 L 1889 36 L 1888 36 L 1884 32 L 1883 32 L 1881 30 L 1880 30 L 1878 28 L 1877 28 L 1875 26 L 1874 26 L 1873 25 L 1872 25 L 1871 24 L 1870 24 L 1869 23 L 1868 23 L 1867 22 L 1866 22 L 1864 20 L 1862 20 L 1861 19 L 1860 19 L 1859 18 L 1858 18 L 1857 17 L 1855 17 L 1854 16 L 1852 16 L 1851 15 L 1849 15 L 1848 14 L 1846 14 L 1845 13 L 1843 13 L 1842 12 L 1839 12 L 1838 11 L 1834 11 L 1833 10 L 1828 10 L 1827 9 L 1818 9 L 1817 8 Z M 1792 15 L 1793 14 L 1821 14 L 1822 15 L 1827 15 L 1828 16 L 1831 16 L 1832 17 L 1834 17 L 1835 18 L 1838 18 L 1839 19 L 1840 19 L 1841 20 L 1842 20 L 1843 21 L 1844 21 L 1845 22 L 1846 22 L 1847 23 L 1848 23 L 1849 24 L 1850 24 L 1851 25 L 1852 25 L 1854 27 L 1855 27 L 1856 28 L 1857 28 L 1860 31 L 1861 31 L 1877 47 L 1877 48 L 1880 51 L 1880 52 L 1883 55 L 1883 56 L 1885 58 L 1885 59 L 1886 60 L 1886 61 L 1888 63 L 1888 64 L 1889 65 L 1889 66 L 1890 67 L 1890 68 L 1891 69 L 1891 70 L 1893 72 L 1893 73 L 1894 74 L 1894 75 L 1895 76 L 1895 78 L 1896 79 L 1896 80 L 1897 81 L 1897 82 L 1898 83 L 1898 85 L 1899 86 L 1899 87 L 1900 88 L 1900 90 L 1901 91 L 1901 92 L 1902 93 L 1902 95 L 1903 96 L 1903 98 L 1904 99 L 1904 101 L 1905 102 L 1905 105 L 1906 106 L 1906 108 L 1907 109 L 1907 112 L 1908 113 L 1908 117 L 1909 118 L 1909 122 L 1910 123 L 1910 128 L 1911 129 L 1911 136 L 1912 137 L 1912 151 L 1913 152 L 1913 166 L 1912 167 L 1912 182 L 1911 183 L 1911 190 L 1910 191 L 1910 196 L 1909 197 L 1909 201 L 1908 202 L 1908 206 L 1907 207 L 1907 210 L 1906 211 L 1906 214 L 1905 215 L 1905 217 L 1904 218 L 1904 220 L 1903 221 L 1903 223 L 1902 224 L 1902 226 L 1901 227 L 1901 229 L 1900 230 L 1900 231 L 1899 232 L 1899 234 L 1898 235 L 1898 236 L 1897 237 L 1897 239 L 1896 240 L 1896 241 L 1895 242 L 1895 243 L 1894 244 L 1894 245 L 1893 246 L 1893 247 L 1892 248 L 1892 249 L 1891 250 L 1891 251 L 1890 252 L 1890 253 L 1888 255 L 1888 256 L 1887 257 L 1887 258 L 1885 260 L 1885 261 L 1883 263 L 1883 264 L 1881 266 L 1881 267 L 1878 270 L 1878 271 L 1874 275 L 1874 276 L 1865 285 L 1864 285 L 1859 290 L 1858 290 L 1856 292 L 1855 292 L 1853 294 L 1852 294 L 1850 296 L 1849 296 L 1848 297 L 1847 297 L 1846 298 L 1845 298 L 1844 299 L 1843 299 L 1842 300 L 1841 300 L 1840 301 L 1838 301 L 1837 302 L 1835 302 L 1834 303 L 1832 303 L 1831 304 L 1828 304 L 1827 305 L 1821 305 L 1820 306 L 1794 306 L 1793 305 L 1788 305 L 1787 304 L 1784 304 L 1783 303 L 1781 303 L 1780 302 L 1777 302 L 1776 301 L 1775 301 L 1774 300 L 1772 300 L 1771 299 L 1770 299 L 1769 298 L 1768 298 L 1767 297 L 1766 297 L 1765 296 L 1764 296 L 1763 295 L 1762 295 L 1760 293 L 1759 293 L 1758 292 L 1757 292 L 1753 288 L 1752 288 L 1748 284 L 1747 284 L 1740 277 L 1740 276 L 1735 271 L 1735 270 L 1731 266 L 1731 265 L 1729 263 L 1729 262 L 1726 259 L 1726 258 L 1725 257 L 1725 256 L 1723 254 L 1723 253 L 1722 252 L 1722 251 L 1721 250 L 1721 249 L 1720 248 L 1720 247 L 1719 246 L 1719 245 L 1718 244 L 1718 243 L 1717 242 L 1717 241 L 1716 240 L 1716 239 L 1715 238 L 1715 236 L 1714 235 L 1714 234 L 1713 233 L 1713 232 L 1712 231 L 1712 229 L 1711 228 L 1711 226 L 1710 225 L 1710 223 L 1709 222 L 1709 220 L 1708 219 L 1708 217 L 1707 216 L 1707 213 L 1706 212 L 1706 209 L 1705 208 L 1705 205 L 1704 204 L 1704 200 L 1703 199 L 1703 195 L 1702 194 L 1702 187 L 1701 186 L 1701 177 L 1700 176 L 1700 144 L 1701 143 L 1701 135 L 1702 134 L 1702 129 L 1703 128 L 1703 123 L 1704 122 L 1704 118 L 1705 117 L 1705 114 L 1706 113 L 1706 110 L 1707 109 L 1707 106 L 1708 105 L 1708 103 L 1709 102 L 1709 99 L 1710 98 L 1710 97 L 1711 96 L 1711 94 L 1712 93 L 1712 91 L 1713 90 L 1713 89 L 1714 88 L 1714 86 L 1715 85 L 1715 84 L 1716 83 L 1716 82 L 1717 81 L 1717 80 L 1718 79 L 1718 78 L 1719 77 L 1719 76 L 1720 75 L 1720 74 L 1721 73 L 1721 72 L 1722 71 L 1722 70 L 1723 69 L 1723 68 L 1725 66 L 1725 65 L 1726 64 L 1726 63 L 1728 61 L 1728 60 L 1730 58 L 1730 57 L 1732 55 L 1732 54 L 1735 51 L 1735 50 L 1740 45 L 1740 44 L 1750 34 L 1751 34 L 1756 29 L 1757 29 L 1759 27 L 1760 27 L 1762 25 L 1763 25 L 1764 24 L 1765 24 L 1766 23 L 1767 23 L 1768 22 L 1769 22 L 1770 21 L 1771 21 L 1772 20 L 1773 20 L 1774 19 L 1775 19 L 1776 18 L 1778 18 L 1779 17 L 1781 17 L 1782 16 L 1785 16 L 1786 15 Z M 1807 128 L 1807 131 L 1806 132 L 1806 134 L 1805 135 L 1805 137 L 1804 138 L 1804 139 L 1802 141 L 1802 142 L 1801 143 L 1801 144 L 1796 149 L 1795 149 L 1793 151 L 1792 151 L 1791 152 L 1790 152 L 1789 153 L 1788 153 L 1787 154 L 1785 154 L 1784 155 L 1781 155 L 1780 156 L 1779 156 L 1780 156 L 1781 157 L 1784 157 L 1785 158 L 1787 158 L 1788 159 L 1789 159 L 1790 160 L 1791 160 L 1793 162 L 1794 162 L 1796 164 L 1797 164 L 1800 167 L 1800 168 L 1803 171 L 1803 172 L 1804 173 L 1804 174 L 1805 175 L 1805 177 L 1806 178 L 1806 180 L 1807 181 L 1807 184 L 1808 185 L 1808 182 L 1809 181 L 1809 179 L 1810 178 L 1810 176 L 1811 175 L 1811 174 L 1812 173 L 1812 172 L 1814 170 L 1814 169 L 1822 161 L 1823 161 L 1824 160 L 1825 160 L 1826 159 L 1827 159 L 1828 158 L 1830 158 L 1831 157 L 1834 157 L 1835 156 L 1834 156 L 1833 155 L 1831 155 L 1830 154 L 1828 154 L 1827 153 L 1825 153 L 1824 152 L 1823 152 L 1821 150 L 1820 150 L 1814 144 L 1814 143 L 1813 142 L 1813 141 L 1811 139 L 1811 137 L 1810 136 L 1810 135 L 1809 134 L 1809 132 L 1808 131 L 1808 128 Z M 1319 8 L 1318 9 L 1310 9 L 1309 10 L 1303 10 L 1302 11 L 1298 11 L 1297 12 L 1294 12 L 1293 13 L 1291 13 L 1290 14 L 1287 14 L 1286 15 L 1284 15 L 1283 16 L 1281 16 L 1280 17 L 1279 17 L 1278 18 L 1276 18 L 1275 19 L 1274 19 L 1273 20 L 1272 20 L 1271 21 L 1270 21 L 1269 22 L 1268 22 L 1267 23 L 1266 23 L 1265 24 L 1264 24 L 1263 25 L 1262 25 L 1260 27 L 1259 27 L 1257 29 L 1256 29 L 1254 31 L 1253 31 L 1250 34 L 1249 34 L 1244 39 L 1243 39 L 1232 50 L 1232 51 L 1225 58 L 1225 59 L 1223 61 L 1223 62 L 1220 65 L 1220 66 L 1219 67 L 1219 68 L 1217 70 L 1217 71 L 1216 72 L 1216 73 L 1214 75 L 1214 76 L 1213 77 L 1213 78 L 1212 79 L 1212 80 L 1210 82 L 1210 83 L 1209 84 L 1209 86 L 1208 87 L 1208 88 L 1207 89 L 1207 90 L 1206 91 L 1206 92 L 1205 93 L 1205 95 L 1204 96 L 1204 97 L 1203 98 L 1203 100 L 1202 101 L 1202 103 L 1201 104 L 1201 105 L 1200 106 L 1200 109 L 1199 110 L 1199 112 L 1198 113 L 1198 116 L 1197 117 L 1197 121 L 1196 122 L 1196 125 L 1195 126 L 1195 131 L 1194 132 L 1194 139 L 1193 140 L 1193 156 L 1192 157 L 1192 162 L 1193 163 L 1193 178 L 1194 179 L 1194 185 L 1195 186 L 1195 191 L 1196 192 L 1196 196 L 1197 197 L 1197 201 L 1198 202 L 1198 204 L 1199 205 L 1199 208 L 1200 209 L 1200 211 L 1201 212 L 1201 215 L 1202 216 L 1202 218 L 1203 219 L 1203 220 L 1204 221 L 1204 223 L 1205 224 L 1205 226 L 1206 227 L 1206 228 L 1207 229 L 1207 230 L 1208 231 L 1208 232 L 1209 233 L 1209 235 L 1210 236 L 1210 237 L 1211 238 L 1211 239 L 1212 240 L 1212 241 L 1214 243 L 1214 244 L 1215 245 L 1215 246 L 1217 248 L 1217 249 L 1219 251 L 1219 252 L 1221 254 L 1221 255 L 1223 257 L 1223 258 L 1226 261 L 1226 262 L 1230 266 L 1230 267 L 1244 281 L 1245 281 L 1249 285 L 1250 285 L 1253 288 L 1254 288 L 1256 290 L 1257 290 L 1259 292 L 1260 292 L 1262 294 L 1263 294 L 1264 295 L 1265 295 L 1266 296 L 1267 296 L 1268 297 L 1269 297 L 1270 298 L 1271 298 L 1272 299 L 1273 299 L 1274 300 L 1275 300 L 1276 301 L 1278 301 L 1279 302 L 1280 302 L 1281 303 L 1283 303 L 1284 304 L 1286 304 L 1287 305 L 1289 305 L 1290 306 L 1292 306 L 1293 307 L 1296 307 L 1297 308 L 1301 308 L 1302 309 L 1306 309 L 1307 310 L 1313 310 L 1314 311 L 1345 311 L 1346 310 L 1352 310 L 1353 309 L 1357 309 L 1358 308 L 1361 308 L 1362 307 L 1365 307 L 1366 306 L 1369 306 L 1370 305 L 1372 305 L 1373 304 L 1375 304 L 1376 303 L 1377 303 L 1378 302 L 1380 302 L 1381 301 L 1382 301 L 1383 300 L 1384 300 L 1385 299 L 1386 299 L 1387 298 L 1388 298 L 1389 297 L 1390 297 L 1391 296 L 1392 296 L 1394 294 L 1395 294 L 1397 292 L 1398 292 L 1399 291 L 1400 291 L 1404 287 L 1405 287 L 1409 283 L 1409 270 L 1396 283 L 1395 283 L 1393 285 L 1392 285 L 1389 288 L 1388 288 L 1386 290 L 1385 290 L 1383 292 L 1382 292 L 1381 293 L 1380 293 L 1379 294 L 1378 294 L 1377 295 L 1376 295 L 1375 296 L 1374 296 L 1373 297 L 1372 297 L 1371 298 L 1369 298 L 1368 299 L 1367 299 L 1366 300 L 1364 300 L 1363 301 L 1360 301 L 1359 302 L 1357 302 L 1356 303 L 1353 303 L 1352 304 L 1347 304 L 1346 305 L 1339 305 L 1338 306 L 1323 306 L 1322 305 L 1315 305 L 1314 304 L 1310 304 L 1309 303 L 1306 303 L 1305 302 L 1303 302 L 1302 301 L 1300 301 L 1299 300 L 1298 300 L 1297 299 L 1295 299 L 1294 298 L 1293 298 L 1292 297 L 1291 297 L 1290 296 L 1289 296 L 1288 295 L 1287 295 L 1285 293 L 1284 293 L 1283 292 L 1282 292 L 1280 290 L 1279 290 L 1276 287 L 1275 287 L 1270 282 L 1269 282 L 1266 279 L 1266 278 L 1259 271 L 1259 270 L 1256 267 L 1256 266 L 1253 263 L 1253 262 L 1251 260 L 1251 259 L 1249 257 L 1249 256 L 1248 255 L 1248 254 L 1246 252 L 1246 251 L 1245 250 L 1245 249 L 1244 248 L 1244 247 L 1243 246 L 1243 245 L 1242 244 L 1242 243 L 1241 242 L 1241 241 L 1240 240 L 1240 239 L 1239 238 L 1239 236 L 1238 235 L 1238 234 L 1237 233 L 1237 231 L 1236 230 L 1236 229 L 1235 228 L 1235 226 L 1234 225 L 1234 223 L 1233 222 L 1233 220 L 1232 219 L 1232 217 L 1231 216 L 1231 213 L 1230 212 L 1230 210 L 1229 209 L 1229 205 L 1228 204 L 1228 201 L 1227 200 L 1227 196 L 1226 195 L 1226 190 L 1225 189 L 1225 181 L 1224 180 L 1224 167 L 1223 166 L 1223 151 L 1224 150 L 1224 137 L 1225 136 L 1225 129 L 1226 128 L 1226 123 L 1227 122 L 1227 117 L 1228 116 L 1228 113 L 1229 112 L 1229 109 L 1230 108 L 1230 105 L 1231 104 L 1231 102 L 1232 101 L 1232 99 L 1233 98 L 1233 96 L 1234 95 L 1234 93 L 1235 92 L 1235 90 L 1236 89 L 1236 88 L 1237 87 L 1237 85 L 1238 84 L 1238 83 L 1239 82 L 1239 81 L 1240 80 L 1240 78 L 1241 77 L 1241 76 L 1242 75 L 1242 74 L 1243 73 L 1243 72 L 1244 71 L 1244 70 L 1245 69 L 1245 68 L 1247 66 L 1247 65 L 1248 64 L 1248 63 L 1250 61 L 1250 60 L 1252 58 L 1252 57 L 1254 55 L 1254 54 L 1256 52 L 1256 51 L 1260 47 L 1260 46 L 1272 34 L 1273 34 L 1276 31 L 1277 31 L 1280 28 L 1281 28 L 1283 26 L 1284 26 L 1285 25 L 1286 25 L 1287 24 L 1288 24 L 1289 23 L 1290 23 L 1291 22 L 1292 22 L 1293 21 L 1294 21 L 1295 20 L 1296 20 L 1297 19 L 1299 19 L 1300 18 L 1302 18 L 1303 17 L 1306 17 L 1307 16 L 1310 16 L 1311 15 L 1315 15 L 1316 14 L 1342 14 L 1343 15 L 1347 15 L 1348 16 L 1351 16 L 1352 17 L 1355 17 L 1356 18 L 1357 18 L 1358 19 L 1360 19 L 1361 20 L 1363 20 L 1364 21 L 1365 21 L 1366 22 L 1367 22 L 1368 23 L 1369 23 L 1371 25 L 1372 25 L 1373 26 L 1374 26 L 1377 29 L 1378 29 L 1388 39 L 1388 40 L 1392 44 L 1392 45 L 1394 47 L 1394 48 L 1396 50 L 1396 51 L 1398 53 L 1398 54 L 1399 55 L 1399 56 L 1400 57 L 1400 58 L 1401 59 L 1401 60 L 1402 61 L 1402 62 L 1403 63 L 1403 64 L 1404 65 L 1404 67 L 1405 68 L 1405 69 L 1406 70 L 1406 72 L 1407 73 L 1407 75 L 1408 76 L 1408 79 L 1409 80 L 1409 45 L 1408 44 L 1408 33 L 1407 33 L 1405 31 L 1404 31 L 1402 29 L 1401 29 L 1399 27 L 1398 27 L 1397 26 L 1396 26 L 1395 25 L 1394 25 L 1392 23 L 1391 23 L 1390 22 L 1389 22 L 1388 21 L 1386 21 L 1385 20 L 1384 20 L 1383 19 L 1382 19 L 1381 18 L 1379 18 L 1378 17 L 1377 17 L 1376 16 L 1374 16 L 1373 15 L 1371 15 L 1370 14 L 1368 14 L 1367 13 L 1364 13 L 1363 12 L 1360 12 L 1359 11 L 1354 11 L 1353 10 L 1347 10 L 1346 9 L 1337 9 L 1336 8 Z M 406 8 L 405 9 L 398 9 L 397 10 L 392 10 L 391 11 L 386 11 L 385 12 L 382 12 L 381 13 L 379 13 L 378 14 L 375 14 L 374 15 L 373 15 L 372 16 L 370 16 L 369 17 L 367 17 L 366 18 L 365 18 L 364 19 L 363 19 L 362 20 L 361 20 L 360 21 L 359 21 L 358 22 L 357 22 L 356 23 L 355 23 L 354 24 L 353 24 L 352 25 L 351 25 L 349 27 L 348 27 L 347 28 L 346 28 L 344 30 L 343 30 L 340 33 L 339 33 L 336 36 L 335 36 L 329 42 L 328 42 L 320 50 L 320 51 L 315 56 L 315 57 L 311 61 L 311 62 L 308 65 L 308 66 L 306 68 L 306 69 L 305 70 L 305 71 L 303 73 L 303 74 L 301 76 L 301 77 L 300 78 L 300 79 L 299 80 L 299 81 L 298 82 L 298 83 L 297 84 L 297 85 L 296 86 L 296 87 L 295 88 L 295 89 L 294 90 L 294 91 L 293 92 L 293 94 L 292 95 L 292 96 L 291 97 L 291 98 L 290 99 L 290 101 L 289 102 L 289 104 L 288 105 L 288 107 L 287 108 L 287 110 L 286 111 L 286 114 L 285 115 L 285 117 L 284 118 L 284 122 L 283 123 L 283 126 L 282 127 L 282 132 L 281 133 L 281 139 L 280 140 L 280 151 L 279 152 L 279 167 L 280 168 L 280 179 L 281 180 L 281 186 L 282 187 L 282 192 L 283 193 L 283 197 L 284 198 L 284 201 L 285 202 L 285 205 L 286 206 L 286 208 L 287 209 L 287 212 L 288 213 L 288 215 L 289 216 L 289 218 L 290 219 L 290 220 L 291 221 L 291 223 L 292 224 L 292 225 L 293 226 L 293 228 L 294 229 L 294 230 L 295 231 L 295 232 L 296 233 L 296 234 L 297 235 L 297 236 L 298 237 L 298 238 L 299 239 L 299 240 L 300 241 L 300 242 L 301 243 L 301 244 L 302 245 L 302 246 L 304 248 L 304 249 L 306 251 L 306 252 L 308 254 L 308 255 L 310 257 L 310 258 L 314 262 L 314 263 L 320 269 L 320 270 L 328 278 L 329 278 L 334 283 L 335 283 L 339 287 L 340 287 L 342 289 L 343 289 L 345 291 L 346 291 L 347 292 L 348 292 L 350 294 L 351 294 L 352 295 L 353 295 L 354 296 L 355 296 L 356 297 L 357 297 L 358 298 L 359 298 L 360 299 L 361 299 L 362 300 L 363 300 L 364 301 L 366 301 L 367 302 L 369 302 L 370 303 L 371 303 L 372 304 L 374 304 L 375 305 L 377 305 L 378 306 L 381 306 L 382 307 L 385 307 L 386 308 L 390 308 L 391 309 L 395 309 L 396 310 L 403 310 L 404 311 L 426 311 L 427 310 L 434 310 L 435 309 L 440 309 L 441 308 L 444 308 L 445 307 L 448 307 L 449 306 L 452 306 L 453 305 L 455 305 L 456 304 L 458 304 L 459 303 L 461 303 L 462 302 L 464 302 L 465 301 L 466 301 L 467 300 L 469 300 L 470 299 L 471 299 L 472 298 L 473 298 L 474 297 L 475 297 L 476 296 L 477 296 L 479 294 L 480 294 L 481 293 L 482 293 L 484 291 L 485 291 L 487 289 L 488 289 L 490 287 L 491 287 L 494 284 L 495 284 L 502 277 L 503 277 L 511 269 L 511 268 L 517 262 L 517 261 L 520 258 L 520 257 L 522 255 L 522 254 L 524 252 L 524 251 L 526 249 L 526 248 L 528 246 L 528 245 L 529 244 L 529 243 L 531 241 L 531 240 L 532 239 L 532 238 L 533 237 L 533 236 L 534 235 L 534 234 L 535 233 L 535 231 L 536 230 L 536 229 L 537 228 L 537 227 L 538 226 L 538 225 L 539 224 L 539 222 L 540 221 L 540 220 L 541 219 L 541 217 L 542 216 L 542 214 L 543 213 L 543 211 L 544 210 L 544 208 L 545 207 L 545 204 L 546 203 L 546 200 L 547 199 L 547 195 L 548 194 L 548 190 L 549 189 L 549 183 L 550 182 L 550 173 L 551 172 L 551 146 L 550 145 L 550 137 L 549 136 L 549 130 L 548 129 L 548 124 L 547 123 L 547 119 L 546 118 L 546 115 L 545 114 L 545 112 L 544 111 L 544 108 L 543 107 L 543 105 L 542 104 L 542 102 L 541 101 L 541 100 L 540 99 L 540 97 L 539 96 L 539 94 L 538 93 L 538 92 L 537 91 L 537 90 L 536 89 L 536 88 L 535 87 L 535 86 L 534 85 L 534 84 L 533 83 L 533 82 L 532 81 L 532 79 L 530 77 L 530 76 L 529 75 L 529 74 L 528 73 L 528 72 L 526 70 L 526 69 L 524 67 L 524 66 L 522 64 L 522 63 L 520 61 L 520 60 L 517 57 L 517 56 L 508 47 L 508 46 L 506 44 L 505 44 L 499 38 L 498 38 L 494 34 L 493 34 L 491 32 L 490 32 L 487 29 L 486 29 L 484 27 L 483 27 L 482 26 L 481 26 L 480 25 L 479 25 L 477 23 L 476 23 L 475 22 L 474 22 L 473 21 L 472 21 L 471 20 L 470 20 L 469 19 L 467 19 L 466 18 L 465 18 L 464 17 L 462 17 L 461 16 L 460 16 L 459 15 L 457 15 L 456 14 L 453 14 L 452 13 L 450 13 L 449 12 L 445 12 L 444 11 L 440 11 L 439 10 L 435 10 L 434 9 L 426 9 L 425 8 Z M 410 14 L 411 13 L 418 13 L 419 14 L 428 14 L 429 15 L 434 15 L 435 16 L 438 16 L 439 17 L 441 17 L 442 18 L 444 18 L 445 19 L 447 19 L 448 20 L 449 20 L 450 21 L 452 21 L 453 22 L 454 22 L 455 23 L 456 23 L 458 25 L 459 25 L 460 26 L 461 26 L 463 28 L 464 28 L 466 30 L 467 30 L 471 34 L 472 34 L 483 45 L 483 46 L 487 50 L 487 51 L 490 54 L 490 55 L 492 57 L 492 58 L 494 60 L 494 61 L 495 62 L 495 63 L 497 65 L 497 66 L 498 67 L 498 68 L 499 69 L 499 70 L 501 72 L 501 74 L 502 75 L 502 76 L 503 77 L 503 78 L 504 79 L 504 80 L 505 81 L 505 82 L 506 83 L 506 84 L 507 85 L 507 87 L 508 88 L 508 90 L 509 91 L 509 92 L 510 93 L 510 95 L 511 96 L 511 98 L 512 99 L 512 102 L 513 103 L 513 105 L 514 106 L 514 109 L 515 110 L 515 113 L 516 114 L 516 118 L 517 119 L 517 124 L 518 125 L 518 130 L 519 131 L 519 141 L 520 142 L 520 175 L 519 176 L 519 185 L 518 186 L 518 192 L 517 193 L 517 198 L 516 199 L 516 203 L 515 204 L 515 207 L 514 208 L 514 211 L 513 212 L 513 215 L 512 216 L 512 218 L 511 219 L 511 221 L 510 222 L 510 224 L 509 225 L 509 227 L 508 228 L 508 229 L 507 230 L 507 232 L 506 233 L 506 234 L 505 235 L 505 236 L 504 237 L 504 239 L 503 240 L 503 241 L 502 242 L 502 243 L 501 244 L 501 245 L 500 246 L 500 247 L 499 248 L 499 249 L 498 250 L 498 251 L 496 253 L 496 254 L 495 255 L 495 256 L 494 257 L 494 258 L 492 260 L 492 261 L 490 263 L 490 264 L 487 267 L 487 268 L 483 272 L 483 273 L 470 286 L 469 286 L 465 290 L 464 290 L 462 292 L 461 292 L 459 294 L 458 294 L 457 295 L 456 295 L 455 296 L 454 296 L 453 297 L 452 297 L 451 298 L 450 298 L 449 299 L 448 299 L 447 300 L 445 300 L 444 301 L 442 301 L 441 302 L 438 302 L 437 303 L 434 303 L 433 304 L 429 304 L 428 305 L 403 305 L 402 304 L 397 304 L 396 303 L 393 303 L 392 302 L 390 302 L 389 301 L 387 301 L 386 300 L 384 300 L 383 299 L 381 299 L 380 298 L 379 298 L 378 297 L 377 297 L 376 296 L 375 296 L 373 294 L 372 294 L 371 293 L 370 293 L 368 291 L 367 291 L 364 288 L 363 288 L 359 284 L 358 284 L 349 275 L 349 274 L 344 269 L 344 268 L 340 264 L 340 263 L 339 262 L 339 261 L 337 259 L 337 258 L 335 256 L 335 255 L 334 254 L 334 253 L 332 251 L 332 250 L 331 249 L 331 248 L 330 247 L 330 246 L 329 245 L 329 244 L 328 243 L 328 242 L 327 241 L 327 240 L 326 239 L 326 238 L 325 237 L 325 235 L 324 234 L 324 233 L 323 232 L 323 230 L 322 229 L 322 227 L 321 226 L 321 225 L 320 224 L 320 221 L 319 220 L 319 219 L 318 218 L 318 215 L 317 214 L 317 212 L 316 211 L 316 207 L 315 206 L 315 203 L 314 202 L 314 198 L 313 197 L 313 192 L 312 191 L 312 185 L 311 184 L 311 174 L 310 173 L 310 145 L 311 144 L 311 135 L 312 134 L 312 128 L 313 127 L 313 123 L 314 122 L 314 118 L 315 117 L 315 113 L 316 112 L 316 110 L 317 109 L 317 106 L 318 105 L 318 103 L 319 102 L 319 100 L 320 99 L 320 97 L 321 96 L 321 94 L 322 93 L 322 91 L 323 90 L 323 88 L 324 87 L 324 86 L 325 85 L 325 83 L 326 82 L 326 81 L 327 80 L 327 79 L 328 78 L 328 77 L 329 76 L 329 75 L 330 74 L 330 73 L 331 72 L 331 71 L 332 70 L 332 69 L 333 68 L 333 67 L 334 66 L 334 65 L 336 63 L 336 62 L 338 60 L 338 59 L 340 57 L 340 56 L 342 54 L 342 53 L 345 50 L 345 49 L 349 45 L 349 44 L 353 40 L 354 40 L 356 38 L 356 37 L 358 35 L 359 35 L 364 30 L 365 30 L 367 28 L 368 28 L 370 26 L 371 26 L 372 25 L 373 25 L 374 24 L 375 24 L 376 23 L 377 23 L 379 21 L 380 21 L 381 20 L 383 20 L 384 19 L 386 19 L 387 18 L 388 18 L 389 17 L 391 17 L 392 16 L 395 16 L 396 15 L 400 15 L 401 14 Z M 415 128 L 415 131 L 414 132 L 414 135 L 413 136 L 413 137 L 412 138 L 412 139 L 411 140 L 411 141 L 409 143 L 409 144 L 403 150 L 402 150 L 401 151 L 400 151 L 399 152 L 398 152 L 397 153 L 396 153 L 395 154 L 393 154 L 392 155 L 388 155 L 387 156 L 388 156 L 389 157 L 391 157 L 392 158 L 394 158 L 395 159 L 397 159 L 398 160 L 399 160 L 400 161 L 401 161 L 403 163 L 404 163 L 408 167 L 408 168 L 410 170 L 410 171 L 412 173 L 412 175 L 413 176 L 413 177 L 414 178 L 414 181 L 415 182 L 415 184 L 416 185 L 416 182 L 417 181 L 417 179 L 418 178 L 418 176 L 419 175 L 419 174 L 420 173 L 420 172 L 421 171 L 421 170 L 423 168 L 423 167 L 427 163 L 428 163 L 430 161 L 431 161 L 432 160 L 433 160 L 434 159 L 435 159 L 436 158 L 438 158 L 439 157 L 441 157 L 442 156 L 443 156 L 442 156 L 441 155 L 439 155 L 438 154 L 436 154 L 435 153 L 434 153 L 433 152 L 432 152 L 431 151 L 430 151 L 428 149 L 427 149 L 423 145 L 423 144 L 421 142 L 421 141 L 420 140 L 420 139 L 419 138 L 419 137 L 418 136 L 418 135 L 417 134 L 417 132 L 416 131 L 416 128 Z M 134 8 L 133 9 L 124 9 L 123 10 L 119 10 L 118 11 L 113 11 L 112 12 L 109 12 L 108 13 L 106 13 L 105 14 L 102 14 L 101 15 L 100 15 L 99 16 L 97 16 L 96 17 L 94 17 L 93 18 L 92 18 L 91 19 L 89 19 L 88 20 L 87 20 L 86 21 L 85 21 L 84 22 L 83 22 L 82 23 L 81 23 L 79 25 L 78 25 L 77 26 L 76 26 L 75 27 L 74 27 L 72 29 L 71 29 L 68 32 L 67 32 L 64 35 L 63 35 L 56 42 L 55 42 L 51 46 L 51 47 L 44 54 L 44 55 L 40 59 L 40 60 L 38 62 L 38 63 L 35 66 L 35 67 L 34 68 L 34 69 L 32 71 L 32 72 L 31 73 L 31 74 L 29 76 L 29 77 L 28 78 L 28 79 L 27 80 L 27 81 L 26 82 L 26 83 L 25 84 L 25 85 L 24 86 L 24 87 L 23 88 L 23 89 L 22 90 L 22 92 L 21 93 L 21 94 L 20 95 L 20 97 L 19 98 L 19 99 L 18 100 L 18 102 L 17 103 L 17 105 L 16 106 L 16 108 L 15 109 L 15 112 L 14 113 L 14 116 L 13 117 L 13 120 L 12 121 L 12 125 L 11 126 L 11 131 L 10 132 L 10 139 L 9 140 L 9 161 L 8 162 L 9 163 L 9 178 L 10 179 L 10 186 L 11 187 L 11 192 L 12 193 L 12 197 L 13 198 L 13 202 L 14 203 L 14 206 L 15 207 L 15 209 L 16 210 L 16 212 L 17 213 L 17 215 L 18 216 L 18 218 L 19 219 L 19 221 L 20 222 L 20 224 L 21 225 L 21 226 L 22 227 L 22 228 L 23 229 L 23 230 L 24 231 L 24 233 L 25 234 L 25 235 L 26 236 L 26 237 L 27 238 L 27 239 L 28 240 L 28 241 L 29 242 L 29 243 L 31 245 L 31 246 L 32 247 L 32 248 L 33 249 L 33 250 L 35 252 L 35 253 L 37 255 L 37 256 L 40 259 L 40 260 L 44 264 L 44 265 L 62 283 L 63 283 L 67 287 L 68 287 L 70 289 L 71 289 L 73 291 L 74 291 L 76 293 L 77 293 L 78 294 L 79 294 L 81 296 L 82 296 L 83 297 L 84 297 L 85 298 L 86 298 L 87 299 L 88 299 L 89 300 L 91 300 L 92 301 L 93 301 L 94 302 L 96 302 L 97 303 L 99 303 L 100 304 L 102 304 L 103 305 L 105 305 L 106 306 L 108 306 L 109 307 L 112 307 L 113 308 L 117 308 L 118 309 L 123 309 L 124 310 L 132 310 L 133 311 L 156 311 L 157 310 L 164 310 L 165 309 L 169 309 L 170 308 L 174 308 L 175 307 L 178 307 L 179 306 L 182 306 L 183 305 L 185 305 L 186 304 L 187 304 L 188 303 L 190 303 L 191 302 L 193 302 L 194 301 L 195 301 L 196 300 L 198 300 L 199 299 L 200 299 L 201 298 L 202 298 L 203 297 L 204 297 L 206 295 L 207 295 L 208 294 L 209 294 L 211 292 L 212 292 L 214 290 L 215 290 L 218 287 L 219 287 L 222 284 L 223 284 L 223 283 L 224 282 L 224 271 L 223 270 L 211 282 L 210 282 L 207 285 L 206 285 L 203 288 L 202 288 L 200 290 L 199 290 L 198 291 L 197 291 L 195 293 L 194 293 L 193 294 L 192 294 L 191 295 L 190 295 L 189 296 L 188 296 L 187 297 L 186 297 L 185 298 L 183 298 L 182 299 L 181 299 L 180 300 L 178 300 L 177 301 L 174 301 L 173 302 L 170 302 L 169 303 L 166 303 L 165 304 L 159 304 L 158 305 L 150 305 L 149 306 L 144 306 L 143 305 L 132 305 L 131 304 L 126 304 L 125 303 L 122 303 L 121 302 L 119 302 L 118 301 L 115 301 L 114 300 L 113 300 L 112 299 L 110 299 L 109 298 L 108 298 L 107 297 L 106 297 L 105 296 L 104 296 L 103 295 L 102 295 L 100 293 L 99 293 L 97 291 L 96 291 L 95 290 L 94 290 L 90 286 L 89 286 L 75 272 L 75 271 L 71 267 L 71 266 L 68 263 L 68 262 L 66 260 L 66 259 L 65 258 L 65 257 L 63 255 L 63 254 L 62 253 L 62 252 L 61 251 L 61 250 L 60 249 L 60 248 L 59 247 L 59 246 L 58 245 L 58 244 L 57 243 L 57 242 L 56 241 L 56 240 L 55 239 L 55 238 L 54 237 L 54 235 L 53 234 L 53 233 L 52 232 L 52 231 L 51 230 L 51 228 L 50 227 L 50 225 L 49 224 L 49 222 L 48 221 L 48 219 L 47 218 L 47 215 L 46 214 L 46 211 L 45 210 L 45 208 L 44 207 L 44 203 L 43 202 L 43 198 L 42 197 L 42 192 L 41 191 L 41 185 L 40 184 L 40 173 L 39 172 L 39 144 L 40 143 L 40 134 L 41 133 L 41 126 L 42 125 L 42 121 L 43 120 L 43 116 L 44 115 L 44 112 L 45 111 L 45 108 L 46 107 L 46 104 L 47 103 L 47 100 L 48 99 L 48 97 L 49 96 L 49 94 L 50 93 L 50 91 L 51 90 L 51 89 L 52 88 L 52 86 L 53 85 L 53 84 L 54 83 L 54 81 L 55 80 L 55 79 L 56 78 L 56 77 L 57 76 L 57 75 L 58 74 L 58 73 L 59 72 L 59 71 L 60 70 L 60 69 L 61 68 L 61 67 L 62 66 L 62 65 L 64 63 L 64 62 L 65 61 L 65 60 L 67 58 L 67 57 L 69 55 L 69 54 L 71 52 L 71 51 L 75 47 L 75 46 L 87 34 L 88 34 L 92 30 L 93 30 L 95 28 L 96 28 L 98 26 L 99 26 L 100 25 L 101 25 L 102 24 L 103 24 L 104 23 L 105 23 L 107 21 L 108 21 L 109 20 L 111 20 L 112 19 L 114 19 L 115 18 L 117 18 L 118 17 L 120 17 L 121 16 L 125 16 L 126 15 L 130 15 L 131 14 L 156 14 L 157 15 L 162 15 L 163 16 L 166 16 L 167 17 L 169 17 L 170 18 L 172 18 L 173 19 L 175 19 L 176 20 L 177 20 L 178 21 L 179 21 L 180 22 L 181 22 L 182 23 L 183 23 L 184 24 L 185 24 L 187 26 L 188 26 L 190 28 L 191 28 L 204 41 L 204 42 L 208 46 L 208 47 L 210 49 L 210 50 L 211 51 L 211 52 L 213 54 L 213 55 L 214 56 L 214 57 L 215 58 L 215 59 L 216 60 L 216 62 L 217 63 L 217 64 L 218 65 L 218 66 L 219 67 L 219 69 L 220 70 L 220 72 L 221 73 L 221 75 L 222 76 L 222 78 L 223 79 L 223 80 L 223 44 L 222 43 L 222 42 L 223 41 L 222 40 L 222 33 L 221 33 L 219 31 L 218 31 L 216 29 L 215 29 L 213 27 L 212 27 L 211 26 L 210 26 L 209 25 L 208 25 L 206 23 L 205 23 L 204 22 L 203 22 L 202 21 L 201 21 L 200 20 L 198 20 L 197 19 L 196 19 L 195 18 L 194 18 L 193 17 L 191 17 L 190 16 L 188 16 L 187 15 L 185 15 L 184 14 L 182 14 L 181 13 L 179 13 L 178 12 L 175 12 L 174 11 L 169 11 L 168 10 L 162 10 L 161 9 L 151 9 L 150 8 Z" fill="#000000" fill-rule="evenodd"/>
</svg>
