<svg xmlns="http://www.w3.org/2000/svg" width="1957" height="282" viewBox="0 0 1957 282" version="1.1">
  <path d="M 934 11 L 936 11 L 937 12 L 939 12 L 940 13 L 941 13 L 942 14 L 943 14 L 945 16 L 945 17 L 946 18 L 946 19 L 947 20 L 947 259 L 946 260 L 946 262 L 945 263 L 945 264 L 943 266 L 942 266 L 941 267 L 940 267 L 939 268 L 937 268 L 936 269 L 934 269 L 934 270 L 984 270 L 984 269 L 982 269 L 981 268 L 979 268 L 978 267 L 977 267 L 972 262 L 972 260 L 971 259 L 971 133 L 972 132 L 1002 132 L 1003 133 L 1005 133 L 1006 134 L 1007 134 L 1008 135 L 1009 135 L 1014 140 L 1014 141 L 1015 142 L 1015 143 L 1016 144 L 1016 145 L 1017 146 L 1017 150 L 1018 151 L 1018 154 L 1019 155 L 1020 154 L 1020 105 L 1018 105 L 1018 109 L 1017 110 L 1017 113 L 1016 114 L 1016 116 L 1014 118 L 1014 119 L 1008 125 L 1007 125 L 1006 126 L 1005 126 L 1004 127 L 1001 127 L 1000 128 L 972 128 L 971 127 L 971 16 L 972 15 L 1020 15 L 1021 16 L 1024 16 L 1025 17 L 1026 17 L 1027 18 L 1029 18 L 1031 20 L 1032 20 L 1038 26 L 1038 27 L 1040 29 L 1040 30 L 1041 31 L 1041 33 L 1042 34 L 1042 38 L 1043 39 L 1043 41 L 1044 42 L 1045 42 L 1045 40 L 1046 39 L 1046 12 L 1045 11 Z M 587 11 L 587 13 L 586 14 L 586 28 L 587 29 L 587 41 L 588 41 L 588 38 L 589 37 L 589 35 L 590 34 L 590 32 L 591 31 L 591 29 L 592 28 L 592 27 L 595 24 L 595 23 L 598 20 L 599 20 L 600 19 L 601 19 L 602 18 L 603 18 L 604 17 L 606 17 L 607 16 L 610 16 L 611 15 L 645 15 L 646 16 L 646 259 L 645 260 L 645 262 L 640 267 L 639 267 L 638 268 L 636 268 L 635 269 L 633 269 L 633 270 L 682 270 L 682 269 L 680 269 L 679 268 L 677 268 L 676 267 L 675 267 L 671 263 L 671 262 L 670 261 L 670 16 L 671 15 L 703 15 L 704 16 L 709 16 L 710 17 L 712 17 L 713 18 L 714 18 L 716 20 L 717 20 L 722 25 L 722 26 L 723 27 L 723 28 L 724 29 L 724 30 L 725 31 L 725 32 L 726 33 L 726 36 L 727 37 L 727 40 L 728 41 L 729 41 L 729 11 Z M 422 11 L 423 11 L 424 12 L 426 12 L 427 13 L 429 13 L 433 17 L 433 18 L 434 19 L 434 261 L 433 262 L 433 263 L 429 267 L 428 267 L 427 268 L 425 268 L 424 269 L 422 269 L 422 270 L 471 270 L 471 269 L 469 269 L 468 268 L 466 268 L 465 267 L 464 267 L 463 266 L 462 266 L 460 264 L 460 263 L 459 262 L 459 260 L 458 259 L 458 156 L 460 154 L 476 154 L 477 155 L 481 155 L 482 156 L 485 156 L 486 157 L 487 157 L 488 158 L 489 158 L 491 160 L 492 160 L 503 171 L 503 172 L 506 175 L 506 176 L 507 177 L 507 178 L 509 180 L 509 181 L 510 182 L 510 183 L 511 184 L 511 186 L 512 187 L 512 188 L 513 189 L 513 191 L 514 192 L 514 193 L 515 194 L 515 197 L 516 198 L 516 200 L 517 201 L 517 203 L 518 204 L 518 206 L 519 207 L 519 210 L 520 211 L 520 213 L 521 214 L 521 215 L 522 216 L 522 219 L 523 220 L 523 222 L 524 223 L 524 225 L 525 226 L 525 227 L 526 228 L 526 230 L 527 231 L 527 233 L 528 234 L 528 235 L 529 236 L 529 237 L 530 238 L 530 239 L 531 240 L 531 241 L 532 242 L 532 243 L 533 244 L 533 245 L 535 247 L 535 248 L 537 250 L 537 251 L 541 255 L 541 256 L 545 260 L 546 260 L 549 263 L 550 263 L 552 265 L 553 265 L 554 266 L 555 266 L 556 267 L 557 267 L 558 268 L 559 268 L 560 269 L 562 269 L 563 270 L 567 270 L 568 271 L 582 271 L 583 270 L 586 270 L 587 269 L 590 269 L 591 268 L 592 268 L 593 267 L 594 267 L 595 266 L 596 266 L 598 264 L 599 264 L 602 261 L 601 260 L 601 259 L 600 259 L 598 261 L 597 261 L 595 263 L 594 263 L 593 264 L 591 264 L 590 265 L 579 265 L 578 264 L 576 264 L 575 263 L 574 263 L 572 261 L 571 261 L 564 254 L 564 253 L 561 250 L 561 249 L 560 248 L 560 247 L 559 246 L 559 245 L 558 244 L 558 243 L 557 242 L 557 241 L 556 240 L 556 239 L 555 238 L 555 236 L 554 235 L 554 234 L 553 233 L 553 231 L 552 230 L 552 228 L 551 227 L 551 226 L 550 225 L 550 223 L 549 222 L 549 219 L 548 218 L 548 216 L 547 215 L 547 213 L 546 212 L 546 210 L 545 209 L 545 207 L 544 206 L 544 205 L 543 204 L 543 201 L 542 200 L 542 199 L 541 198 L 541 196 L 540 195 L 540 193 L 539 192 L 539 191 L 538 190 L 538 188 L 537 187 L 537 186 L 536 185 L 536 184 L 534 182 L 534 181 L 533 180 L 533 179 L 531 177 L 531 176 L 527 172 L 527 171 L 523 167 L 522 167 L 518 163 L 517 163 L 515 161 L 514 161 L 512 159 L 511 159 L 510 158 L 509 158 L 508 157 L 506 157 L 505 156 L 503 156 L 502 155 L 500 155 L 499 154 L 500 153 L 502 153 L 503 152 L 506 152 L 507 151 L 510 151 L 511 150 L 513 150 L 514 149 L 516 149 L 517 148 L 518 148 L 519 147 L 520 147 L 521 146 L 522 146 L 523 145 L 524 145 L 525 144 L 526 144 L 527 143 L 528 143 L 530 141 L 531 141 L 533 139 L 534 139 L 547 126 L 547 125 L 550 122 L 550 121 L 551 120 L 551 119 L 553 117 L 553 116 L 554 115 L 554 114 L 555 113 L 555 112 L 556 111 L 556 109 L 557 108 L 557 107 L 558 106 L 558 104 L 559 103 L 559 101 L 560 100 L 560 97 L 561 96 L 561 92 L 562 91 L 562 83 L 563 82 L 563 79 L 562 78 L 562 69 L 561 68 L 561 64 L 560 63 L 560 60 L 559 59 L 559 57 L 558 56 L 558 54 L 557 53 L 557 52 L 556 51 L 556 50 L 555 49 L 555 48 L 554 47 L 554 46 L 553 45 L 553 44 L 551 42 L 551 41 L 549 39 L 549 38 L 544 33 L 544 32 L 540 28 L 539 28 L 534 23 L 533 23 L 531 21 L 530 21 L 529 20 L 528 20 L 527 19 L 526 19 L 525 18 L 524 18 L 523 17 L 522 17 L 521 16 L 520 16 L 519 15 L 517 15 L 516 14 L 513 14 L 512 13 L 509 13 L 508 12 L 504 12 L 503 11 Z M 458 16 L 459 15 L 491 15 L 492 16 L 496 16 L 497 17 L 500 17 L 501 18 L 502 18 L 503 19 L 504 19 L 505 20 L 506 20 L 507 21 L 508 21 L 510 23 L 511 23 L 514 26 L 515 26 L 519 30 L 519 31 L 522 34 L 522 35 L 525 38 L 525 39 L 527 41 L 527 42 L 528 43 L 528 44 L 529 45 L 529 46 L 530 47 L 530 48 L 531 49 L 531 51 L 532 52 L 532 53 L 533 54 L 533 57 L 534 58 L 534 61 L 535 62 L 535 67 L 536 68 L 536 93 L 535 94 L 535 100 L 534 101 L 534 105 L 533 106 L 533 109 L 532 110 L 532 112 L 531 113 L 531 114 L 530 115 L 530 117 L 529 118 L 529 119 L 528 120 L 528 121 L 527 122 L 527 123 L 526 124 L 526 125 L 524 127 L 524 128 L 522 130 L 522 131 L 512 141 L 511 141 L 509 143 L 508 143 L 506 145 L 505 145 L 504 146 L 503 146 L 502 147 L 500 147 L 499 148 L 498 148 L 497 149 L 494 149 L 493 150 L 459 150 L 458 149 Z M 8 11 L 10 11 L 11 12 L 13 12 L 14 13 L 15 13 L 19 17 L 19 18 L 20 19 L 20 261 L 19 262 L 19 263 L 15 267 L 14 267 L 13 268 L 11 268 L 10 269 L 8 269 L 8 270 L 56 270 L 56 269 L 54 269 L 53 268 L 51 268 L 49 266 L 48 266 L 46 264 L 46 263 L 45 262 L 45 260 L 44 259 L 44 154 L 45 153 L 74 153 L 75 152 L 80 152 L 81 151 L 85 151 L 86 150 L 89 150 L 90 149 L 92 149 L 93 148 L 95 148 L 96 147 L 97 147 L 98 146 L 99 146 L 100 145 L 101 145 L 102 144 L 103 144 L 105 142 L 106 142 L 107 141 L 108 141 L 112 137 L 113 137 L 121 129 L 121 128 L 125 124 L 125 123 L 127 121 L 127 120 L 129 118 L 129 117 L 130 116 L 130 115 L 131 114 L 131 113 L 132 112 L 132 111 L 133 110 L 133 108 L 134 107 L 134 106 L 135 105 L 135 103 L 136 102 L 136 99 L 137 98 L 137 94 L 138 93 L 138 84 L 139 83 L 139 75 L 138 74 L 138 67 L 137 66 L 137 62 L 136 61 L 136 58 L 135 57 L 135 55 L 134 54 L 134 53 L 133 52 L 133 51 L 132 50 L 132 48 L 131 47 L 131 46 L 130 45 L 130 44 L 128 42 L 128 41 L 126 39 L 126 38 L 123 35 L 123 34 L 113 24 L 112 24 L 110 22 L 109 22 L 107 20 L 106 20 L 105 19 L 104 19 L 103 18 L 102 18 L 101 17 L 100 17 L 99 16 L 97 16 L 96 15 L 95 15 L 94 14 L 92 14 L 91 13 L 88 13 L 87 12 L 82 12 L 81 11 Z M 44 16 L 45 15 L 73 15 L 74 16 L 78 16 L 79 17 L 81 17 L 82 18 L 83 18 L 84 19 L 85 19 L 86 20 L 87 20 L 88 21 L 89 21 L 92 24 L 93 24 L 98 29 L 98 30 L 101 33 L 101 34 L 104 37 L 104 38 L 105 39 L 105 40 L 106 41 L 106 42 L 107 43 L 107 44 L 108 45 L 108 46 L 109 47 L 109 49 L 110 50 L 110 51 L 111 52 L 111 55 L 112 56 L 112 60 L 113 61 L 113 67 L 114 68 L 114 91 L 113 92 L 113 98 L 112 99 L 112 103 L 111 104 L 111 107 L 110 108 L 110 110 L 109 111 L 109 113 L 108 114 L 108 115 L 107 116 L 107 117 L 106 118 L 106 120 L 105 121 L 105 122 L 103 124 L 103 125 L 102 126 L 102 127 L 100 129 L 100 130 L 88 142 L 87 142 L 85 144 L 84 144 L 83 145 L 82 145 L 81 146 L 80 146 L 79 147 L 77 147 L 76 148 L 47 148 L 46 149 L 44 147 Z M 1528 10 L 1527 11 L 1504 11 L 1506 11 L 1507 12 L 1509 12 L 1510 13 L 1511 13 L 1516 18 L 1516 19 L 1517 20 L 1517 260 L 1516 261 L 1516 262 L 1515 263 L 1515 264 L 1513 266 L 1512 266 L 1510 268 L 1508 268 L 1507 269 L 1504 269 L 1504 270 L 1553 270 L 1553 269 L 1552 269 L 1551 268 L 1549 268 L 1548 267 L 1547 267 L 1542 262 L 1542 260 L 1541 259 L 1541 21 L 1542 20 L 1542 19 L 1543 18 L 1543 17 L 1546 14 L 1547 14 L 1548 13 L 1549 13 L 1550 12 L 1552 12 L 1553 11 L 1554 11 L 1535 11 L 1534 10 Z M 1400 10 L 1399 11 L 1350 11 L 1351 11 L 1352 12 L 1355 12 L 1356 13 L 1357 13 L 1362 18 L 1362 19 L 1363 20 L 1363 261 L 1362 262 L 1362 263 L 1359 266 L 1358 266 L 1357 267 L 1356 267 L 1355 268 L 1353 268 L 1352 269 L 1350 269 L 1350 270 L 1462 270 L 1463 269 L 1463 237 L 1462 236 L 1461 237 L 1461 241 L 1460 242 L 1460 245 L 1459 246 L 1459 247 L 1458 248 L 1458 250 L 1456 252 L 1456 253 L 1453 256 L 1453 257 L 1450 260 L 1449 260 L 1447 262 L 1446 262 L 1445 263 L 1444 263 L 1443 264 L 1442 264 L 1441 265 L 1438 265 L 1437 266 L 1389 266 L 1387 264 L 1387 253 L 1388 252 L 1388 250 L 1387 249 L 1387 23 L 1388 22 L 1388 20 L 1389 19 L 1389 18 L 1393 14 L 1394 14 L 1395 13 L 1396 13 L 1397 12 L 1399 12 L 1400 11 L 1401 11 Z M 809 10 L 808 11 L 808 14 L 807 15 L 807 18 L 806 19 L 806 21 L 805 22 L 805 25 L 804 26 L 804 28 L 803 29 L 803 32 L 802 33 L 802 36 L 801 37 L 801 40 L 800 41 L 800 44 L 799 45 L 799 47 L 798 48 L 798 51 L 797 52 L 797 54 L 796 55 L 796 58 L 795 59 L 795 62 L 794 63 L 794 66 L 793 67 L 793 69 L 792 70 L 792 73 L 791 74 L 791 76 L 790 77 L 790 80 L 789 81 L 789 83 L 788 84 L 788 86 L 787 87 L 787 90 L 786 91 L 786 94 L 785 95 L 785 98 L 784 99 L 784 101 L 783 102 L 783 105 L 782 106 L 782 109 L 781 110 L 781 112 L 780 113 L 780 116 L 779 117 L 779 119 L 778 120 L 778 123 L 777 124 L 777 126 L 776 127 L 776 130 L 775 131 L 775 133 L 774 134 L 774 137 L 773 138 L 773 141 L 772 142 L 772 144 L 771 145 L 771 148 L 770 149 L 770 151 L 769 152 L 769 155 L 768 156 L 768 159 L 767 160 L 767 163 L 766 164 L 766 166 L 765 167 L 765 169 L 764 170 L 764 173 L 763 174 L 763 176 L 762 177 L 762 180 L 761 181 L 761 184 L 760 185 L 760 187 L 759 188 L 759 191 L 758 192 L 758 195 L 757 196 L 757 198 L 756 199 L 756 202 L 755 203 L 755 206 L 754 207 L 754 210 L 753 211 L 753 213 L 752 214 L 752 217 L 751 218 L 751 220 L 750 221 L 750 224 L 749 225 L 749 228 L 748 229 L 748 231 L 747 232 L 747 235 L 746 236 L 746 239 L 745 240 L 745 242 L 744 243 L 744 246 L 743 247 L 743 250 L 742 251 L 742 254 L 741 255 L 741 256 L 740 257 L 740 259 L 738 261 L 738 262 L 736 264 L 735 264 L 733 266 L 732 266 L 731 267 L 730 267 L 729 268 L 728 268 L 727 269 L 725 269 L 725 270 L 758 270 L 758 269 L 756 269 L 755 268 L 753 268 L 752 267 L 751 267 L 747 263 L 747 262 L 746 261 L 746 254 L 747 253 L 747 250 L 748 249 L 748 246 L 749 245 L 749 243 L 750 242 L 750 239 L 751 238 L 751 235 L 752 234 L 752 232 L 753 231 L 753 228 L 754 227 L 754 224 L 755 223 L 755 221 L 756 220 L 756 217 L 757 216 L 757 213 L 758 212 L 758 209 L 759 208 L 759 206 L 760 205 L 760 204 L 761 203 L 837 203 L 839 205 L 839 208 L 840 209 L 840 212 L 841 213 L 841 215 L 842 216 L 842 219 L 843 220 L 843 222 L 844 223 L 844 226 L 845 227 L 845 230 L 846 231 L 846 234 L 847 235 L 847 237 L 848 238 L 848 241 L 849 242 L 849 245 L 850 246 L 850 248 L 851 249 L 851 252 L 852 253 L 852 256 L 853 257 L 853 260 L 852 261 L 852 263 L 848 267 L 847 267 L 846 268 L 844 268 L 843 269 L 841 269 L 841 270 L 892 270 L 893 269 L 891 269 L 890 268 L 888 268 L 887 267 L 886 267 L 884 265 L 883 265 L 880 262 L 880 261 L 878 259 L 878 257 L 877 256 L 877 254 L 876 253 L 876 251 L 875 250 L 875 247 L 874 246 L 874 243 L 873 242 L 873 240 L 872 239 L 872 236 L 871 235 L 871 232 L 870 231 L 870 229 L 869 228 L 869 226 L 868 225 L 868 222 L 867 221 L 867 218 L 866 217 L 866 215 L 865 214 L 865 212 L 864 211 L 864 208 L 863 207 L 863 205 L 862 204 L 862 201 L 861 200 L 861 198 L 860 197 L 860 194 L 859 193 L 859 191 L 858 190 L 858 187 L 857 186 L 857 183 L 856 182 L 856 179 L 855 178 L 855 175 L 854 174 L 854 172 L 853 171 L 853 168 L 852 167 L 852 165 L 851 164 L 851 161 L 850 160 L 850 158 L 849 157 L 849 154 L 848 153 L 848 150 L 847 149 L 847 147 L 846 146 L 846 143 L 845 142 L 845 139 L 844 138 L 844 136 L 843 135 L 843 132 L 842 131 L 842 128 L 841 127 L 841 125 L 840 124 L 840 121 L 839 120 L 839 117 L 838 116 L 838 114 L 837 113 L 837 110 L 836 109 L 836 107 L 835 106 L 835 103 L 834 102 L 834 100 L 833 99 L 833 96 L 832 95 L 832 93 L 831 92 L 831 89 L 830 88 L 830 85 L 829 84 L 829 82 L 828 81 L 828 79 L 827 78 L 827 75 L 826 74 L 826 71 L 825 70 L 825 68 L 824 67 L 824 65 L 823 64 L 823 61 L 822 60 L 822 57 L 821 56 L 821 53 L 820 52 L 820 50 L 819 49 L 819 46 L 818 45 L 818 43 L 817 42 L 817 39 L 816 38 L 816 35 L 815 34 L 815 31 L 814 30 L 814 28 L 813 27 L 813 24 L 812 23 L 812 20 L 811 19 L 811 17 L 810 16 L 810 13 L 809 12 Z M 798 64 L 799 63 L 800 63 L 801 64 L 801 67 L 802 68 L 802 71 L 803 72 L 803 75 L 804 76 L 804 79 L 805 80 L 805 82 L 806 83 L 806 86 L 807 87 L 807 89 L 808 90 L 808 93 L 809 94 L 809 97 L 810 98 L 810 100 L 811 101 L 811 104 L 812 105 L 812 108 L 813 109 L 813 112 L 814 113 L 814 115 L 815 116 L 815 119 L 816 120 L 816 122 L 817 123 L 817 126 L 818 127 L 818 130 L 819 131 L 819 133 L 820 134 L 820 137 L 821 138 L 821 141 L 822 142 L 822 145 L 823 146 L 823 148 L 824 149 L 824 152 L 825 153 L 825 156 L 826 157 L 826 160 L 827 161 L 827 164 L 828 165 L 828 167 L 829 168 L 829 171 L 830 172 L 830 175 L 831 176 L 831 179 L 832 180 L 832 182 L 833 183 L 833 186 L 834 187 L 834 190 L 835 191 L 835 193 L 836 194 L 836 197 L 837 198 L 836 199 L 762 199 L 761 198 L 762 197 L 762 194 L 763 193 L 763 191 L 764 190 L 764 186 L 765 185 L 765 183 L 766 182 L 766 180 L 767 179 L 767 176 L 768 175 L 768 173 L 769 172 L 769 169 L 770 168 L 770 166 L 771 165 L 771 163 L 772 162 L 772 159 L 773 158 L 773 155 L 774 154 L 774 152 L 775 151 L 775 148 L 776 147 L 776 145 L 777 144 L 777 141 L 778 140 L 778 137 L 779 136 L 779 134 L 780 133 L 780 130 L 781 129 L 781 126 L 782 125 L 782 123 L 783 122 L 783 119 L 784 118 L 784 115 L 785 114 L 785 112 L 786 111 L 786 109 L 787 108 L 787 105 L 788 104 L 788 102 L 789 101 L 789 98 L 790 97 L 790 94 L 791 93 L 791 91 L 792 90 L 792 87 L 793 86 L 793 83 L 794 82 L 794 80 L 795 79 L 795 76 L 796 75 L 796 72 L 797 71 L 797 68 L 798 67 Z M 1891 8 L 1890 9 L 1886 9 L 1885 10 L 1882 10 L 1881 11 L 1878 11 L 1877 12 L 1876 12 L 1875 13 L 1874 13 L 1873 14 L 1872 14 L 1871 15 L 1870 15 L 1869 16 L 1868 16 L 1865 19 L 1864 19 L 1857 26 L 1857 27 L 1854 30 L 1854 31 L 1853 32 L 1853 33 L 1851 35 L 1851 36 L 1850 37 L 1850 38 L 1849 39 L 1849 41 L 1848 42 L 1848 45 L 1847 46 L 1847 49 L 1846 50 L 1846 59 L 1845 60 L 1845 65 L 1846 66 L 1846 72 L 1847 73 L 1847 78 L 1848 79 L 1848 81 L 1849 82 L 1849 84 L 1850 85 L 1850 87 L 1851 88 L 1851 89 L 1852 90 L 1852 91 L 1853 92 L 1853 93 L 1854 94 L 1854 95 L 1855 96 L 1855 97 L 1856 98 L 1856 99 L 1857 100 L 1857 101 L 1859 103 L 1859 104 L 1861 106 L 1861 107 L 1863 109 L 1863 110 L 1866 113 L 1866 114 L 1870 118 L 1870 119 L 1875 124 L 1875 125 L 1879 129 L 1879 130 L 1885 136 L 1885 137 L 1890 142 L 1890 143 L 1895 148 L 1895 149 L 1899 153 L 1899 154 L 1902 157 L 1902 158 L 1905 161 L 1905 162 L 1908 165 L 1908 166 L 1910 168 L 1910 169 L 1911 170 L 1911 171 L 1913 173 L 1913 174 L 1914 175 L 1914 176 L 1915 177 L 1915 178 L 1916 179 L 1916 180 L 1917 181 L 1917 182 L 1918 183 L 1918 184 L 1919 185 L 1919 186 L 1920 187 L 1920 188 L 1921 189 L 1921 191 L 1922 192 L 1922 194 L 1923 195 L 1923 198 L 1924 199 L 1924 202 L 1925 203 L 1925 208 L 1926 209 L 1926 229 L 1925 230 L 1925 236 L 1924 237 L 1924 239 L 1923 240 L 1923 242 L 1922 243 L 1922 245 L 1921 246 L 1921 247 L 1920 248 L 1920 249 L 1919 250 L 1919 251 L 1918 252 L 1918 253 L 1916 255 L 1916 256 L 1909 263 L 1908 263 L 1906 265 L 1905 265 L 1904 266 L 1903 266 L 1902 267 L 1900 267 L 1899 268 L 1896 268 L 1895 269 L 1889 269 L 1888 268 L 1884 268 L 1883 267 L 1881 267 L 1880 266 L 1878 266 L 1877 265 L 1876 265 L 1874 263 L 1873 263 L 1869 259 L 1868 259 L 1866 257 L 1866 256 L 1861 251 L 1861 250 L 1859 248 L 1859 247 L 1858 246 L 1858 245 L 1857 244 L 1857 243 L 1855 241 L 1855 239 L 1854 238 L 1854 237 L 1853 236 L 1853 235 L 1852 234 L 1852 232 L 1851 231 L 1851 229 L 1850 228 L 1850 226 L 1849 225 L 1849 222 L 1848 221 L 1848 218 L 1847 217 L 1847 212 L 1846 211 L 1846 209 L 1845 209 L 1845 254 L 1846 254 L 1849 257 L 1850 257 L 1853 260 L 1854 260 L 1855 261 L 1856 261 L 1858 263 L 1859 263 L 1860 264 L 1861 264 L 1862 265 L 1863 265 L 1864 266 L 1865 266 L 1866 267 L 1868 267 L 1869 268 L 1870 268 L 1871 269 L 1873 269 L 1874 270 L 1876 270 L 1877 271 L 1881 271 L 1882 272 L 1887 272 L 1888 273 L 1898 273 L 1899 272 L 1904 272 L 1905 271 L 1908 271 L 1909 270 L 1911 270 L 1912 269 L 1913 269 L 1914 268 L 1915 268 L 1916 267 L 1917 267 L 1918 266 L 1919 266 L 1920 265 L 1921 265 L 1923 263 L 1924 263 L 1934 253 L 1934 252 L 1936 250 L 1936 249 L 1937 248 L 1937 247 L 1939 245 L 1939 244 L 1940 243 L 1940 242 L 1941 241 L 1941 240 L 1942 239 L 1942 238 L 1943 237 L 1943 235 L 1944 234 L 1944 232 L 1945 231 L 1945 228 L 1946 227 L 1946 223 L 1947 222 L 1947 215 L 1948 214 L 1948 198 L 1947 197 L 1947 192 L 1946 191 L 1946 187 L 1945 186 L 1945 183 L 1944 182 L 1944 180 L 1943 179 L 1943 177 L 1942 176 L 1942 174 L 1941 173 L 1941 171 L 1940 170 L 1940 169 L 1939 168 L 1939 167 L 1938 166 L 1938 165 L 1937 164 L 1937 163 L 1936 162 L 1936 161 L 1934 159 L 1934 158 L 1933 157 L 1933 156 L 1932 155 L 1932 154 L 1930 152 L 1930 151 L 1927 148 L 1927 147 L 1925 145 L 1925 144 L 1922 141 L 1922 140 L 1919 137 L 1919 136 L 1914 131 L 1914 130 L 1909 125 L 1909 124 L 1904 119 L 1904 118 L 1895 109 L 1895 108 L 1891 104 L 1891 103 L 1885 97 L 1885 96 L 1882 93 L 1882 92 L 1879 89 L 1879 88 L 1877 86 L 1877 85 L 1876 84 L 1876 83 L 1874 81 L 1874 80 L 1873 79 L 1873 78 L 1872 77 L 1872 76 L 1871 75 L 1871 74 L 1870 73 L 1870 71 L 1869 70 L 1869 68 L 1868 67 L 1868 65 L 1867 64 L 1867 61 L 1866 60 L 1866 53 L 1865 52 L 1865 47 L 1866 46 L 1866 40 L 1867 39 L 1867 36 L 1868 35 L 1868 34 L 1869 33 L 1869 31 L 1870 30 L 1870 29 L 1871 28 L 1871 27 L 1873 25 L 1873 24 L 1879 18 L 1880 18 L 1882 16 L 1883 16 L 1884 15 L 1885 15 L 1886 14 L 1888 14 L 1889 13 L 1892 13 L 1893 12 L 1899 12 L 1900 13 L 1905 13 L 1906 14 L 1908 14 L 1909 15 L 1910 15 L 1911 16 L 1912 16 L 1913 17 L 1914 17 L 1916 19 L 1917 19 L 1925 27 L 1925 28 L 1927 30 L 1927 31 L 1929 33 L 1929 34 L 1931 36 L 1931 37 L 1932 38 L 1932 39 L 1933 40 L 1933 41 L 1934 42 L 1934 44 L 1935 45 L 1935 47 L 1936 48 L 1936 50 L 1937 51 L 1937 53 L 1938 52 L 1938 25 L 1937 24 L 1937 23 L 1936 22 L 1935 22 L 1932 19 L 1931 19 L 1930 18 L 1929 18 L 1927 16 L 1926 16 L 1925 15 L 1924 15 L 1923 14 L 1921 14 L 1920 13 L 1919 13 L 1918 12 L 1916 12 L 1915 11 L 1913 11 L 1912 10 L 1908 10 L 1907 9 L 1903 9 L 1902 8 Z M 1698 8 L 1697 9 L 1688 9 L 1687 10 L 1682 10 L 1681 11 L 1677 11 L 1676 12 L 1673 12 L 1672 13 L 1670 13 L 1669 14 L 1667 14 L 1666 15 L 1664 15 L 1663 16 L 1661 16 L 1660 17 L 1659 17 L 1658 18 L 1657 18 L 1656 19 L 1655 19 L 1654 20 L 1653 20 L 1652 21 L 1651 21 L 1650 22 L 1649 22 L 1647 24 L 1646 24 L 1644 26 L 1643 26 L 1641 28 L 1640 28 L 1636 32 L 1635 32 L 1621 46 L 1621 47 L 1616 52 L 1616 53 L 1614 55 L 1614 56 L 1612 58 L 1612 59 L 1610 61 L 1610 62 L 1609 63 L 1609 64 L 1607 66 L 1607 67 L 1606 68 L 1606 69 L 1605 70 L 1605 71 L 1604 72 L 1604 73 L 1603 74 L 1603 75 L 1601 77 L 1601 79 L 1600 80 L 1600 81 L 1599 82 L 1599 83 L 1598 84 L 1598 86 L 1597 87 L 1597 89 L 1596 90 L 1596 91 L 1595 92 L 1595 94 L 1594 95 L 1594 98 L 1593 99 L 1593 101 L 1592 102 L 1592 105 L 1591 106 L 1591 110 L 1590 111 L 1590 115 L 1589 116 L 1589 122 L 1588 123 L 1588 137 L 1587 138 L 1587 143 L 1588 144 L 1588 158 L 1589 159 L 1589 165 L 1590 166 L 1590 171 L 1591 172 L 1591 175 L 1592 176 L 1592 179 L 1593 180 L 1593 183 L 1594 184 L 1594 186 L 1595 187 L 1595 188 L 1596 189 L 1596 191 L 1597 192 L 1597 194 L 1598 195 L 1598 196 L 1599 197 L 1599 199 L 1600 200 L 1600 201 L 1601 202 L 1601 204 L 1602 205 L 1602 206 L 1603 207 L 1603 208 L 1604 209 L 1604 210 L 1605 211 L 1605 212 L 1607 214 L 1607 215 L 1608 216 L 1608 217 L 1609 218 L 1609 219 L 1611 221 L 1611 222 L 1613 224 L 1613 225 L 1615 227 L 1615 228 L 1618 231 L 1618 232 L 1622 236 L 1622 237 L 1633 248 L 1634 248 L 1639 253 L 1640 253 L 1642 255 L 1643 255 L 1645 257 L 1646 257 L 1648 259 L 1649 259 L 1650 260 L 1651 260 L 1653 262 L 1654 262 L 1655 263 L 1657 263 L 1658 264 L 1659 264 L 1660 265 L 1661 265 L 1662 266 L 1664 266 L 1665 267 L 1667 267 L 1668 268 L 1670 268 L 1671 269 L 1674 269 L 1675 270 L 1678 270 L 1679 271 L 1683 271 L 1684 272 L 1692 272 L 1693 273 L 1713 273 L 1714 272 L 1720 272 L 1721 271 L 1725 271 L 1726 270 L 1730 270 L 1731 269 L 1734 269 L 1735 268 L 1737 268 L 1738 267 L 1740 267 L 1741 266 L 1742 266 L 1743 265 L 1745 265 L 1746 264 L 1747 264 L 1748 263 L 1749 263 L 1750 262 L 1752 262 L 1753 261 L 1754 261 L 1756 259 L 1757 259 L 1758 258 L 1759 258 L 1761 256 L 1762 256 L 1764 254 L 1765 254 L 1769 250 L 1770 250 L 1786 234 L 1786 233 L 1790 229 L 1790 228 L 1792 226 L 1792 225 L 1794 223 L 1794 222 L 1796 220 L 1796 219 L 1798 217 L 1798 216 L 1799 215 L 1799 214 L 1800 213 L 1800 212 L 1801 211 L 1801 210 L 1802 209 L 1802 208 L 1803 207 L 1803 206 L 1804 205 L 1804 204 L 1805 203 L 1805 202 L 1806 201 L 1806 199 L 1807 198 L 1807 196 L 1808 195 L 1808 194 L 1809 193 L 1809 191 L 1810 190 L 1810 188 L 1811 187 L 1811 185 L 1812 184 L 1812 181 L 1813 180 L 1813 178 L 1814 177 L 1814 173 L 1815 172 L 1815 168 L 1816 167 L 1816 161 L 1817 160 L 1817 150 L 1818 149 L 1818 129 L 1817 128 L 1817 119 L 1816 118 L 1816 113 L 1815 112 L 1815 108 L 1814 107 L 1814 103 L 1813 102 L 1813 99 L 1812 98 L 1812 96 L 1811 95 L 1811 92 L 1810 91 L 1810 89 L 1809 88 L 1809 87 L 1808 86 L 1808 84 L 1807 83 L 1807 82 L 1806 81 L 1806 79 L 1805 78 L 1805 77 L 1804 76 L 1804 75 L 1803 74 L 1803 73 L 1802 72 L 1802 71 L 1801 70 L 1801 69 L 1800 68 L 1800 67 L 1799 66 L 1799 65 L 1797 63 L 1797 62 L 1796 61 L 1796 60 L 1794 58 L 1794 57 L 1792 55 L 1792 54 L 1789 51 L 1789 50 L 1785 46 L 1785 45 L 1772 32 L 1771 32 L 1767 28 L 1766 28 L 1764 26 L 1763 26 L 1761 24 L 1760 24 L 1758 22 L 1757 22 L 1756 21 L 1755 21 L 1754 20 L 1753 20 L 1752 19 L 1751 19 L 1750 18 L 1749 18 L 1748 17 L 1746 17 L 1745 16 L 1744 16 L 1743 15 L 1742 15 L 1741 14 L 1739 14 L 1738 13 L 1735 13 L 1734 12 L 1731 12 L 1730 11 L 1726 11 L 1725 10 L 1721 10 L 1720 9 L 1711 9 L 1710 8 Z M 1702 13 L 1703 12 L 1704 12 L 1705 13 L 1706 12 L 1707 13 L 1715 13 L 1716 14 L 1720 14 L 1721 15 L 1723 15 L 1724 16 L 1726 16 L 1727 17 L 1729 17 L 1730 18 L 1731 18 L 1732 19 L 1734 19 L 1735 20 L 1736 20 L 1737 21 L 1738 21 L 1740 23 L 1741 23 L 1744 26 L 1745 26 L 1747 28 L 1748 28 L 1761 41 L 1761 42 L 1765 46 L 1765 47 L 1767 49 L 1767 50 L 1769 52 L 1769 53 L 1770 54 L 1770 55 L 1772 57 L 1772 58 L 1773 59 L 1773 60 L 1774 61 L 1774 62 L 1775 63 L 1775 64 L 1776 65 L 1776 66 L 1777 67 L 1777 68 L 1778 69 L 1778 70 L 1779 71 L 1779 72 L 1780 73 L 1780 75 L 1781 76 L 1781 78 L 1782 79 L 1782 81 L 1783 82 L 1783 83 L 1784 84 L 1784 87 L 1785 88 L 1785 90 L 1786 91 L 1786 94 L 1787 95 L 1787 99 L 1788 100 L 1788 104 L 1789 105 L 1789 110 L 1790 111 L 1790 118 L 1791 119 L 1791 159 L 1790 160 L 1790 167 L 1789 168 L 1789 173 L 1788 174 L 1788 179 L 1787 180 L 1787 183 L 1786 184 L 1786 187 L 1785 188 L 1785 191 L 1784 192 L 1784 194 L 1783 195 L 1783 197 L 1782 198 L 1782 200 L 1781 201 L 1781 203 L 1780 204 L 1780 206 L 1779 207 L 1779 208 L 1778 209 L 1778 210 L 1777 211 L 1777 213 L 1776 214 L 1776 215 L 1775 216 L 1775 217 L 1774 218 L 1774 219 L 1773 220 L 1773 221 L 1772 222 L 1772 223 L 1770 225 L 1770 226 L 1769 227 L 1769 228 L 1767 230 L 1767 231 L 1765 233 L 1765 234 L 1762 237 L 1762 238 L 1755 245 L 1755 246 L 1752 249 L 1751 249 L 1746 254 L 1745 254 L 1742 257 L 1741 257 L 1739 259 L 1738 259 L 1736 261 L 1735 261 L 1734 262 L 1733 262 L 1732 263 L 1730 263 L 1729 264 L 1728 264 L 1727 265 L 1725 265 L 1724 266 L 1721 266 L 1720 267 L 1717 267 L 1716 268 L 1711 268 L 1710 269 L 1696 269 L 1695 268 L 1689 268 L 1688 267 L 1685 267 L 1684 266 L 1682 266 L 1681 265 L 1679 265 L 1678 264 L 1676 264 L 1675 263 L 1674 263 L 1673 262 L 1672 262 L 1671 261 L 1670 261 L 1669 260 L 1668 260 L 1666 258 L 1665 258 L 1663 256 L 1662 256 L 1658 252 L 1657 252 L 1647 242 L 1647 241 L 1644 238 L 1644 237 L 1642 235 L 1642 234 L 1640 232 L 1640 231 L 1637 228 L 1637 227 L 1636 226 L 1636 225 L 1635 224 L 1635 223 L 1633 221 L 1633 220 L 1632 219 L 1632 218 L 1631 217 L 1631 216 L 1630 215 L 1630 214 L 1629 213 L 1629 211 L 1628 210 L 1628 209 L 1627 208 L 1627 207 L 1626 206 L 1626 204 L 1625 203 L 1625 201 L 1624 200 L 1624 198 L 1623 197 L 1623 196 L 1622 195 L 1622 193 L 1621 192 L 1621 189 L 1620 188 L 1620 185 L 1619 184 L 1619 181 L 1618 180 L 1618 177 L 1617 176 L 1617 170 L 1616 169 L 1616 164 L 1615 163 L 1615 152 L 1614 151 L 1614 127 L 1615 126 L 1615 117 L 1616 116 L 1616 110 L 1617 109 L 1617 105 L 1618 104 L 1618 100 L 1619 99 L 1619 96 L 1620 95 L 1620 92 L 1621 91 L 1621 89 L 1622 88 L 1622 86 L 1623 85 L 1623 83 L 1624 82 L 1624 80 L 1625 79 L 1625 78 L 1626 77 L 1626 75 L 1627 74 L 1627 72 L 1628 71 L 1628 70 L 1629 69 L 1629 68 L 1630 67 L 1630 66 L 1631 65 L 1631 64 L 1632 63 L 1632 62 L 1633 61 L 1633 60 L 1634 59 L 1634 58 L 1636 56 L 1636 55 L 1637 54 L 1637 53 L 1639 51 L 1639 50 L 1641 48 L 1641 47 L 1644 44 L 1644 43 L 1647 40 L 1647 39 L 1657 29 L 1658 29 L 1661 26 L 1662 26 L 1665 23 L 1666 23 L 1667 22 L 1668 22 L 1669 21 L 1670 21 L 1671 20 L 1672 20 L 1673 19 L 1674 19 L 1675 18 L 1677 18 L 1678 17 L 1679 17 L 1680 16 L 1683 16 L 1684 15 L 1686 15 L 1687 14 L 1691 14 L 1692 13 Z M 1703 112 L 1703 114 L 1702 115 L 1702 116 L 1701 117 L 1701 119 L 1700 120 L 1700 121 L 1698 123 L 1698 124 L 1697 125 L 1697 126 L 1692 131 L 1691 131 L 1690 132 L 1689 132 L 1688 133 L 1687 133 L 1686 134 L 1684 134 L 1683 135 L 1681 135 L 1680 136 L 1678 136 L 1679 137 L 1682 137 L 1683 138 L 1685 138 L 1686 139 L 1687 139 L 1688 140 L 1689 140 L 1690 141 L 1691 141 L 1692 142 L 1693 142 L 1697 146 L 1697 147 L 1699 149 L 1699 150 L 1700 151 L 1700 152 L 1701 153 L 1701 155 L 1702 156 L 1702 158 L 1703 159 L 1703 160 L 1704 160 L 1704 158 L 1705 157 L 1705 155 L 1706 154 L 1706 153 L 1707 152 L 1707 151 L 1708 150 L 1708 149 L 1710 147 L 1710 146 L 1714 142 L 1715 142 L 1716 141 L 1717 141 L 1718 140 L 1719 140 L 1720 139 L 1721 139 L 1722 138 L 1724 138 L 1725 137 L 1728 137 L 1728 136 L 1726 136 L 1725 135 L 1723 135 L 1722 134 L 1721 134 L 1720 133 L 1718 133 L 1716 131 L 1715 131 L 1713 129 L 1712 129 L 1711 128 L 1711 127 L 1709 125 L 1709 124 L 1707 122 L 1707 121 L 1706 120 L 1706 118 L 1705 117 L 1705 116 L 1704 115 L 1704 113 Z M 1194 8 L 1193 9 L 1185 9 L 1184 10 L 1178 10 L 1177 11 L 1173 11 L 1172 12 L 1168 12 L 1167 13 L 1165 13 L 1164 14 L 1162 14 L 1161 15 L 1159 15 L 1158 16 L 1157 16 L 1156 17 L 1154 17 L 1153 18 L 1152 18 L 1151 19 L 1150 19 L 1149 20 L 1148 20 L 1147 21 L 1146 21 L 1145 22 L 1144 22 L 1143 23 L 1142 23 L 1140 25 L 1139 25 L 1137 27 L 1136 27 L 1134 29 L 1133 29 L 1128 34 L 1127 34 L 1116 45 L 1116 46 L 1112 50 L 1112 51 L 1109 54 L 1109 55 L 1106 58 L 1106 59 L 1105 60 L 1105 61 L 1103 63 L 1103 64 L 1101 66 L 1101 67 L 1100 68 L 1100 69 L 1099 70 L 1099 71 L 1098 72 L 1098 73 L 1097 74 L 1097 75 L 1096 76 L 1096 77 L 1095 78 L 1095 79 L 1094 80 L 1094 81 L 1093 82 L 1093 84 L 1092 85 L 1092 86 L 1091 87 L 1091 89 L 1090 90 L 1090 92 L 1089 93 L 1089 95 L 1088 96 L 1088 98 L 1087 99 L 1087 101 L 1086 102 L 1086 105 L 1085 106 L 1085 110 L 1084 111 L 1084 116 L 1083 117 L 1083 123 L 1082 124 L 1082 157 L 1083 158 L 1083 165 L 1084 166 L 1084 171 L 1085 172 L 1085 176 L 1086 177 L 1086 180 L 1087 181 L 1087 183 L 1088 184 L 1088 187 L 1089 188 L 1089 190 L 1090 191 L 1090 193 L 1091 194 L 1091 195 L 1092 196 L 1092 198 L 1093 199 L 1093 200 L 1094 201 L 1094 202 L 1095 203 L 1095 205 L 1096 206 L 1096 207 L 1097 208 L 1097 209 L 1098 210 L 1098 211 L 1099 212 L 1099 213 L 1101 215 L 1101 216 L 1103 218 L 1103 219 L 1104 220 L 1104 221 L 1106 223 L 1106 224 L 1108 226 L 1108 227 L 1112 231 L 1112 232 L 1117 237 L 1117 238 L 1125 246 L 1126 246 L 1132 252 L 1133 252 L 1135 254 L 1136 254 L 1138 256 L 1139 256 L 1141 258 L 1142 258 L 1143 259 L 1144 259 L 1145 260 L 1146 260 L 1147 261 L 1148 261 L 1149 262 L 1150 262 L 1151 263 L 1152 263 L 1153 264 L 1154 264 L 1155 265 L 1157 265 L 1158 266 L 1160 266 L 1161 267 L 1162 267 L 1163 268 L 1165 268 L 1166 269 L 1169 269 L 1170 270 L 1174 270 L 1175 271 L 1179 271 L 1180 272 L 1188 272 L 1189 273 L 1210 273 L 1211 272 L 1216 272 L 1217 271 L 1222 271 L 1223 270 L 1227 270 L 1228 269 L 1231 269 L 1232 268 L 1234 268 L 1235 267 L 1237 267 L 1238 266 L 1239 266 L 1240 265 L 1242 265 L 1243 264 L 1244 264 L 1245 263 L 1246 263 L 1247 262 L 1248 262 L 1249 261 L 1250 261 L 1251 260 L 1252 260 L 1253 259 L 1254 259 L 1255 258 L 1256 258 L 1258 256 L 1259 256 L 1262 253 L 1263 253 L 1265 251 L 1266 251 L 1273 244 L 1274 244 L 1276 242 L 1276 241 L 1283 234 L 1283 233 L 1287 229 L 1287 228 L 1290 225 L 1290 224 L 1291 223 L 1291 222 L 1293 220 L 1293 219 L 1295 217 L 1295 216 L 1296 215 L 1296 214 L 1298 212 L 1298 211 L 1299 210 L 1299 209 L 1300 208 L 1300 207 L 1301 206 L 1301 205 L 1302 204 L 1302 202 L 1303 201 L 1303 200 L 1304 199 L 1304 198 L 1305 197 L 1305 195 L 1306 194 L 1306 193 L 1307 192 L 1307 190 L 1308 189 L 1308 186 L 1309 185 L 1309 183 L 1310 182 L 1310 179 L 1311 178 L 1311 175 L 1312 174 L 1312 170 L 1313 169 L 1313 164 L 1314 163 L 1314 157 L 1315 156 L 1315 121 L 1314 120 L 1314 115 L 1313 114 L 1313 109 L 1312 108 L 1312 105 L 1311 104 L 1311 101 L 1310 100 L 1310 97 L 1309 96 L 1309 94 L 1308 93 L 1308 91 L 1307 90 L 1307 88 L 1306 87 L 1306 85 L 1305 84 L 1305 83 L 1304 82 L 1304 81 L 1303 80 L 1303 78 L 1302 77 L 1302 76 L 1301 75 L 1301 74 L 1300 73 L 1300 72 L 1299 71 L 1299 70 L 1298 69 L 1298 68 L 1296 66 L 1296 65 L 1295 64 L 1295 63 L 1293 61 L 1293 60 L 1292 59 L 1292 58 L 1290 56 L 1290 55 L 1287 52 L 1287 51 L 1283 47 L 1283 46 L 1270 33 L 1269 33 L 1265 29 L 1264 29 L 1262 27 L 1261 27 L 1258 24 L 1257 24 L 1256 23 L 1255 23 L 1253 21 L 1252 21 L 1251 20 L 1250 20 L 1249 19 L 1248 19 L 1247 18 L 1245 18 L 1244 17 L 1243 17 L 1242 16 L 1240 16 L 1239 15 L 1238 15 L 1237 14 L 1235 14 L 1234 13 L 1231 13 L 1230 12 L 1227 12 L 1226 11 L 1222 11 L 1221 10 L 1216 10 L 1215 9 L 1206 9 L 1205 8 Z M 1187 14 L 1188 13 L 1210 13 L 1211 14 L 1215 14 L 1216 15 L 1219 15 L 1220 16 L 1222 16 L 1223 17 L 1225 17 L 1226 18 L 1228 18 L 1229 19 L 1230 19 L 1231 20 L 1232 20 L 1233 21 L 1234 21 L 1235 22 L 1236 22 L 1237 23 L 1238 23 L 1240 25 L 1241 25 L 1244 28 L 1245 28 L 1258 41 L 1258 42 L 1262 46 L 1262 47 L 1264 49 L 1264 50 L 1266 52 L 1266 53 L 1267 54 L 1267 55 L 1269 57 L 1269 58 L 1270 59 L 1270 60 L 1271 61 L 1271 62 L 1272 63 L 1272 64 L 1273 65 L 1273 66 L 1274 67 L 1274 68 L 1275 69 L 1275 70 L 1276 71 L 1276 72 L 1277 73 L 1277 75 L 1278 76 L 1278 77 L 1279 78 L 1279 80 L 1280 81 L 1280 83 L 1281 84 L 1281 86 L 1282 87 L 1282 90 L 1283 91 L 1283 93 L 1284 94 L 1284 98 L 1285 99 L 1285 102 L 1286 103 L 1286 107 L 1287 108 L 1287 114 L 1288 115 L 1288 126 L 1289 127 L 1289 149 L 1288 150 L 1288 161 L 1287 162 L 1287 169 L 1286 170 L 1286 175 L 1285 176 L 1285 180 L 1284 181 L 1284 183 L 1283 184 L 1283 188 L 1282 189 L 1282 191 L 1281 192 L 1281 194 L 1280 195 L 1280 197 L 1279 198 L 1279 200 L 1278 201 L 1278 203 L 1277 204 L 1277 205 L 1276 206 L 1276 208 L 1275 209 L 1275 210 L 1274 211 L 1274 212 L 1273 213 L 1273 214 L 1272 215 L 1272 217 L 1271 218 L 1271 219 L 1270 220 L 1270 221 L 1268 223 L 1268 224 L 1267 225 L 1267 226 L 1266 227 L 1266 228 L 1263 231 L 1263 232 L 1261 234 L 1261 235 L 1259 237 L 1259 238 L 1251 246 L 1251 247 L 1249 249 L 1248 249 L 1242 255 L 1241 255 L 1239 257 L 1238 257 L 1236 259 L 1235 259 L 1233 261 L 1231 261 L 1230 262 L 1229 262 L 1228 263 L 1227 263 L 1226 264 L 1224 264 L 1223 265 L 1221 265 L 1220 266 L 1218 266 L 1217 267 L 1214 267 L 1213 268 L 1206 268 L 1205 269 L 1192 269 L 1191 268 L 1185 268 L 1184 267 L 1181 267 L 1180 266 L 1177 266 L 1176 265 L 1174 265 L 1173 264 L 1172 264 L 1171 263 L 1170 263 L 1169 262 L 1168 262 L 1167 261 L 1165 261 L 1163 259 L 1162 259 L 1161 258 L 1160 258 L 1157 255 L 1156 255 L 1153 252 L 1152 252 L 1141 241 L 1141 240 L 1137 236 L 1137 235 L 1135 233 L 1135 232 L 1132 229 L 1132 228 L 1130 226 L 1130 225 L 1129 224 L 1129 223 L 1128 222 L 1128 221 L 1127 220 L 1127 219 L 1126 218 L 1126 217 L 1125 216 L 1125 215 L 1124 214 L 1124 213 L 1123 212 L 1123 211 L 1122 210 L 1122 209 L 1121 208 L 1121 206 L 1120 205 L 1120 204 L 1119 203 L 1119 201 L 1118 200 L 1118 198 L 1117 197 L 1117 196 L 1116 195 L 1116 192 L 1115 191 L 1115 188 L 1114 187 L 1114 184 L 1113 183 L 1113 180 L 1112 179 L 1112 175 L 1111 174 L 1111 168 L 1110 167 L 1110 159 L 1109 158 L 1109 124 L 1110 123 L 1110 116 L 1111 115 L 1111 109 L 1112 108 L 1112 104 L 1113 103 L 1113 99 L 1114 98 L 1114 95 L 1115 94 L 1115 91 L 1116 90 L 1116 87 L 1117 86 L 1117 85 L 1118 84 L 1118 82 L 1119 81 L 1119 79 L 1120 78 L 1120 76 L 1121 75 L 1121 74 L 1122 73 L 1122 71 L 1123 70 L 1123 69 L 1124 68 L 1124 67 L 1125 66 L 1125 65 L 1126 64 L 1126 63 L 1127 62 L 1127 61 L 1128 60 L 1128 59 L 1130 57 L 1130 56 L 1131 55 L 1131 54 L 1133 52 L 1133 51 L 1135 49 L 1135 48 L 1137 46 L 1137 45 L 1143 39 L 1143 38 L 1150 31 L 1151 31 L 1155 27 L 1156 27 L 1158 25 L 1159 25 L 1161 23 L 1162 23 L 1163 22 L 1164 22 L 1165 21 L 1166 21 L 1168 19 L 1170 19 L 1171 18 L 1172 18 L 1173 17 L 1175 17 L 1176 16 L 1178 16 L 1179 15 L 1182 15 L 1183 14 Z M 1200 112 L 1200 114 L 1199 115 L 1199 116 L 1198 117 L 1198 119 L 1197 120 L 1197 121 L 1196 122 L 1196 123 L 1194 125 L 1194 126 L 1189 131 L 1188 131 L 1187 132 L 1186 132 L 1185 133 L 1184 133 L 1183 134 L 1182 134 L 1181 135 L 1178 135 L 1177 136 L 1175 136 L 1176 137 L 1179 137 L 1180 138 L 1181 138 L 1182 139 L 1184 139 L 1185 140 L 1186 140 L 1187 141 L 1188 141 L 1189 142 L 1190 142 L 1194 146 L 1194 147 L 1196 149 L 1196 150 L 1197 151 L 1197 152 L 1198 153 L 1198 155 L 1199 156 L 1199 158 L 1200 159 L 1200 160 L 1201 160 L 1201 158 L 1202 157 L 1202 155 L 1203 154 L 1203 153 L 1204 152 L 1204 151 L 1206 149 L 1206 148 L 1208 146 L 1208 145 L 1209 144 L 1210 144 L 1213 141 L 1214 141 L 1215 140 L 1216 140 L 1217 139 L 1218 139 L 1219 138 L 1221 138 L 1222 137 L 1225 137 L 1226 136 L 1223 136 L 1222 135 L 1221 135 L 1220 134 L 1218 134 L 1217 133 L 1216 133 L 1215 132 L 1214 132 L 1213 131 L 1212 131 L 1206 125 L 1206 124 L 1205 123 L 1205 122 L 1204 121 L 1204 120 L 1203 119 L 1203 118 L 1202 117 L 1202 116 L 1201 115 L 1201 113 Z M 275 8 L 274 9 L 264 9 L 263 10 L 257 10 L 256 11 L 252 11 L 251 12 L 248 12 L 247 13 L 245 13 L 244 14 L 241 14 L 240 15 L 239 15 L 238 16 L 236 16 L 235 17 L 234 17 L 233 18 L 232 18 L 231 19 L 230 19 L 229 20 L 228 20 L 227 21 L 226 21 L 225 22 L 224 22 L 222 24 L 221 24 L 220 25 L 219 25 L 216 28 L 215 28 L 211 32 L 210 32 L 196 46 L 196 47 L 192 51 L 192 52 L 189 55 L 189 56 L 187 58 L 187 59 L 186 60 L 186 61 L 184 63 L 184 64 L 183 65 L 183 66 L 181 68 L 181 69 L 180 70 L 180 71 L 179 72 L 179 73 L 178 74 L 178 75 L 177 76 L 177 77 L 176 78 L 176 79 L 175 80 L 175 82 L 174 83 L 174 84 L 173 85 L 173 87 L 172 88 L 172 90 L 171 91 L 171 93 L 170 94 L 170 96 L 169 97 L 169 99 L 168 100 L 168 103 L 167 104 L 167 107 L 166 108 L 166 111 L 165 112 L 165 118 L 164 119 L 164 128 L 163 129 L 163 150 L 164 151 L 164 161 L 165 162 L 165 167 L 166 168 L 166 173 L 167 174 L 167 177 L 168 178 L 168 181 L 169 182 L 169 184 L 170 185 L 170 188 L 171 189 L 171 191 L 172 192 L 172 194 L 173 195 L 173 196 L 174 197 L 174 199 L 175 200 L 175 202 L 176 203 L 176 204 L 177 205 L 177 206 L 178 207 L 178 208 L 179 209 L 179 210 L 180 211 L 180 212 L 182 214 L 182 215 L 183 216 L 183 217 L 184 218 L 184 219 L 186 221 L 186 222 L 188 224 L 188 225 L 190 227 L 190 228 L 194 232 L 194 233 L 197 236 L 197 237 L 209 249 L 210 249 L 214 253 L 215 253 L 217 255 L 218 255 L 220 257 L 221 257 L 223 259 L 224 259 L 225 260 L 226 260 L 227 261 L 228 261 L 229 262 L 230 262 L 231 263 L 232 263 L 233 264 L 234 264 L 235 265 L 237 265 L 238 266 L 239 266 L 240 267 L 242 267 L 243 268 L 245 268 L 246 269 L 249 269 L 250 270 L 254 270 L 255 271 L 259 271 L 260 272 L 266 272 L 267 273 L 288 273 L 289 272 L 295 272 L 296 271 L 300 271 L 301 270 L 305 270 L 306 269 L 308 269 L 309 268 L 312 268 L 313 267 L 315 267 L 316 266 L 317 266 L 318 265 L 320 265 L 321 264 L 322 264 L 323 263 L 324 263 L 325 262 L 326 262 L 327 261 L 328 261 L 329 260 L 330 260 L 332 258 L 333 258 L 335 256 L 336 256 L 338 254 L 339 254 L 342 251 L 343 251 L 359 235 L 359 234 L 362 231 L 362 230 L 365 227 L 365 226 L 367 224 L 367 223 L 369 221 L 369 220 L 371 218 L 371 217 L 372 216 L 372 215 L 373 214 L 373 213 L 374 212 L 374 211 L 375 210 L 375 209 L 376 208 L 376 207 L 377 206 L 377 205 L 378 204 L 378 203 L 379 202 L 379 201 L 380 200 L 380 198 L 381 197 L 381 196 L 382 195 L 382 193 L 383 192 L 383 190 L 384 189 L 384 187 L 385 186 L 385 184 L 386 183 L 386 180 L 387 179 L 387 176 L 388 175 L 388 171 L 389 170 L 389 165 L 390 164 L 390 156 L 391 155 L 391 124 L 390 123 L 390 116 L 389 115 L 389 110 L 388 109 L 388 105 L 387 104 L 387 101 L 386 100 L 386 98 L 385 97 L 385 94 L 384 93 L 384 91 L 383 90 L 383 88 L 382 87 L 382 85 L 381 84 L 381 83 L 380 82 L 380 80 L 379 79 L 379 78 L 378 77 L 378 76 L 377 75 L 377 74 L 376 73 L 376 72 L 375 71 L 375 70 L 374 69 L 374 68 L 373 67 L 373 66 L 371 64 L 371 63 L 370 62 L 370 61 L 368 59 L 368 58 L 366 56 L 366 55 L 363 52 L 363 51 L 359 47 L 359 46 L 344 31 L 343 31 L 339 27 L 338 27 L 336 25 L 335 25 L 333 23 L 332 23 L 331 22 L 330 22 L 329 21 L 328 21 L 327 20 L 326 20 L 325 19 L 324 19 L 323 18 L 322 18 L 321 17 L 320 17 L 319 16 L 317 16 L 316 15 L 315 15 L 314 14 L 312 14 L 311 13 L 308 13 L 307 12 L 304 12 L 303 11 L 299 11 L 298 10 L 293 10 L 292 9 L 281 9 L 280 8 Z M 265 14 L 266 13 L 287 13 L 288 14 L 293 14 L 294 15 L 296 15 L 297 16 L 299 16 L 300 17 L 302 17 L 303 18 L 305 18 L 306 19 L 307 19 L 308 20 L 309 20 L 310 21 L 311 21 L 312 22 L 313 22 L 315 24 L 316 24 L 319 27 L 320 27 L 328 35 L 329 35 L 330 36 L 330 37 L 336 43 L 336 44 L 339 47 L 339 48 L 341 50 L 341 51 L 343 53 L 343 54 L 344 55 L 344 56 L 345 57 L 345 58 L 347 60 L 347 61 L 348 62 L 348 63 L 349 64 L 349 65 L 350 66 L 350 67 L 351 68 L 351 70 L 352 71 L 352 72 L 353 73 L 353 74 L 354 75 L 354 77 L 355 78 L 355 80 L 356 81 L 356 83 L 357 84 L 357 86 L 358 87 L 358 90 L 359 91 L 359 93 L 360 94 L 360 98 L 361 99 L 361 102 L 362 103 L 362 108 L 363 109 L 363 115 L 364 116 L 364 126 L 365 127 L 365 153 L 364 154 L 364 163 L 363 164 L 363 170 L 362 171 L 362 175 L 361 176 L 361 180 L 360 181 L 360 184 L 359 185 L 359 188 L 358 189 L 358 192 L 357 193 L 357 195 L 356 196 L 356 198 L 355 199 L 355 201 L 354 202 L 354 204 L 353 205 L 353 206 L 352 207 L 352 209 L 351 210 L 351 211 L 350 212 L 350 214 L 349 215 L 349 216 L 348 217 L 348 218 L 347 219 L 347 220 L 346 221 L 346 222 L 344 224 L 344 225 L 343 226 L 343 227 L 342 228 L 342 229 L 340 231 L 340 232 L 338 234 L 338 235 L 335 238 L 335 239 L 319 255 L 318 255 L 315 258 L 314 258 L 313 259 L 312 259 L 310 261 L 309 261 L 308 262 L 307 262 L 306 263 L 305 263 L 304 264 L 302 264 L 301 265 L 299 265 L 298 266 L 295 266 L 294 267 L 291 267 L 290 268 L 284 268 L 283 269 L 271 269 L 270 268 L 265 268 L 264 267 L 260 267 L 259 266 L 257 266 L 256 265 L 254 265 L 253 264 L 252 264 L 251 263 L 249 263 L 248 262 L 247 262 L 246 261 L 245 261 L 243 259 L 242 259 L 241 258 L 240 258 L 237 255 L 236 255 L 232 251 L 231 251 L 225 245 L 225 244 L 220 239 L 220 238 L 217 235 L 217 234 L 215 232 L 215 231 L 213 229 L 213 228 L 212 227 L 212 226 L 210 224 L 210 223 L 209 222 L 209 221 L 208 220 L 208 219 L 207 218 L 207 217 L 206 216 L 206 215 L 205 214 L 205 213 L 204 212 L 204 211 L 203 210 L 203 208 L 202 207 L 202 205 L 201 204 L 201 203 L 200 202 L 200 200 L 199 199 L 199 197 L 198 196 L 198 194 L 197 193 L 197 191 L 196 190 L 196 186 L 195 185 L 195 182 L 194 181 L 194 177 L 193 176 L 193 172 L 192 171 L 192 165 L 191 164 L 191 156 L 190 155 L 190 126 L 191 125 L 191 117 L 192 116 L 192 110 L 193 109 L 193 105 L 194 104 L 194 100 L 195 99 L 195 96 L 196 95 L 196 92 L 197 91 L 197 88 L 198 87 L 198 85 L 199 84 L 199 82 L 200 81 L 200 79 L 201 78 L 201 76 L 202 75 L 202 73 L 203 72 L 203 71 L 204 70 L 204 69 L 205 68 L 205 66 L 206 65 L 206 64 L 207 63 L 207 62 L 208 61 L 208 60 L 210 58 L 210 57 L 211 56 L 211 55 L 212 54 L 212 53 L 214 51 L 214 50 L 216 48 L 216 47 L 219 44 L 219 43 L 236 26 L 237 26 L 239 24 L 240 24 L 242 22 L 243 22 L 244 21 L 245 21 L 246 20 L 247 20 L 248 19 L 249 19 L 250 18 L 252 18 L 253 17 L 254 17 L 255 16 L 257 16 L 258 15 L 261 15 L 262 14 Z M 278 112 L 278 113 L 277 114 L 277 115 L 276 116 L 276 118 L 275 119 L 275 120 L 274 121 L 274 122 L 273 123 L 273 124 L 270 127 L 270 128 L 268 130 L 267 130 L 266 131 L 265 131 L 264 132 L 263 132 L 262 133 L 261 133 L 260 134 L 259 134 L 258 135 L 256 135 L 255 136 L 253 136 L 253 137 L 256 137 L 257 138 L 259 138 L 260 139 L 262 139 L 263 140 L 264 140 L 265 141 L 266 141 L 269 144 L 270 144 L 271 145 L 271 146 L 274 149 L 274 150 L 275 151 L 275 152 L 276 153 L 276 155 L 277 156 L 277 158 L 278 159 L 278 160 L 279 159 L 279 157 L 280 156 L 280 155 L 281 154 L 281 152 L 282 151 L 282 150 L 284 148 L 284 147 L 289 142 L 290 142 L 291 141 L 292 141 L 293 140 L 294 140 L 295 139 L 296 139 L 297 138 L 299 138 L 300 137 L 303 137 L 304 136 L 301 136 L 300 135 L 298 135 L 297 134 L 295 134 L 294 133 L 293 133 L 292 132 L 291 132 L 289 130 L 288 130 L 285 127 L 285 126 L 283 124 L 283 123 L 282 122 L 282 121 L 281 120 L 281 119 L 280 118 L 280 116 L 279 115 L 279 113 Z" fill="#000000" fill-rule="evenodd"/>
</svg>
