<svg xmlns="http://www.w3.org/2000/svg" width="1946" height="362" viewBox="0 0 1946 362" version="1.1">
  <path d="M 1335 10 L 1335 50 L 1336 50 L 1336 48 L 1337 47 L 1337 44 L 1338 43 L 1338 41 L 1339 40 L 1339 38 L 1340 37 L 1340 35 L 1341 34 L 1341 33 L 1342 32 L 1342 31 L 1344 29 L 1344 28 L 1352 20 L 1353 20 L 1354 19 L 1355 19 L 1356 18 L 1358 18 L 1359 17 L 1361 17 L 1362 16 L 1385 16 L 1386 15 L 1407 15 L 1408 16 L 1408 337 L 1407 338 L 1407 340 L 1406 341 L 1406 342 L 1405 343 L 1405 344 L 1400 349 L 1399 349 L 1398 350 L 1397 350 L 1396 351 L 1396 352 L 1449 352 L 1450 351 L 1449 350 L 1447 350 L 1445 348 L 1444 348 L 1443 347 L 1443 346 L 1440 343 L 1440 342 L 1439 341 L 1439 339 L 1438 338 L 1438 335 L 1437 334 L 1437 302 L 1438 301 L 1438 298 L 1437 297 L 1437 245 L 1438 244 L 1438 203 L 1437 202 L 1437 160 L 1438 159 L 1438 119 L 1437 118 L 1437 76 L 1438 75 L 1438 50 L 1437 49 L 1437 17 L 1438 16 L 1482 16 L 1483 17 L 1485 17 L 1486 18 L 1488 18 L 1489 19 L 1490 19 L 1491 20 L 1492 20 L 1494 22 L 1495 22 L 1502 29 L 1502 30 L 1504 32 L 1504 33 L 1505 34 L 1505 36 L 1506 37 L 1506 38 L 1507 39 L 1507 41 L 1508 42 L 1508 45 L 1509 46 L 1509 49 L 1510 50 L 1511 49 L 1511 24 L 1510 23 L 1510 20 L 1511 19 L 1511 11 L 1510 10 Z M 906 10 L 906 11 L 907 11 L 908 12 L 909 12 L 914 17 L 914 18 L 915 19 L 915 20 L 916 21 L 916 22 L 917 23 L 917 285 L 918 286 L 918 294 L 919 295 L 919 299 L 920 300 L 920 303 L 921 304 L 921 306 L 922 307 L 922 309 L 923 310 L 923 311 L 924 312 L 924 314 L 926 316 L 926 317 L 927 318 L 927 319 L 928 320 L 928 321 L 930 323 L 930 324 L 933 327 L 933 328 L 943 338 L 944 338 L 947 341 L 948 341 L 950 343 L 951 343 L 952 344 L 953 344 L 954 345 L 955 345 L 956 346 L 957 346 L 958 347 L 959 347 L 960 348 L 962 348 L 963 349 L 965 349 L 966 350 L 969 350 L 970 351 L 974 351 L 975 352 L 1000 352 L 1001 351 L 1005 351 L 1006 350 L 1008 350 L 1009 349 L 1011 349 L 1012 348 L 1014 348 L 1015 347 L 1016 347 L 1017 346 L 1018 346 L 1019 345 L 1020 345 L 1021 344 L 1022 344 L 1025 341 L 1026 341 L 1029 338 L 1030 338 L 1038 330 L 1038 329 L 1040 327 L 1040 326 L 1042 324 L 1042 323 L 1043 322 L 1043 321 L 1045 319 L 1045 318 L 1046 317 L 1046 316 L 1047 315 L 1047 313 L 1048 312 L 1048 311 L 1049 310 L 1049 308 L 1050 307 L 1050 305 L 1051 304 L 1051 300 L 1052 299 L 1052 295 L 1053 294 L 1053 278 L 1054 277 L 1054 266 L 1053 265 L 1054 264 L 1053 263 L 1053 199 L 1054 198 L 1054 154 L 1053 153 L 1053 114 L 1054 113 L 1054 110 L 1053 109 L 1053 107 L 1054 106 L 1054 76 L 1053 75 L 1053 34 L 1054 33 L 1054 27 L 1055 26 L 1055 24 L 1056 23 L 1056 21 L 1057 20 L 1057 19 L 1064 12 L 1065 12 L 1066 11 L 1067 11 L 1067 10 L 1033 10 L 1034 11 L 1035 11 L 1036 12 L 1037 12 L 1044 19 L 1044 20 L 1045 21 L 1045 22 L 1046 23 L 1046 25 L 1047 26 L 1047 29 L 1048 30 L 1048 290 L 1047 291 L 1047 296 L 1046 297 L 1046 300 L 1045 301 L 1045 304 L 1044 305 L 1044 307 L 1043 308 L 1043 310 L 1042 311 L 1042 312 L 1041 313 L 1041 314 L 1040 315 L 1040 316 L 1039 317 L 1039 318 L 1038 319 L 1038 320 L 1036 322 L 1036 323 L 1031 328 L 1031 329 L 1030 330 L 1029 330 L 1024 335 L 1023 335 L 1021 337 L 1020 337 L 1019 338 L 1018 338 L 1017 339 L 1016 339 L 1015 340 L 1014 340 L 1013 341 L 1012 341 L 1011 342 L 1009 342 L 1008 343 L 1005 343 L 1004 344 L 987 344 L 986 343 L 983 343 L 982 342 L 980 342 L 979 341 L 978 341 L 977 340 L 976 340 L 975 339 L 974 339 L 972 337 L 971 337 L 969 335 L 968 335 L 959 326 L 959 325 L 957 323 L 957 322 L 955 320 L 955 319 L 954 318 L 954 317 L 953 316 L 953 315 L 952 314 L 952 313 L 951 312 L 951 310 L 950 309 L 950 306 L 949 305 L 949 302 L 948 301 L 948 296 L 947 295 L 947 24 L 948 23 L 948 21 L 949 20 L 949 19 L 950 18 L 950 17 L 954 13 L 955 13 L 957 11 L 958 11 L 958 10 Z M 672 10 L 672 11 L 674 11 L 676 13 L 677 13 L 679 15 L 679 16 L 681 18 L 681 19 L 682 20 L 682 21 L 683 22 L 683 25 L 684 26 L 684 335 L 683 336 L 683 339 L 682 340 L 682 342 L 680 344 L 680 345 L 676 349 L 675 349 L 674 350 L 673 350 L 672 351 L 672 352 L 735 352 L 736 351 L 747 351 L 748 350 L 754 350 L 755 349 L 759 349 L 760 348 L 763 348 L 764 347 L 767 347 L 768 346 L 771 346 L 772 345 L 773 345 L 774 344 L 776 344 L 777 343 L 779 343 L 780 342 L 781 342 L 782 341 L 784 341 L 785 340 L 786 340 L 787 339 L 788 339 L 789 338 L 791 338 L 792 337 L 793 337 L 794 336 L 795 336 L 796 335 L 797 335 L 799 333 L 800 333 L 801 332 L 802 332 L 804 330 L 805 330 L 807 328 L 808 328 L 810 326 L 811 326 L 815 322 L 816 322 L 822 316 L 823 316 L 830 309 L 830 308 L 836 302 L 836 301 L 840 297 L 840 296 L 843 293 L 843 292 L 845 290 L 845 289 L 846 288 L 846 287 L 848 285 L 848 284 L 850 282 L 850 281 L 851 280 L 851 279 L 852 278 L 852 277 L 854 275 L 854 274 L 855 273 L 855 271 L 856 270 L 856 269 L 857 268 L 857 267 L 858 266 L 858 265 L 859 264 L 859 263 L 860 262 L 860 260 L 861 259 L 861 258 L 862 257 L 862 255 L 863 254 L 863 252 L 864 251 L 864 249 L 865 248 L 865 246 L 866 245 L 866 243 L 867 242 L 867 239 L 868 238 L 868 236 L 869 235 L 869 232 L 870 231 L 870 227 L 871 226 L 871 222 L 872 221 L 872 216 L 873 215 L 873 210 L 874 209 L 874 201 L 875 200 L 875 158 L 874 157 L 874 151 L 873 150 L 873 144 L 872 143 L 872 138 L 871 137 L 871 134 L 870 133 L 870 129 L 869 128 L 869 125 L 868 124 L 868 122 L 867 121 L 867 118 L 866 117 L 866 115 L 865 114 L 865 112 L 864 111 L 864 109 L 863 108 L 863 107 L 862 106 L 862 104 L 861 103 L 861 101 L 860 100 L 860 99 L 859 98 L 859 96 L 858 95 L 858 94 L 857 93 L 857 92 L 856 91 L 856 90 L 855 89 L 855 88 L 854 87 L 854 86 L 852 84 L 852 83 L 851 82 L 851 81 L 850 80 L 850 79 L 848 77 L 848 76 L 846 74 L 846 73 L 844 71 L 844 70 L 842 68 L 842 67 L 839 64 L 839 63 L 834 58 L 834 57 L 818 41 L 817 41 L 812 36 L 811 36 L 809 34 L 808 34 L 806 32 L 805 32 L 803 30 L 802 30 L 801 29 L 800 29 L 798 27 L 797 27 L 796 26 L 795 26 L 794 25 L 793 25 L 792 24 L 791 24 L 790 23 L 789 23 L 788 22 L 787 22 L 786 21 L 784 21 L 783 20 L 782 20 L 781 19 L 779 19 L 778 18 L 776 18 L 775 17 L 773 17 L 772 16 L 770 16 L 769 15 L 766 15 L 765 14 L 762 14 L 761 13 L 757 13 L 756 12 L 751 12 L 750 11 L 742 11 L 741 10 Z M 715 15 L 716 16 L 717 15 L 736 15 L 737 16 L 744 16 L 745 17 L 749 17 L 750 18 L 753 18 L 754 19 L 757 19 L 758 20 L 760 20 L 761 21 L 763 21 L 764 22 L 765 22 L 766 23 L 767 23 L 768 24 L 769 24 L 770 25 L 771 25 L 772 26 L 773 26 L 774 27 L 775 27 L 776 28 L 777 28 L 778 29 L 779 29 L 781 31 L 782 31 L 785 34 L 786 34 L 789 37 L 790 37 L 804 51 L 804 52 L 808 56 L 808 57 L 812 61 L 812 62 L 814 64 L 814 65 L 815 66 L 815 67 L 817 69 L 817 70 L 818 71 L 818 72 L 820 74 L 820 75 L 821 76 L 821 77 L 822 78 L 822 79 L 823 80 L 823 81 L 824 82 L 824 83 L 825 84 L 825 85 L 826 86 L 826 88 L 827 89 L 827 90 L 828 91 L 828 92 L 829 93 L 829 95 L 830 96 L 830 97 L 831 98 L 831 100 L 832 101 L 832 103 L 833 104 L 833 106 L 834 107 L 834 110 L 835 111 L 835 113 L 836 114 L 836 116 L 837 117 L 837 121 L 838 122 L 838 125 L 839 126 L 839 130 L 840 131 L 840 134 L 841 135 L 841 140 L 842 141 L 842 148 L 843 149 L 843 156 L 844 157 L 844 173 L 845 174 L 845 187 L 844 188 L 844 204 L 843 205 L 843 213 L 842 214 L 842 220 L 841 221 L 841 225 L 840 226 L 840 231 L 839 232 L 839 235 L 838 236 L 838 239 L 837 240 L 837 243 L 836 244 L 836 247 L 835 248 L 835 250 L 834 251 L 834 253 L 833 254 L 833 256 L 832 257 L 832 259 L 831 260 L 831 262 L 830 263 L 830 265 L 829 266 L 829 267 L 828 268 L 828 270 L 827 271 L 827 272 L 826 273 L 826 274 L 825 275 L 825 277 L 824 278 L 824 279 L 823 280 L 823 281 L 822 282 L 822 283 L 821 284 L 821 285 L 819 287 L 819 288 L 818 289 L 818 290 L 817 291 L 817 292 L 815 294 L 815 295 L 814 296 L 814 297 L 812 299 L 812 300 L 809 303 L 809 304 L 806 307 L 806 308 L 799 315 L 799 316 L 795 320 L 794 320 L 788 326 L 787 326 L 784 329 L 783 329 L 780 332 L 779 332 L 778 333 L 777 333 L 776 334 L 775 334 L 773 336 L 772 336 L 771 337 L 770 337 L 769 338 L 767 338 L 766 339 L 765 339 L 764 340 L 762 340 L 761 341 L 759 341 L 758 342 L 756 342 L 755 343 L 752 343 L 751 344 L 748 344 L 747 345 L 742 345 L 741 346 L 714 346 L 713 345 L 713 17 Z M 204 10 L 204 11 L 205 11 L 206 12 L 207 12 L 213 18 L 213 19 L 214 20 L 214 21 L 215 22 L 215 24 L 216 25 L 216 336 L 215 337 L 215 340 L 214 341 L 214 342 L 212 344 L 212 345 L 208 349 L 207 349 L 206 350 L 205 350 L 204 351 L 203 351 L 204 352 L 257 352 L 258 351 L 257 350 L 256 350 L 255 349 L 254 349 L 252 347 L 251 347 L 250 346 L 250 345 L 248 343 L 248 342 L 247 341 L 247 340 L 246 339 L 246 336 L 245 335 L 245 224 L 246 223 L 260 223 L 261 224 L 263 224 L 264 225 L 265 225 L 267 227 L 268 227 L 276 235 L 276 236 L 279 239 L 279 240 L 280 241 L 280 242 L 281 243 L 281 244 L 282 245 L 282 246 L 283 247 L 283 249 L 284 250 L 284 251 L 285 252 L 285 254 L 286 255 L 286 256 L 287 257 L 287 259 L 288 260 L 288 261 L 289 262 L 289 264 L 290 265 L 290 267 L 291 268 L 291 269 L 292 270 L 292 272 L 293 273 L 293 275 L 294 276 L 294 277 L 295 278 L 295 280 L 296 281 L 296 282 L 297 283 L 297 285 L 298 286 L 298 288 L 299 289 L 299 291 L 300 292 L 300 293 L 301 294 L 301 296 L 302 297 L 302 299 L 303 300 L 303 301 L 304 302 L 304 304 L 305 305 L 305 307 L 306 308 L 306 309 L 307 310 L 307 312 L 308 313 L 308 314 L 309 315 L 309 317 L 310 318 L 310 320 L 311 321 L 311 323 L 312 324 L 312 325 L 313 326 L 313 328 L 314 329 L 314 330 L 315 331 L 315 333 L 316 334 L 316 336 L 317 337 L 317 341 L 318 342 L 317 343 L 317 346 L 316 347 L 316 348 L 313 351 L 312 351 L 313 352 L 367 352 L 367 351 L 366 350 L 364 350 L 362 348 L 361 348 L 359 346 L 358 346 L 352 340 L 352 339 L 349 336 L 349 335 L 348 334 L 348 333 L 347 332 L 347 331 L 346 330 L 346 328 L 345 327 L 345 326 L 344 325 L 344 323 L 343 322 L 343 320 L 342 319 L 342 318 L 341 317 L 341 316 L 340 315 L 340 313 L 339 312 L 339 310 L 338 309 L 338 308 L 337 307 L 337 305 L 336 304 L 336 303 L 335 302 L 335 300 L 334 299 L 334 297 L 333 296 L 333 295 L 332 294 L 332 292 L 331 291 L 331 289 L 330 288 L 330 287 L 329 286 L 329 284 L 328 283 L 328 281 L 327 280 L 327 279 L 326 278 L 326 276 L 325 275 L 325 274 L 324 273 L 324 271 L 323 270 L 323 269 L 322 268 L 322 266 L 321 265 L 321 263 L 320 262 L 320 261 L 319 260 L 319 258 L 318 257 L 318 255 L 317 254 L 317 253 L 316 252 L 316 251 L 315 250 L 315 248 L 314 247 L 314 246 L 313 245 L 313 244 L 312 243 L 312 242 L 310 240 L 310 239 L 307 236 L 307 235 L 301 229 L 300 229 L 297 226 L 296 226 L 294 224 L 293 224 L 292 223 L 290 223 L 289 222 L 287 222 L 286 221 L 286 220 L 287 219 L 291 219 L 292 218 L 294 218 L 295 217 L 296 217 L 297 216 L 298 216 L 299 215 L 300 215 L 301 214 L 302 214 L 303 213 L 304 213 L 305 212 L 306 212 L 307 211 L 308 211 L 310 209 L 311 209 L 314 206 L 315 206 L 325 196 L 325 195 L 329 191 L 329 190 L 331 188 L 331 187 L 333 185 L 333 184 L 334 183 L 334 182 L 336 180 L 336 179 L 337 178 L 337 177 L 338 176 L 338 175 L 339 174 L 339 173 L 340 172 L 340 170 L 341 169 L 341 168 L 342 167 L 342 165 L 343 164 L 343 163 L 344 162 L 344 159 L 345 158 L 345 156 L 346 155 L 346 153 L 347 152 L 347 148 L 348 147 L 348 143 L 349 142 L 349 138 L 350 137 L 350 129 L 351 128 L 351 100 L 350 99 L 350 92 L 349 91 L 349 85 L 348 84 L 348 80 L 347 79 L 347 76 L 346 75 L 346 73 L 345 72 L 345 70 L 344 69 L 344 66 L 343 65 L 343 64 L 342 63 L 342 61 L 341 60 L 341 59 L 340 58 L 340 57 L 339 56 L 339 55 L 338 54 L 338 53 L 337 52 L 337 51 L 336 50 L 336 49 L 335 48 L 335 47 L 333 45 L 333 44 L 331 42 L 331 41 L 328 38 L 328 37 L 317 26 L 316 26 L 313 23 L 312 23 L 310 21 L 309 21 L 308 20 L 307 20 L 306 19 L 305 19 L 304 18 L 303 18 L 302 17 L 301 17 L 300 16 L 299 16 L 298 15 L 297 15 L 296 14 L 293 14 L 292 13 L 290 13 L 289 12 L 285 12 L 284 11 L 279 11 L 278 10 Z M 245 16 L 246 15 L 269 15 L 270 16 L 274 16 L 275 17 L 278 17 L 279 18 L 281 18 L 282 19 L 283 19 L 285 21 L 286 21 L 288 23 L 289 23 L 291 25 L 292 25 L 299 32 L 299 33 L 302 36 L 302 37 L 304 39 L 304 40 L 306 42 L 306 43 L 307 44 L 307 45 L 308 46 L 308 47 L 309 48 L 309 49 L 310 50 L 310 51 L 311 52 L 311 54 L 312 55 L 312 56 L 313 57 L 313 59 L 314 60 L 314 62 L 315 63 L 315 66 L 316 67 L 316 70 L 317 71 L 317 75 L 318 76 L 318 80 L 319 81 L 319 87 L 320 88 L 320 98 L 321 99 L 321 127 L 320 128 L 320 138 L 319 139 L 319 144 L 318 145 L 318 150 L 317 151 L 317 155 L 316 156 L 316 160 L 315 161 L 315 163 L 314 164 L 314 167 L 313 168 L 313 170 L 312 171 L 312 173 L 311 174 L 311 175 L 310 176 L 310 178 L 309 179 L 309 180 L 308 181 L 308 182 L 307 183 L 307 185 L 306 186 L 306 187 L 304 189 L 304 190 L 302 192 L 302 193 L 300 195 L 300 196 L 297 199 L 297 200 L 290 207 L 289 207 L 286 210 L 285 210 L 283 212 L 282 212 L 281 213 L 279 213 L 278 214 L 277 214 L 276 215 L 273 215 L 272 216 L 268 216 L 267 217 L 247 217 L 245 215 Z M 8 10 L 8 11 L 9 11 L 10 12 L 11 12 L 12 13 L 13 13 L 16 16 L 16 17 L 18 19 L 18 21 L 19 22 L 19 25 L 20 26 L 20 336 L 19 337 L 19 339 L 18 340 L 18 342 L 17 343 L 17 344 L 12 349 L 11 349 L 10 350 L 9 350 L 8 351 L 8 352 L 61 352 L 62 351 L 61 351 L 60 350 L 59 350 L 52 343 L 52 342 L 51 341 L 51 339 L 50 338 L 50 233 L 51 232 L 92 232 L 93 231 L 98 231 L 99 230 L 103 230 L 104 229 L 107 229 L 108 228 L 110 228 L 111 227 L 113 227 L 114 226 L 115 226 L 116 225 L 118 225 L 119 224 L 120 224 L 121 223 L 122 223 L 123 222 L 124 222 L 125 221 L 126 221 L 128 219 L 129 219 L 131 217 L 132 217 L 134 215 L 135 215 L 150 200 L 150 199 L 153 196 L 153 195 L 155 193 L 155 192 L 157 190 L 157 189 L 158 188 L 158 187 L 159 186 L 159 185 L 160 184 L 160 183 L 161 182 L 161 181 L 162 180 L 162 179 L 163 178 L 163 177 L 164 176 L 164 174 L 165 173 L 165 172 L 166 171 L 166 169 L 167 168 L 167 166 L 168 165 L 168 163 L 169 162 L 169 159 L 170 158 L 170 154 L 171 153 L 171 150 L 172 149 L 172 144 L 173 143 L 173 135 L 174 134 L 174 107 L 173 106 L 173 98 L 172 97 L 172 93 L 171 92 L 171 89 L 170 88 L 170 84 L 169 83 L 169 80 L 168 79 L 168 77 L 167 76 L 167 74 L 166 73 L 166 71 L 165 70 L 165 69 L 164 68 L 164 66 L 163 65 L 163 64 L 162 63 L 162 62 L 161 61 L 161 60 L 160 59 L 160 58 L 159 57 L 159 56 L 158 55 L 158 54 L 156 52 L 156 51 L 155 50 L 155 49 L 153 47 L 153 46 L 150 43 L 150 42 L 136 28 L 135 28 L 133 26 L 132 26 L 129 23 L 128 23 L 127 22 L 126 22 L 125 21 L 124 21 L 123 20 L 122 20 L 121 19 L 120 19 L 119 18 L 118 18 L 117 17 L 116 17 L 115 16 L 113 16 L 112 15 L 110 15 L 109 14 L 107 14 L 106 13 L 103 13 L 102 12 L 98 12 L 97 11 L 91 11 L 90 10 Z M 50 16 L 51 15 L 52 16 L 54 16 L 55 15 L 83 15 L 84 16 L 90 16 L 91 17 L 93 17 L 94 18 L 96 18 L 97 19 L 99 19 L 100 20 L 101 20 L 102 21 L 103 21 L 104 22 L 105 22 L 107 24 L 108 24 L 110 26 L 111 26 L 122 37 L 122 38 L 124 40 L 124 41 L 127 44 L 127 45 L 128 46 L 128 47 L 130 49 L 130 51 L 131 52 L 131 53 L 132 54 L 132 55 L 133 56 L 133 57 L 134 58 L 134 59 L 135 60 L 135 62 L 136 63 L 136 65 L 137 66 L 137 68 L 138 69 L 138 72 L 139 73 L 139 75 L 140 76 L 140 80 L 141 81 L 141 85 L 142 86 L 142 92 L 143 93 L 143 101 L 144 102 L 144 138 L 143 139 L 143 148 L 142 149 L 142 154 L 141 155 L 141 159 L 140 160 L 140 164 L 139 165 L 139 167 L 138 168 L 138 171 L 137 172 L 137 174 L 136 175 L 136 177 L 135 178 L 135 180 L 134 181 L 134 183 L 133 184 L 133 185 L 132 186 L 132 187 L 131 188 L 131 189 L 130 190 L 130 191 L 129 192 L 129 193 L 128 194 L 128 195 L 127 196 L 127 197 L 125 199 L 125 200 L 123 202 L 123 203 L 120 206 L 120 207 L 112 215 L 111 215 L 108 218 L 107 218 L 105 220 L 104 220 L 103 221 L 102 221 L 101 222 L 100 222 L 99 223 L 98 223 L 97 224 L 95 224 L 94 225 L 91 225 L 90 226 L 87 226 L 86 227 L 51 227 L 50 226 Z M 1846 9 L 1845 10 L 1840 10 L 1839 11 L 1836 11 L 1835 12 L 1833 12 L 1832 13 L 1830 13 L 1829 14 L 1827 14 L 1826 15 L 1825 15 L 1824 16 L 1823 16 L 1822 17 L 1821 17 L 1819 19 L 1818 19 L 1817 20 L 1816 20 L 1814 22 L 1813 22 L 1808 27 L 1807 27 L 1802 32 L 1802 33 L 1798 37 L 1798 38 L 1796 40 L 1796 41 L 1795 42 L 1795 43 L 1793 45 L 1793 46 L 1792 47 L 1792 48 L 1791 49 L 1791 50 L 1790 51 L 1790 53 L 1789 54 L 1789 56 L 1788 57 L 1788 58 L 1787 59 L 1787 62 L 1786 63 L 1786 66 L 1785 67 L 1785 72 L 1784 73 L 1784 84 L 1783 85 L 1783 87 L 1784 88 L 1784 99 L 1785 100 L 1785 104 L 1786 105 L 1786 109 L 1787 110 L 1787 113 L 1788 114 L 1788 116 L 1789 117 L 1789 119 L 1790 120 L 1790 122 L 1791 123 L 1791 124 L 1792 125 L 1792 126 L 1793 127 L 1793 128 L 1794 129 L 1794 130 L 1795 131 L 1795 132 L 1796 133 L 1796 134 L 1797 135 L 1797 136 L 1798 137 L 1798 138 L 1799 139 L 1799 140 L 1801 142 L 1801 143 L 1803 145 L 1803 146 L 1806 149 L 1806 150 L 1809 153 L 1809 154 L 1831 176 L 1832 176 L 1838 182 L 1839 182 L 1842 185 L 1843 185 L 1847 189 L 1848 189 L 1851 192 L 1852 192 L 1855 195 L 1856 195 L 1859 198 L 1860 198 L 1863 201 L 1864 201 L 1867 204 L 1868 204 L 1871 207 L 1872 207 L 1875 210 L 1876 210 L 1882 216 L 1883 216 L 1884 217 L 1884 218 L 1885 218 L 1891 224 L 1891 225 L 1897 231 L 1897 232 L 1900 235 L 1900 236 L 1902 238 L 1902 239 L 1903 240 L 1903 241 L 1905 243 L 1905 244 L 1906 245 L 1906 246 L 1907 247 L 1907 249 L 1908 250 L 1908 251 L 1909 252 L 1909 253 L 1910 254 L 1910 256 L 1911 257 L 1911 259 L 1912 260 L 1912 263 L 1913 264 L 1913 268 L 1914 269 L 1914 276 L 1915 277 L 1915 287 L 1914 288 L 1914 295 L 1913 296 L 1913 300 L 1912 301 L 1912 304 L 1911 305 L 1911 307 L 1910 308 L 1910 310 L 1909 311 L 1909 312 L 1908 313 L 1908 314 L 1907 315 L 1907 316 L 1906 317 L 1906 318 L 1905 319 L 1905 320 L 1904 321 L 1904 322 L 1902 324 L 1902 325 L 1898 329 L 1898 330 L 1893 335 L 1892 335 L 1889 338 L 1888 338 L 1886 340 L 1885 340 L 1884 341 L 1883 341 L 1882 342 L 1881 342 L 1880 343 L 1879 343 L 1878 344 L 1876 344 L 1875 345 L 1873 345 L 1872 346 L 1868 346 L 1867 347 L 1852 347 L 1851 346 L 1847 346 L 1846 345 L 1844 345 L 1843 344 L 1841 344 L 1840 343 L 1838 343 L 1837 342 L 1836 342 L 1835 341 L 1834 341 L 1833 340 L 1832 340 L 1830 338 L 1829 338 L 1826 335 L 1825 335 L 1815 325 L 1815 324 L 1813 322 L 1813 321 L 1811 319 L 1811 318 L 1809 316 L 1809 315 L 1808 314 L 1808 313 L 1807 312 L 1807 311 L 1806 310 L 1806 309 L 1805 308 L 1805 307 L 1804 306 L 1804 305 L 1803 304 L 1803 302 L 1802 301 L 1802 300 L 1801 299 L 1801 297 L 1800 296 L 1800 294 L 1799 293 L 1799 290 L 1798 289 L 1798 286 L 1797 285 L 1797 282 L 1795 282 L 1795 331 L 1797 333 L 1798 333 L 1800 335 L 1801 335 L 1802 336 L 1803 336 L 1805 338 L 1806 338 L 1807 339 L 1808 339 L 1809 340 L 1810 340 L 1811 341 L 1812 341 L 1813 342 L 1814 342 L 1815 343 L 1816 343 L 1817 344 L 1818 344 L 1819 345 L 1821 345 L 1822 346 L 1824 346 L 1825 347 L 1827 347 L 1828 348 L 1830 348 L 1831 349 L 1834 349 L 1835 350 L 1839 350 L 1840 351 L 1846 351 L 1847 352 L 1872 352 L 1873 351 L 1877 351 L 1878 350 L 1882 350 L 1883 349 L 1885 349 L 1886 348 L 1888 348 L 1889 347 L 1891 347 L 1892 346 L 1893 346 L 1894 345 L 1895 345 L 1896 344 L 1897 344 L 1898 343 L 1899 343 L 1900 342 L 1901 342 L 1902 341 L 1903 341 L 1905 339 L 1906 339 L 1910 335 L 1911 335 L 1919 327 L 1919 326 L 1923 322 L 1923 321 L 1924 320 L 1924 319 L 1926 317 L 1926 316 L 1927 315 L 1927 314 L 1928 313 L 1928 312 L 1929 311 L 1929 310 L 1930 309 L 1930 308 L 1931 307 L 1931 305 L 1932 304 L 1932 302 L 1933 301 L 1933 299 L 1934 298 L 1934 296 L 1935 295 L 1935 292 L 1936 291 L 1936 286 L 1937 285 L 1937 258 L 1936 257 L 1936 252 L 1935 251 L 1935 247 L 1934 246 L 1934 244 L 1933 243 L 1933 240 L 1932 239 L 1932 238 L 1931 237 L 1931 235 L 1930 234 L 1930 233 L 1929 232 L 1929 230 L 1928 229 L 1928 228 L 1927 227 L 1927 226 L 1926 225 L 1926 224 L 1924 222 L 1924 221 L 1923 220 L 1923 219 L 1921 217 L 1921 216 L 1919 214 L 1919 213 L 1916 210 L 1916 209 L 1909 202 L 1909 201 L 1897 189 L 1896 189 L 1891 184 L 1890 184 L 1886 180 L 1885 180 L 1882 177 L 1881 177 L 1878 174 L 1877 174 L 1874 171 L 1873 171 L 1870 168 L 1869 168 L 1867 166 L 1866 166 L 1864 164 L 1863 164 L 1860 161 L 1859 161 L 1856 158 L 1855 158 L 1852 155 L 1851 155 L 1847 151 L 1846 151 L 1838 143 L 1837 143 L 1831 137 L 1831 136 L 1825 130 L 1825 129 L 1822 126 L 1822 125 L 1819 122 L 1819 121 L 1818 120 L 1818 119 L 1816 117 L 1816 116 L 1815 115 L 1815 114 L 1814 113 L 1814 112 L 1813 111 L 1813 110 L 1812 109 L 1812 108 L 1811 107 L 1811 105 L 1810 104 L 1810 103 L 1809 102 L 1809 99 L 1808 98 L 1808 96 L 1807 95 L 1807 91 L 1806 90 L 1806 85 L 1805 84 L 1805 67 L 1806 66 L 1806 61 L 1807 60 L 1807 56 L 1808 55 L 1808 52 L 1809 51 L 1809 50 L 1810 49 L 1810 47 L 1811 46 L 1811 44 L 1812 43 L 1812 42 L 1813 41 L 1813 40 L 1815 38 L 1815 37 L 1817 35 L 1817 34 L 1821 30 L 1821 29 L 1822 28 L 1823 28 L 1828 23 L 1829 23 L 1831 21 L 1832 21 L 1834 19 L 1835 19 L 1836 18 L 1838 18 L 1839 17 L 1840 17 L 1841 16 L 1844 16 L 1845 15 L 1849 15 L 1850 14 L 1860 14 L 1861 15 L 1866 15 L 1867 16 L 1869 16 L 1870 17 L 1871 17 L 1872 18 L 1873 18 L 1874 19 L 1875 19 L 1877 21 L 1878 21 L 1888 31 L 1888 32 L 1890 34 L 1890 35 L 1891 36 L 1891 37 L 1892 38 L 1892 39 L 1893 40 L 1893 42 L 1894 43 L 1894 44 L 1895 45 L 1895 47 L 1896 48 L 1896 51 L 1897 52 L 1897 59 L 1901 63 L 1902 63 L 1905 66 L 1906 66 L 1911 71 L 1911 72 L 1912 73 L 1912 74 L 1913 75 L 1914 75 L 1914 27 L 1912 25 L 1911 25 L 1909 23 L 1908 23 L 1906 21 L 1905 21 L 1904 20 L 1903 20 L 1902 19 L 1901 19 L 1900 18 L 1899 18 L 1898 17 L 1897 17 L 1896 16 L 1894 16 L 1893 15 L 1892 15 L 1891 14 L 1889 14 L 1888 13 L 1886 13 L 1885 12 L 1882 12 L 1881 11 L 1877 11 L 1876 10 L 1872 10 L 1871 9 Z M 1222 9 L 1221 10 L 1216 10 L 1215 11 L 1210 11 L 1209 12 L 1206 12 L 1205 13 L 1202 13 L 1201 14 L 1199 14 L 1198 15 L 1196 15 L 1195 16 L 1193 16 L 1192 17 L 1191 17 L 1190 18 L 1188 18 L 1187 19 L 1186 19 L 1185 20 L 1184 20 L 1183 21 L 1182 21 L 1181 22 L 1180 22 L 1179 23 L 1178 23 L 1177 24 L 1176 24 L 1174 26 L 1173 26 L 1172 27 L 1171 27 L 1169 29 L 1168 29 L 1166 31 L 1165 31 L 1163 33 L 1162 33 L 1158 37 L 1157 37 L 1149 45 L 1148 45 L 1147 46 L 1147 47 L 1139 55 L 1139 56 L 1135 60 L 1135 61 L 1132 64 L 1132 65 L 1130 67 L 1130 68 L 1128 70 L 1128 71 L 1127 72 L 1127 73 L 1125 75 L 1125 76 L 1123 78 L 1123 79 L 1122 80 L 1122 81 L 1121 82 L 1121 83 L 1120 84 L 1120 85 L 1119 86 L 1119 87 L 1118 88 L 1118 89 L 1117 90 L 1117 91 L 1116 92 L 1116 93 L 1115 94 L 1115 95 L 1114 96 L 1114 98 L 1113 99 L 1113 100 L 1112 101 L 1112 102 L 1111 103 L 1111 105 L 1110 106 L 1110 108 L 1109 109 L 1109 111 L 1108 112 L 1108 114 L 1107 115 L 1107 117 L 1106 118 L 1106 120 L 1105 121 L 1105 124 L 1104 125 L 1104 127 L 1103 128 L 1103 132 L 1102 133 L 1102 136 L 1101 137 L 1101 142 L 1100 143 L 1100 147 L 1099 148 L 1099 154 L 1098 155 L 1098 164 L 1097 165 L 1097 196 L 1098 197 L 1098 207 L 1099 208 L 1099 214 L 1100 215 L 1100 219 L 1101 220 L 1101 224 L 1102 225 L 1102 229 L 1103 230 L 1103 233 L 1104 234 L 1104 237 L 1105 238 L 1105 241 L 1106 242 L 1106 245 L 1107 246 L 1107 248 L 1108 249 L 1108 251 L 1109 252 L 1109 254 L 1110 255 L 1110 257 L 1111 258 L 1111 259 L 1112 260 L 1112 262 L 1113 263 L 1113 264 L 1114 265 L 1114 266 L 1115 267 L 1115 269 L 1116 270 L 1116 271 L 1117 272 L 1117 273 L 1118 274 L 1118 275 L 1119 276 L 1119 277 L 1120 278 L 1120 279 L 1122 281 L 1122 282 L 1123 283 L 1123 284 L 1125 286 L 1125 287 L 1127 289 L 1127 290 L 1128 291 L 1128 292 L 1130 294 L 1130 295 L 1133 298 L 1133 299 L 1137 303 L 1137 304 L 1142 309 L 1142 310 L 1153 321 L 1154 321 L 1159 326 L 1160 326 L 1163 329 L 1164 329 L 1167 332 L 1168 332 L 1169 333 L 1170 333 L 1172 335 L 1173 335 L 1174 336 L 1175 336 L 1176 337 L 1177 337 L 1179 339 L 1180 339 L 1181 340 L 1182 340 L 1183 341 L 1184 341 L 1185 342 L 1186 342 L 1187 343 L 1189 343 L 1190 344 L 1191 344 L 1192 345 L 1194 345 L 1195 346 L 1197 346 L 1198 347 L 1200 347 L 1201 348 L 1203 348 L 1204 349 L 1208 349 L 1209 350 L 1212 350 L 1213 351 L 1219 351 L 1220 352 L 1230 352 L 1231 353 L 1239 353 L 1240 352 L 1250 352 L 1251 351 L 1256 351 L 1257 350 L 1260 350 L 1261 349 L 1264 349 L 1265 348 L 1267 348 L 1268 347 L 1270 347 L 1271 346 L 1272 346 L 1273 345 L 1274 345 L 1275 344 L 1277 344 L 1279 342 L 1280 342 L 1281 341 L 1282 341 L 1283 340 L 1284 340 L 1286 338 L 1287 338 L 1288 337 L 1289 337 L 1291 335 L 1292 335 L 1295 332 L 1296 332 L 1311 317 L 1311 316 L 1314 313 L 1314 312 L 1317 309 L 1317 308 L 1318 307 L 1318 305 L 1317 304 L 1317 303 L 1316 303 L 1314 305 L 1314 306 L 1311 309 L 1311 310 L 1295 326 L 1294 326 L 1291 329 L 1290 329 L 1288 331 L 1287 331 L 1285 333 L 1284 333 L 1283 334 L 1282 334 L 1281 335 L 1280 335 L 1278 337 L 1276 337 L 1275 338 L 1274 338 L 1273 339 L 1272 339 L 1271 340 L 1270 340 L 1269 341 L 1267 341 L 1266 342 L 1264 342 L 1263 343 L 1261 343 L 1260 344 L 1257 344 L 1256 345 L 1252 345 L 1251 346 L 1244 346 L 1243 347 L 1235 347 L 1234 346 L 1227 346 L 1226 345 L 1223 345 L 1222 344 L 1219 344 L 1218 343 L 1216 343 L 1215 342 L 1213 342 L 1212 341 L 1211 341 L 1210 340 L 1208 340 L 1207 339 L 1206 339 L 1205 338 L 1204 338 L 1203 337 L 1202 337 L 1201 336 L 1200 336 L 1199 335 L 1198 335 L 1196 333 L 1195 333 L 1193 331 L 1192 331 L 1189 328 L 1188 328 L 1184 324 L 1183 324 L 1170 311 L 1170 310 L 1166 306 L 1166 305 L 1163 302 L 1163 301 L 1160 298 L 1160 297 L 1158 295 L 1158 294 L 1157 293 L 1157 292 L 1155 290 L 1155 289 L 1154 288 L 1154 287 L 1152 285 L 1152 284 L 1151 283 L 1151 282 L 1150 281 L 1150 280 L 1149 279 L 1149 278 L 1148 277 L 1148 276 L 1147 275 L 1147 273 L 1146 272 L 1146 271 L 1145 270 L 1145 269 L 1144 268 L 1144 267 L 1143 266 L 1143 264 L 1142 263 L 1142 262 L 1141 261 L 1141 259 L 1140 258 L 1140 256 L 1139 255 L 1139 253 L 1138 252 L 1138 249 L 1137 248 L 1137 246 L 1136 245 L 1136 242 L 1135 241 L 1135 238 L 1134 237 L 1134 234 L 1133 233 L 1133 229 L 1132 228 L 1132 223 L 1131 222 L 1131 217 L 1130 216 L 1130 209 L 1129 208 L 1129 197 L 1128 196 L 1128 167 L 1129 166 L 1129 155 L 1130 154 L 1130 147 L 1131 146 L 1131 141 L 1132 140 L 1132 136 L 1133 135 L 1133 131 L 1134 130 L 1134 126 L 1135 125 L 1135 122 L 1136 121 L 1136 118 L 1137 117 L 1137 114 L 1138 113 L 1138 111 L 1139 110 L 1139 108 L 1140 107 L 1140 105 L 1141 104 L 1141 102 L 1142 101 L 1142 99 L 1143 98 L 1143 97 L 1144 96 L 1144 94 L 1145 93 L 1145 92 L 1146 91 L 1146 90 L 1147 89 L 1147 87 L 1148 86 L 1148 85 L 1149 84 L 1149 83 L 1150 82 L 1150 81 L 1151 80 L 1151 79 L 1152 78 L 1152 77 L 1153 76 L 1153 75 L 1155 73 L 1155 72 L 1156 71 L 1156 70 L 1157 69 L 1157 68 L 1159 66 L 1159 65 L 1161 63 L 1161 62 L 1164 59 L 1164 58 L 1166 56 L 1166 55 L 1169 52 L 1169 51 L 1185 35 L 1186 35 L 1189 32 L 1190 32 L 1192 30 L 1193 30 L 1195 28 L 1196 28 L 1197 27 L 1198 27 L 1200 25 L 1201 25 L 1202 24 L 1203 24 L 1204 23 L 1205 23 L 1206 22 L 1207 22 L 1208 21 L 1210 21 L 1211 20 L 1212 20 L 1213 19 L 1215 19 L 1216 18 L 1219 18 L 1220 17 L 1223 17 L 1224 16 L 1227 16 L 1228 15 L 1238 15 L 1239 14 L 1242 14 L 1243 15 L 1251 15 L 1252 16 L 1256 16 L 1257 17 L 1260 17 L 1261 18 L 1263 18 L 1264 19 L 1265 19 L 1266 20 L 1268 20 L 1270 22 L 1271 22 L 1272 23 L 1273 23 L 1275 25 L 1276 25 L 1279 28 L 1280 28 L 1287 35 L 1287 36 L 1290 39 L 1290 40 L 1292 42 L 1292 43 L 1294 45 L 1294 46 L 1295 47 L 1295 48 L 1296 49 L 1296 50 L 1297 51 L 1297 53 L 1298 54 L 1298 55 L 1299 56 L 1299 58 L 1300 59 L 1300 61 L 1301 62 L 1301 64 L 1302 65 L 1302 67 L 1303 68 L 1303 70 L 1304 71 L 1304 73 L 1305 74 L 1305 76 L 1306 77 L 1306 80 L 1307 81 L 1307 84 L 1308 85 L 1308 88 L 1309 89 L 1309 90 L 1310 91 L 1311 90 L 1311 30 L 1309 28 L 1308 28 L 1307 27 L 1306 27 L 1305 26 L 1304 26 L 1303 25 L 1302 25 L 1301 24 L 1300 24 L 1299 23 L 1298 23 L 1297 22 L 1296 22 L 1295 21 L 1293 21 L 1292 20 L 1291 20 L 1290 19 L 1288 19 L 1287 18 L 1286 18 L 1285 17 L 1283 17 L 1282 16 L 1280 16 L 1279 15 L 1276 15 L 1275 14 L 1273 14 L 1272 13 L 1268 13 L 1267 12 L 1264 12 L 1263 11 L 1259 11 L 1258 10 L 1252 10 L 1251 9 Z M 1646 8 L 1645 9 L 1635 9 L 1634 10 L 1630 10 L 1629 11 L 1625 11 L 1624 12 L 1621 12 L 1620 13 L 1618 13 L 1617 14 L 1615 14 L 1614 15 L 1612 15 L 1611 16 L 1610 16 L 1609 17 L 1608 17 L 1607 18 L 1606 18 L 1605 19 L 1604 19 L 1603 20 L 1602 20 L 1601 21 L 1600 21 L 1599 22 L 1598 22 L 1596 24 L 1595 24 L 1593 26 L 1592 26 L 1591 27 L 1590 27 L 1587 30 L 1586 30 L 1582 34 L 1581 34 L 1568 47 L 1568 48 L 1563 53 L 1563 54 L 1561 56 L 1561 57 L 1558 60 L 1558 61 L 1556 63 L 1556 64 L 1554 66 L 1554 67 L 1553 68 L 1553 69 L 1551 71 L 1551 72 L 1550 73 L 1550 74 L 1549 75 L 1549 76 L 1547 78 L 1547 79 L 1546 80 L 1546 81 L 1545 82 L 1545 83 L 1544 84 L 1544 85 L 1543 86 L 1543 88 L 1542 89 L 1542 90 L 1541 91 L 1541 92 L 1540 93 L 1540 94 L 1539 95 L 1539 97 L 1538 98 L 1538 100 L 1537 101 L 1537 102 L 1536 103 L 1536 105 L 1535 106 L 1535 108 L 1534 109 L 1534 111 L 1533 112 L 1533 114 L 1532 115 L 1532 117 L 1531 118 L 1531 121 L 1530 122 L 1530 125 L 1529 126 L 1529 129 L 1528 130 L 1528 134 L 1527 135 L 1527 139 L 1526 140 L 1526 145 L 1525 146 L 1525 151 L 1524 152 L 1524 162 L 1523 163 L 1523 197 L 1524 198 L 1524 208 L 1525 209 L 1525 216 L 1526 217 L 1526 221 L 1527 222 L 1527 226 L 1528 227 L 1528 231 L 1529 232 L 1529 235 L 1530 236 L 1530 239 L 1531 240 L 1531 243 L 1532 244 L 1532 246 L 1533 247 L 1533 250 L 1534 251 L 1534 253 L 1535 254 L 1535 256 L 1536 257 L 1536 259 L 1537 260 L 1537 261 L 1538 262 L 1538 264 L 1539 265 L 1539 266 L 1540 267 L 1540 268 L 1541 269 L 1541 271 L 1542 272 L 1542 273 L 1543 274 L 1543 275 L 1544 276 L 1544 277 L 1545 278 L 1545 279 L 1546 280 L 1546 281 L 1547 282 L 1547 283 L 1548 284 L 1548 285 L 1550 287 L 1550 288 L 1551 289 L 1551 290 L 1552 291 L 1552 292 L 1554 294 L 1554 295 L 1555 296 L 1555 297 L 1557 299 L 1557 300 L 1560 303 L 1560 304 L 1563 307 L 1563 308 L 1567 312 L 1567 313 L 1583 329 L 1584 329 L 1587 332 L 1588 332 L 1590 334 L 1591 334 L 1593 336 L 1594 336 L 1596 338 L 1597 338 L 1598 339 L 1599 339 L 1600 340 L 1601 340 L 1602 341 L 1603 341 L 1604 342 L 1605 342 L 1606 343 L 1607 343 L 1608 344 L 1609 344 L 1610 345 L 1611 345 L 1612 346 L 1613 346 L 1614 347 L 1616 347 L 1617 348 L 1619 348 L 1620 349 L 1623 349 L 1624 350 L 1627 350 L 1628 351 L 1633 351 L 1634 352 L 1643 352 L 1644 353 L 1654 353 L 1655 352 L 1663 352 L 1664 351 L 1669 351 L 1670 350 L 1673 350 L 1674 349 L 1677 349 L 1678 348 L 1680 348 L 1681 347 L 1683 347 L 1684 346 L 1685 346 L 1686 345 L 1688 345 L 1689 344 L 1690 344 L 1691 343 L 1692 343 L 1693 342 L 1694 342 L 1695 341 L 1696 341 L 1698 339 L 1699 339 L 1700 338 L 1701 338 L 1703 336 L 1704 336 L 1705 335 L 1706 335 L 1708 333 L 1709 333 L 1712 330 L 1713 330 L 1720 323 L 1721 323 L 1721 322 L 1722 321 L 1723 321 L 1723 320 L 1725 318 L 1726 318 L 1728 316 L 1728 315 L 1732 311 L 1732 310 L 1736 306 L 1736 305 L 1739 302 L 1739 301 L 1742 298 L 1742 297 L 1743 296 L 1743 295 L 1745 293 L 1745 292 L 1747 290 L 1747 289 L 1748 288 L 1748 287 L 1749 286 L 1749 285 L 1750 284 L 1750 283 L 1751 282 L 1751 281 L 1752 280 L 1752 279 L 1753 278 L 1753 277 L 1754 276 L 1754 275 L 1755 274 L 1755 273 L 1756 272 L 1756 271 L 1757 270 L 1757 269 L 1758 268 L 1758 266 L 1759 265 L 1759 264 L 1760 263 L 1760 261 L 1761 260 L 1761 259 L 1762 258 L 1762 255 L 1763 254 L 1763 252 L 1764 251 L 1764 249 L 1765 248 L 1765 246 L 1766 245 L 1766 242 L 1767 241 L 1767 238 L 1768 237 L 1768 234 L 1769 233 L 1769 229 L 1770 228 L 1770 225 L 1771 224 L 1771 219 L 1772 218 L 1772 213 L 1773 212 L 1773 205 L 1774 204 L 1774 193 L 1775 192 L 1775 168 L 1774 167 L 1774 155 L 1773 154 L 1773 148 L 1772 147 L 1772 142 L 1771 141 L 1771 136 L 1770 135 L 1770 132 L 1769 131 L 1769 127 L 1768 126 L 1768 123 L 1767 122 L 1767 120 L 1766 119 L 1766 116 L 1765 115 L 1765 113 L 1764 112 L 1764 110 L 1763 109 L 1763 107 L 1762 106 L 1762 104 L 1761 103 L 1761 101 L 1760 100 L 1760 98 L 1759 97 L 1759 96 L 1758 95 L 1758 94 L 1757 93 L 1757 91 L 1756 90 L 1756 89 L 1755 88 L 1755 87 L 1754 86 L 1754 85 L 1753 84 L 1753 83 L 1752 82 L 1752 81 L 1751 80 L 1751 79 L 1750 78 L 1750 77 L 1749 76 L 1749 75 L 1748 74 L 1748 73 L 1746 71 L 1746 70 L 1745 69 L 1745 68 L 1743 66 L 1743 65 L 1742 64 L 1742 63 L 1739 60 L 1739 59 L 1736 56 L 1736 55 L 1733 52 L 1733 51 L 1713 31 L 1712 31 L 1709 28 L 1708 28 L 1706 26 L 1705 26 L 1703 24 L 1702 24 L 1701 23 L 1700 23 L 1698 21 L 1697 21 L 1696 20 L 1695 20 L 1694 19 L 1693 19 L 1692 18 L 1691 18 L 1690 17 L 1689 17 L 1688 16 L 1686 16 L 1685 15 L 1684 15 L 1683 14 L 1681 14 L 1680 13 L 1677 13 L 1676 12 L 1673 12 L 1672 11 L 1669 11 L 1668 10 L 1664 10 L 1663 9 L 1652 9 L 1651 8 Z M 1642 15 L 1643 14 L 1656 14 L 1657 15 L 1661 15 L 1662 16 L 1665 16 L 1666 17 L 1668 17 L 1669 18 L 1670 18 L 1671 19 L 1672 19 L 1673 20 L 1674 20 L 1675 21 L 1676 21 L 1677 22 L 1678 22 L 1679 23 L 1680 23 L 1682 25 L 1683 25 L 1685 27 L 1686 27 L 1688 29 L 1689 29 L 1704 44 L 1704 45 L 1708 49 L 1708 50 L 1710 52 L 1710 53 L 1712 55 L 1712 56 L 1714 58 L 1714 59 L 1715 60 L 1715 61 L 1717 63 L 1717 64 L 1718 65 L 1718 66 L 1719 67 L 1719 68 L 1720 69 L 1720 70 L 1721 71 L 1721 72 L 1722 73 L 1722 74 L 1723 75 L 1723 76 L 1724 77 L 1724 78 L 1725 79 L 1725 80 L 1726 81 L 1726 83 L 1727 84 L 1727 85 L 1728 86 L 1728 87 L 1729 88 L 1729 90 L 1730 91 L 1730 92 L 1731 93 L 1731 95 L 1732 96 L 1732 98 L 1733 99 L 1733 101 L 1734 102 L 1734 104 L 1735 105 L 1735 108 L 1736 109 L 1736 111 L 1737 112 L 1737 116 L 1738 117 L 1738 119 L 1739 120 L 1739 124 L 1740 125 L 1740 129 L 1741 130 L 1741 135 L 1742 136 L 1742 141 L 1743 142 L 1743 150 L 1744 151 L 1744 160 L 1745 161 L 1745 200 L 1744 201 L 1744 210 L 1743 211 L 1743 218 L 1742 219 L 1742 225 L 1741 226 L 1741 231 L 1740 232 L 1740 236 L 1739 237 L 1739 241 L 1738 242 L 1738 245 L 1737 246 L 1737 249 L 1736 250 L 1736 252 L 1735 253 L 1735 255 L 1734 256 L 1734 259 L 1733 260 L 1733 262 L 1732 263 L 1732 264 L 1731 265 L 1731 267 L 1730 268 L 1730 270 L 1729 271 L 1729 273 L 1728 274 L 1728 275 L 1727 276 L 1727 277 L 1726 278 L 1726 280 L 1725 281 L 1725 282 L 1724 283 L 1724 284 L 1723 285 L 1723 286 L 1722 287 L 1722 288 L 1721 289 L 1721 290 L 1720 291 L 1720 292 L 1719 293 L 1719 294 L 1718 295 L 1718 296 L 1717 297 L 1717 298 L 1715 300 L 1715 301 L 1714 302 L 1714 303 L 1712 305 L 1712 306 L 1710 308 L 1710 309 L 1707 312 L 1707 313 L 1702 318 L 1702 319 L 1689 332 L 1688 332 L 1685 335 L 1684 335 L 1682 337 L 1681 337 L 1680 338 L 1679 338 L 1677 340 L 1676 340 L 1675 341 L 1674 341 L 1673 342 L 1672 342 L 1671 343 L 1669 343 L 1668 344 L 1666 344 L 1665 345 L 1663 345 L 1662 346 L 1658 346 L 1657 347 L 1641 347 L 1640 346 L 1636 346 L 1635 345 L 1632 345 L 1631 344 L 1629 344 L 1628 343 L 1627 343 L 1626 342 L 1625 342 L 1624 341 L 1623 341 L 1622 340 L 1621 340 L 1620 339 L 1619 339 L 1617 337 L 1616 337 L 1614 335 L 1613 335 L 1611 333 L 1610 333 L 1593 316 L 1593 315 L 1590 312 L 1590 311 L 1587 308 L 1587 307 L 1586 306 L 1586 305 L 1584 303 L 1584 302 L 1582 300 L 1582 299 L 1580 297 L 1580 296 L 1579 295 L 1579 294 L 1578 293 L 1578 292 L 1577 291 L 1577 290 L 1576 289 L 1576 288 L 1575 287 L 1575 286 L 1574 285 L 1574 284 L 1573 283 L 1573 282 L 1572 281 L 1572 279 L 1571 278 L 1571 277 L 1570 276 L 1570 275 L 1569 274 L 1569 272 L 1568 271 L 1568 269 L 1567 268 L 1567 266 L 1566 265 L 1566 263 L 1565 262 L 1565 260 L 1564 259 L 1564 258 L 1563 257 L 1563 254 L 1562 253 L 1562 251 L 1561 250 L 1561 247 L 1560 246 L 1560 243 L 1559 242 L 1559 239 L 1558 238 L 1558 234 L 1557 233 L 1557 229 L 1556 228 L 1556 223 L 1555 222 L 1555 217 L 1554 216 L 1554 207 L 1553 206 L 1553 191 L 1552 190 L 1552 171 L 1553 170 L 1553 155 L 1554 154 L 1554 145 L 1555 144 L 1555 139 L 1556 138 L 1556 133 L 1557 132 L 1557 128 L 1558 127 L 1558 124 L 1559 123 L 1559 119 L 1560 118 L 1560 115 L 1561 114 L 1561 111 L 1562 110 L 1562 108 L 1563 107 L 1563 105 L 1564 104 L 1564 102 L 1565 101 L 1565 99 L 1566 98 L 1566 96 L 1567 95 L 1567 93 L 1568 92 L 1568 90 L 1569 89 L 1569 88 L 1570 87 L 1570 85 L 1571 84 L 1571 83 L 1572 82 L 1572 80 L 1573 79 L 1573 78 L 1574 77 L 1574 76 L 1575 75 L 1575 74 L 1576 73 L 1576 72 L 1577 71 L 1577 70 L 1578 69 L 1578 68 L 1579 67 L 1579 66 L 1580 65 L 1580 64 L 1582 62 L 1582 61 L 1584 59 L 1584 58 L 1585 57 L 1585 56 L 1587 54 L 1587 53 L 1589 51 L 1589 50 L 1592 47 L 1592 46 L 1600 38 L 1600 37 L 1605 32 L 1606 32 L 1610 28 L 1611 28 L 1613 26 L 1614 26 L 1616 24 L 1617 24 L 1619 22 L 1620 22 L 1621 21 L 1622 21 L 1623 20 L 1624 20 L 1625 19 L 1626 19 L 1627 18 L 1629 18 L 1630 17 L 1632 17 L 1633 16 L 1636 16 L 1637 15 Z M 1649 145 L 1649 147 L 1648 148 L 1648 152 L 1647 153 L 1647 155 L 1646 156 L 1646 158 L 1645 159 L 1645 160 L 1644 161 L 1644 162 L 1643 163 L 1643 164 L 1641 166 L 1641 167 L 1634 174 L 1633 174 L 1631 176 L 1629 176 L 1627 178 L 1625 178 L 1624 179 L 1621 179 L 1620 180 L 1617 180 L 1616 181 L 1614 181 L 1615 181 L 1616 182 L 1620 182 L 1621 183 L 1623 183 L 1624 184 L 1625 184 L 1626 185 L 1628 185 L 1629 186 L 1630 186 L 1632 188 L 1633 188 L 1636 191 L 1637 191 L 1639 193 L 1639 194 L 1642 197 L 1642 198 L 1644 200 L 1644 201 L 1645 202 L 1645 203 L 1646 204 L 1646 206 L 1647 207 L 1647 209 L 1648 210 L 1648 214 L 1649 215 L 1649 217 L 1649 216 L 1650 215 L 1650 211 L 1651 210 L 1651 208 L 1652 207 L 1652 205 L 1653 204 L 1653 203 L 1654 202 L 1654 200 L 1656 198 L 1656 197 L 1665 188 L 1666 188 L 1668 186 L 1669 186 L 1670 185 L 1672 185 L 1673 184 L 1674 184 L 1675 183 L 1677 183 L 1678 182 L 1681 182 L 1682 181 L 1684 181 L 1682 181 L 1681 180 L 1677 180 L 1676 179 L 1674 179 L 1673 178 L 1671 178 L 1670 177 L 1669 177 L 1668 176 L 1667 176 L 1665 174 L 1664 174 L 1662 172 L 1661 172 L 1659 170 L 1659 169 L 1656 166 L 1656 165 L 1655 164 L 1655 163 L 1654 162 L 1654 161 L 1653 160 L 1653 159 L 1652 158 L 1652 156 L 1651 155 L 1651 152 L 1650 151 L 1650 147 L 1649 146 Z M 508 8 L 507 9 L 499 9 L 498 10 L 493 10 L 492 11 L 489 11 L 488 12 L 485 12 L 484 13 L 482 13 L 481 14 L 479 14 L 478 15 L 477 15 L 476 16 L 474 16 L 473 17 L 472 17 L 471 18 L 470 18 L 469 19 L 468 19 L 467 20 L 466 20 L 465 21 L 464 21 L 463 22 L 462 22 L 461 23 L 460 23 L 457 26 L 456 26 L 454 28 L 453 28 L 451 30 L 450 30 L 445 35 L 444 35 L 433 46 L 433 47 L 428 52 L 428 53 L 425 56 L 425 57 L 422 60 L 422 61 L 420 63 L 420 64 L 419 65 L 419 66 L 417 68 L 417 69 L 415 71 L 415 72 L 414 73 L 414 74 L 413 75 L 413 76 L 412 77 L 412 78 L 411 79 L 411 80 L 410 81 L 410 82 L 409 83 L 409 84 L 408 85 L 408 86 L 407 87 L 407 88 L 406 89 L 406 90 L 405 91 L 405 92 L 404 93 L 404 95 L 403 96 L 403 97 L 402 98 L 402 100 L 401 101 L 401 102 L 400 103 L 400 105 L 399 106 L 399 108 L 398 109 L 398 111 L 397 112 L 397 114 L 396 115 L 396 117 L 395 118 L 395 121 L 394 122 L 394 125 L 393 126 L 393 129 L 392 130 L 392 134 L 391 135 L 391 139 L 390 140 L 390 144 L 389 145 L 389 152 L 388 153 L 388 163 L 387 164 L 387 199 L 388 200 L 388 209 L 389 210 L 389 217 L 390 218 L 390 222 L 391 223 L 391 227 L 392 228 L 392 232 L 393 233 L 393 236 L 394 237 L 394 239 L 395 240 L 395 243 L 396 244 L 396 247 L 397 248 L 397 250 L 398 251 L 398 252 L 399 253 L 399 255 L 400 256 L 400 258 L 401 259 L 401 261 L 402 262 L 402 263 L 403 264 L 403 266 L 404 267 L 404 268 L 405 269 L 405 271 L 406 272 L 406 273 L 407 274 L 407 275 L 408 276 L 408 277 L 409 278 L 409 279 L 410 280 L 410 281 L 411 282 L 411 283 L 412 284 L 412 285 L 413 286 L 413 287 L 414 288 L 414 289 L 416 291 L 416 292 L 417 293 L 417 294 L 419 296 L 419 297 L 421 299 L 421 300 L 424 303 L 424 304 L 427 307 L 427 308 L 431 312 L 431 313 L 445 327 L 446 327 L 451 332 L 452 332 L 454 334 L 455 334 L 457 336 L 458 336 L 460 338 L 461 338 L 462 339 L 463 339 L 464 340 L 465 340 L 466 341 L 467 341 L 469 343 L 471 343 L 472 344 L 473 344 L 474 345 L 475 345 L 476 346 L 478 346 L 479 347 L 480 347 L 481 348 L 484 348 L 485 349 L 487 349 L 488 350 L 492 350 L 493 351 L 497 351 L 498 352 L 505 352 L 506 353 L 518 353 L 519 352 L 528 352 L 529 351 L 533 351 L 534 350 L 538 350 L 539 349 L 541 349 L 542 348 L 544 348 L 545 347 L 546 347 L 547 346 L 549 346 L 550 345 L 551 345 L 552 344 L 554 344 L 555 343 L 556 343 L 558 341 L 560 341 L 562 339 L 563 339 L 564 338 L 565 338 L 567 336 L 568 336 L 570 334 L 571 334 L 573 332 L 574 332 L 578 328 L 579 328 L 594 313 L 594 312 L 597 309 L 597 308 L 601 304 L 601 303 L 603 301 L 603 300 L 605 298 L 605 297 L 607 295 L 607 294 L 608 293 L 608 292 L 610 290 L 610 289 L 611 288 L 611 287 L 613 285 L 613 284 L 614 283 L 614 282 L 615 281 L 615 280 L 616 279 L 616 278 L 617 277 L 617 276 L 618 275 L 618 274 L 619 273 L 619 271 L 620 270 L 620 269 L 621 268 L 621 267 L 622 266 L 622 264 L 623 263 L 623 262 L 624 261 L 624 259 L 625 258 L 625 256 L 626 255 L 626 253 L 627 252 L 627 251 L 628 250 L 628 247 L 629 246 L 629 244 L 630 243 L 630 240 L 631 239 L 631 237 L 632 236 L 632 233 L 633 232 L 633 228 L 634 227 L 634 223 L 635 222 L 635 217 L 636 216 L 636 209 L 637 208 L 637 199 L 638 198 L 638 164 L 637 163 L 637 153 L 636 152 L 636 146 L 635 145 L 635 140 L 634 139 L 634 135 L 633 134 L 633 130 L 632 129 L 632 126 L 631 125 L 631 122 L 630 121 L 630 119 L 629 118 L 629 115 L 628 114 L 628 112 L 627 111 L 627 109 L 626 108 L 626 106 L 625 105 L 625 103 L 624 102 L 624 100 L 623 99 L 623 98 L 622 97 L 622 95 L 621 94 L 621 93 L 620 92 L 620 91 L 619 90 L 619 88 L 618 87 L 618 86 L 617 85 L 617 84 L 616 83 L 616 82 L 615 81 L 615 80 L 614 79 L 614 78 L 613 77 L 613 76 L 611 74 L 611 73 L 610 72 L 610 71 L 609 70 L 609 69 L 607 67 L 607 66 L 605 64 L 605 63 L 603 61 L 603 60 L 601 58 L 601 57 L 598 54 L 598 53 L 593 48 L 593 47 L 581 35 L 580 35 L 576 31 L 575 31 L 572 28 L 571 28 L 568 25 L 567 25 L 565 23 L 564 23 L 563 22 L 562 22 L 561 21 L 560 21 L 559 20 L 558 20 L 557 19 L 556 19 L 555 18 L 554 18 L 553 17 L 552 17 L 551 16 L 550 16 L 549 15 L 547 15 L 546 14 L 545 14 L 544 13 L 541 13 L 540 12 L 538 12 L 537 11 L 533 11 L 532 10 L 527 10 L 526 9 L 517 9 L 516 8 Z M 506 15 L 507 14 L 520 14 L 521 15 L 525 15 L 526 16 L 528 16 L 529 17 L 531 17 L 532 18 L 534 18 L 535 19 L 536 19 L 537 20 L 538 20 L 539 21 L 540 21 L 541 22 L 542 22 L 543 23 L 544 23 L 546 25 L 547 25 L 549 27 L 550 27 L 554 31 L 555 31 L 564 40 L 564 41 L 569 46 L 569 47 L 572 50 L 572 51 L 574 53 L 574 54 L 576 56 L 576 57 L 578 59 L 578 60 L 580 62 L 580 63 L 581 64 L 581 65 L 582 66 L 582 67 L 583 68 L 583 69 L 584 70 L 584 71 L 586 73 L 586 75 L 588 77 L 588 79 L 589 80 L 589 81 L 590 82 L 590 83 L 591 84 L 591 86 L 592 87 L 592 89 L 593 90 L 593 91 L 594 92 L 594 94 L 595 95 L 595 97 L 596 98 L 596 100 L 597 101 L 597 103 L 598 104 L 598 106 L 599 107 L 599 110 L 600 111 L 600 113 L 601 114 L 601 117 L 602 118 L 602 122 L 603 123 L 603 127 L 604 128 L 604 132 L 605 133 L 605 138 L 606 139 L 606 146 L 607 147 L 607 155 L 608 156 L 608 170 L 609 171 L 609 193 L 608 194 L 608 205 L 607 206 L 607 215 L 606 216 L 606 222 L 605 223 L 605 229 L 604 230 L 604 234 L 603 235 L 603 238 L 602 239 L 602 243 L 601 244 L 601 247 L 600 248 L 600 251 L 599 252 L 599 254 L 598 255 L 598 257 L 597 258 L 597 261 L 596 262 L 596 264 L 595 265 L 595 266 L 594 267 L 594 269 L 593 270 L 593 272 L 592 273 L 592 274 L 591 275 L 591 277 L 590 278 L 590 279 L 589 280 L 589 281 L 588 282 L 588 283 L 587 284 L 587 285 L 586 286 L 586 287 L 585 288 L 585 290 L 584 291 L 584 292 L 582 294 L 582 295 L 581 296 L 581 297 L 580 298 L 580 299 L 578 301 L 578 302 L 576 304 L 576 305 L 574 307 L 574 308 L 572 310 L 572 311 L 569 314 L 569 315 L 563 321 L 563 322 L 556 329 L 555 329 L 550 334 L 549 334 L 547 336 L 546 336 L 544 338 L 543 338 L 541 340 L 540 340 L 539 341 L 538 341 L 537 342 L 536 342 L 535 343 L 533 343 L 532 344 L 530 344 L 529 345 L 527 345 L 526 346 L 522 346 L 521 347 L 504 347 L 503 346 L 500 346 L 499 345 L 497 345 L 496 344 L 494 344 L 493 343 L 491 343 L 490 342 L 489 342 L 488 341 L 487 341 L 486 340 L 485 340 L 484 339 L 483 339 L 481 337 L 480 337 L 478 335 L 477 335 L 474 332 L 473 332 L 457 316 L 457 315 L 453 311 L 453 310 L 451 308 L 451 307 L 449 305 L 449 304 L 447 302 L 447 301 L 445 299 L 445 298 L 444 297 L 444 296 L 442 294 L 442 293 L 441 292 L 441 291 L 440 290 L 440 289 L 439 288 L 439 286 L 438 285 L 438 284 L 437 283 L 437 282 L 436 281 L 436 280 L 435 279 L 435 277 L 434 276 L 434 275 L 433 274 L 433 273 L 432 272 L 432 270 L 431 269 L 431 268 L 430 267 L 430 265 L 429 264 L 429 262 L 428 261 L 428 259 L 427 258 L 427 255 L 426 254 L 426 252 L 425 251 L 425 248 L 424 247 L 424 244 L 423 243 L 423 240 L 422 239 L 422 236 L 421 235 L 421 231 L 420 230 L 420 225 L 419 224 L 419 218 L 418 217 L 418 208 L 417 207 L 417 197 L 416 196 L 416 166 L 417 165 L 417 154 L 418 153 L 418 145 L 419 144 L 419 138 L 420 137 L 420 132 L 421 131 L 421 128 L 422 127 L 422 123 L 423 122 L 423 119 L 424 118 L 424 115 L 425 114 L 425 112 L 426 111 L 426 108 L 427 107 L 427 105 L 428 104 L 428 101 L 429 100 L 429 98 L 430 97 L 430 95 L 431 94 L 431 92 L 432 91 L 432 90 L 433 89 L 433 87 L 434 86 L 434 85 L 435 84 L 435 83 L 436 82 L 436 81 L 437 80 L 437 78 L 438 77 L 438 76 L 439 75 L 439 74 L 440 73 L 440 72 L 441 71 L 441 70 L 442 69 L 442 68 L 443 67 L 443 66 L 444 65 L 444 64 L 445 63 L 445 62 L 447 60 L 447 59 L 449 57 L 449 56 L 451 54 L 451 53 L 453 51 L 453 50 L 456 47 L 456 46 L 461 41 L 461 40 L 469 32 L 470 32 L 474 28 L 475 28 L 478 25 L 479 25 L 480 24 L 481 24 L 483 22 L 484 22 L 485 21 L 486 21 L 487 20 L 488 20 L 489 19 L 490 19 L 491 18 L 492 18 L 493 17 L 495 17 L 496 16 L 499 16 L 500 15 Z M 513 145 L 512 146 L 512 151 L 511 152 L 511 155 L 510 156 L 510 158 L 509 159 L 509 160 L 508 161 L 508 162 L 507 163 L 507 164 L 506 165 L 506 166 L 503 169 L 503 170 L 502 171 L 501 171 L 498 174 L 497 174 L 496 175 L 495 175 L 493 177 L 492 177 L 491 178 L 489 178 L 488 179 L 486 179 L 485 180 L 482 180 L 481 181 L 477 181 L 479 181 L 480 182 L 484 182 L 485 183 L 487 183 L 488 184 L 490 184 L 491 185 L 492 185 L 493 186 L 494 186 L 495 187 L 496 187 L 499 190 L 500 190 L 503 193 L 503 194 L 506 197 L 506 198 L 507 199 L 507 200 L 508 201 L 508 202 L 509 203 L 509 204 L 510 205 L 510 207 L 511 208 L 511 212 L 512 213 L 512 216 L 513 217 L 513 215 L 514 214 L 514 211 L 515 210 L 515 207 L 516 206 L 516 204 L 517 203 L 517 202 L 518 201 L 518 200 L 519 199 L 519 198 L 523 194 L 523 193 L 526 190 L 527 190 L 529 188 L 530 188 L 532 186 L 533 186 L 534 185 L 535 185 L 536 184 L 538 184 L 539 183 L 541 183 L 542 182 L 546 182 L 547 181 L 546 181 L 545 180 L 541 180 L 540 179 L 538 179 L 537 178 L 535 178 L 534 177 L 533 177 L 532 176 L 531 176 L 529 174 L 528 174 L 526 172 L 525 172 L 523 170 L 523 169 L 520 166 L 520 165 L 518 163 L 518 162 L 517 161 L 517 159 L 516 158 L 516 157 L 515 156 L 515 153 L 514 152 L 514 149 L 513 148 Z" fill="#000000" fill-rule="evenodd"/>
</svg>
