<svg xmlns="http://www.w3.org/2000/svg" width="1923" height="361" viewBox="0 0 1923 361" version="1.1">
  <path d="M 1071 129 L 1071 133 L 1070 134 L 1070 136 L 1069 137 L 1069 138 L 1068 139 L 1068 140 L 1067 141 L 1067 142 L 1066 143 L 1066 144 L 1060 150 L 1059 150 L 1057 152 L 1056 152 L 1055 153 L 1054 153 L 1053 154 L 1051 154 L 1050 155 L 1046 155 L 1047 155 L 1048 156 L 1051 156 L 1052 157 L 1054 157 L 1055 158 L 1056 158 L 1058 160 L 1059 160 L 1067 168 L 1067 169 L 1068 170 L 1068 171 L 1069 172 L 1069 174 L 1070 175 L 1070 177 L 1071 178 L 1071 181 L 1071 178 L 1072 177 L 1072 175 L 1073 174 L 1073 172 L 1074 171 L 1074 170 L 1075 169 L 1075 168 L 1078 165 L 1078 164 L 1081 161 L 1082 161 L 1084 159 L 1085 159 L 1086 158 L 1087 158 L 1088 157 L 1089 157 L 1090 156 L 1092 156 L 1093 155 L 1095 155 L 1091 155 L 1090 154 L 1088 154 L 1087 153 L 1086 153 L 1085 152 L 1084 152 L 1081 149 L 1080 149 L 1078 147 L 1078 146 L 1075 143 L 1075 142 L 1074 141 L 1074 140 L 1073 139 L 1073 137 L 1072 136 L 1072 134 L 1071 133 Z M 1446 23 L 1447 23 L 1452 28 L 1452 29 L 1453 30 L 1453 32 L 1454 33 L 1454 36 L 1455 37 L 1455 279 L 1454 280 L 1454 281 L 1453 282 L 1453 283 L 1449 287 L 1448 287 L 1447 288 L 1446 288 L 1471 288 L 1470 288 L 1469 287 L 1468 287 L 1462 281 L 1462 280 L 1461 279 L 1461 276 L 1460 275 L 1460 77 L 1461 76 L 1463 78 L 1463 83 L 1464 84 L 1464 88 L 1465 89 L 1465 93 L 1466 94 L 1466 98 L 1467 99 L 1467 103 L 1468 104 L 1468 109 L 1469 110 L 1469 114 L 1470 115 L 1470 119 L 1471 120 L 1471 123 L 1472 124 L 1472 128 L 1473 129 L 1473 133 L 1474 134 L 1474 139 L 1475 140 L 1475 143 L 1476 144 L 1476 148 L 1477 149 L 1477 154 L 1478 155 L 1478 159 L 1479 160 L 1479 164 L 1480 165 L 1480 169 L 1481 170 L 1481 175 L 1482 176 L 1482 181 L 1483 182 L 1483 186 L 1484 187 L 1484 191 L 1485 192 L 1485 197 L 1486 198 L 1486 202 L 1487 203 L 1487 206 L 1488 207 L 1488 211 L 1489 212 L 1489 216 L 1490 217 L 1490 221 L 1491 222 L 1491 226 L 1492 227 L 1492 232 L 1493 233 L 1493 237 L 1494 238 L 1494 243 L 1495 244 L 1495 248 L 1496 249 L 1496 254 L 1497 255 L 1497 259 L 1498 260 L 1498 265 L 1499 266 L 1499 270 L 1500 271 L 1500 275 L 1501 276 L 1501 280 L 1502 281 L 1502 285 L 1503 286 L 1503 288 L 1512 288 L 1512 287 L 1513 286 L 1513 281 L 1514 280 L 1514 275 L 1515 274 L 1515 269 L 1516 268 L 1516 262 L 1517 261 L 1517 255 L 1518 254 L 1518 249 L 1519 248 L 1519 243 L 1520 242 L 1520 237 L 1521 236 L 1521 232 L 1522 231 L 1522 226 L 1523 225 L 1523 220 L 1524 219 L 1524 214 L 1525 213 L 1525 208 L 1526 207 L 1526 203 L 1527 202 L 1527 198 L 1528 197 L 1528 192 L 1529 191 L 1529 187 L 1530 186 L 1530 182 L 1531 181 L 1531 176 L 1532 175 L 1532 171 L 1533 170 L 1533 165 L 1534 164 L 1534 160 L 1535 159 L 1535 155 L 1536 154 L 1536 150 L 1537 149 L 1537 145 L 1538 144 L 1538 140 L 1539 139 L 1539 134 L 1540 133 L 1540 129 L 1541 128 L 1541 124 L 1542 123 L 1542 119 L 1543 118 L 1543 113 L 1544 112 L 1544 108 L 1545 107 L 1545 104 L 1546 103 L 1546 98 L 1547 97 L 1547 93 L 1548 92 L 1548 88 L 1549 87 L 1549 82 L 1550 81 L 1550 77 L 1551 76 L 1551 71 L 1552 70 L 1553 70 L 1554 71 L 1554 276 L 1553 277 L 1553 280 L 1552 281 L 1552 282 L 1551 283 L 1551 284 L 1548 287 L 1547 287 L 1546 288 L 1580 288 L 1581 287 L 1582 287 L 1583 288 L 1584 288 L 1583 287 L 1582 287 L 1579 284 L 1579 283 L 1578 282 L 1578 281 L 1577 280 L 1577 36 L 1578 35 L 1578 32 L 1579 31 L 1579 29 L 1581 27 L 1581 26 L 1584 23 L 1585 23 L 1556 23 L 1555 24 L 1555 28 L 1554 29 L 1554 33 L 1553 34 L 1553 40 L 1552 41 L 1552 45 L 1551 46 L 1551 50 L 1550 51 L 1550 56 L 1549 57 L 1549 62 L 1548 63 L 1548 67 L 1547 68 L 1547 73 L 1546 74 L 1546 79 L 1545 80 L 1545 85 L 1544 86 L 1544 90 L 1543 91 L 1543 95 L 1542 96 L 1542 101 L 1541 102 L 1541 106 L 1540 107 L 1540 111 L 1539 112 L 1539 117 L 1538 118 L 1538 122 L 1537 123 L 1537 127 L 1536 128 L 1536 132 L 1535 133 L 1535 137 L 1534 138 L 1534 143 L 1533 144 L 1533 147 L 1532 148 L 1532 153 L 1531 154 L 1531 159 L 1530 160 L 1530 164 L 1529 165 L 1529 169 L 1528 170 L 1528 175 L 1527 176 L 1527 180 L 1526 181 L 1526 186 L 1525 187 L 1525 191 L 1524 192 L 1524 196 L 1523 197 L 1523 201 L 1522 202 L 1522 207 L 1521 208 L 1521 212 L 1520 213 L 1520 218 L 1519 219 L 1519 223 L 1518 224 L 1518 228 L 1517 229 L 1516 228 L 1516 227 L 1515 226 L 1515 222 L 1514 221 L 1514 217 L 1513 216 L 1513 211 L 1512 210 L 1512 207 L 1511 206 L 1511 202 L 1510 201 L 1510 196 L 1509 195 L 1509 191 L 1508 190 L 1508 186 L 1507 185 L 1507 180 L 1506 179 L 1506 175 L 1505 174 L 1505 170 L 1504 169 L 1504 165 L 1503 164 L 1503 160 L 1502 159 L 1502 155 L 1501 154 L 1501 150 L 1500 149 L 1500 145 L 1499 144 L 1499 140 L 1498 139 L 1498 134 L 1497 133 L 1497 129 L 1496 128 L 1496 124 L 1495 123 L 1495 118 L 1494 117 L 1494 114 L 1493 113 L 1493 109 L 1492 108 L 1492 103 L 1491 102 L 1491 98 L 1490 97 L 1490 93 L 1489 92 L 1489 88 L 1488 87 L 1488 82 L 1487 81 L 1487 77 L 1486 76 L 1486 72 L 1485 71 L 1485 67 L 1484 66 L 1484 61 L 1483 60 L 1483 56 L 1482 55 L 1482 51 L 1481 50 L 1481 46 L 1480 45 L 1480 40 L 1479 39 L 1479 35 L 1478 34 L 1478 30 L 1477 29 L 1477 24 L 1476 23 Z M 777 23 L 782 28 L 782 29 L 783 30 L 783 32 L 784 33 L 784 279 L 783 280 L 783 281 L 782 282 L 782 283 L 777 288 L 885 288 L 885 259 L 886 258 L 885 259 L 885 261 L 884 262 L 884 264 L 883 265 L 883 266 L 882 267 L 882 268 L 881 269 L 881 270 L 878 273 L 878 274 L 874 278 L 873 278 L 871 280 L 870 280 L 869 281 L 868 281 L 867 282 L 865 282 L 864 283 L 861 283 L 860 284 L 809 284 L 808 283 L 808 273 L 807 272 L 807 255 L 808 254 L 808 244 L 807 243 L 807 224 L 808 223 L 808 210 L 807 209 L 807 186 L 808 185 L 808 157 L 809 156 L 834 156 L 835 157 L 839 157 L 840 158 L 842 158 L 843 159 L 844 159 L 846 161 L 847 161 L 850 164 L 850 165 L 852 167 L 852 168 L 853 169 L 853 170 L 853 141 L 853 142 L 852 143 L 852 144 L 850 146 L 850 147 L 847 150 L 846 150 L 844 152 L 842 152 L 841 153 L 838 153 L 837 154 L 809 154 L 808 153 L 808 27 L 809 26 L 860 26 L 861 27 L 864 27 L 865 28 L 867 28 L 868 29 L 870 29 L 871 30 L 872 30 L 874 32 L 875 32 L 880 37 L 880 38 L 882 40 L 882 41 L 883 42 L 883 43 L 884 44 L 884 47 L 885 48 L 885 50 L 885 23 Z M 634 23 L 635 23 L 642 30 L 642 32 L 643 33 L 643 35 L 644 36 L 644 38 L 645 39 L 645 278 L 644 279 L 644 281 L 638 287 L 637 287 L 636 288 L 661 288 L 660 288 L 659 287 L 658 287 L 657 286 L 656 286 L 653 283 L 653 282 L 652 281 L 652 280 L 651 279 L 651 277 L 650 276 L 650 68 L 651 67 L 652 68 L 652 69 L 653 70 L 653 72 L 654 73 L 654 75 L 655 76 L 655 78 L 656 79 L 656 81 L 657 82 L 657 84 L 658 85 L 658 87 L 659 88 L 659 90 L 660 91 L 660 93 L 661 94 L 661 96 L 662 97 L 662 99 L 663 100 L 663 102 L 664 103 L 664 104 L 665 105 L 665 107 L 666 108 L 666 110 L 667 111 L 667 113 L 668 114 L 668 116 L 669 117 L 669 119 L 670 120 L 670 122 L 671 123 L 671 125 L 672 126 L 672 128 L 673 129 L 673 130 L 674 131 L 674 133 L 675 134 L 675 136 L 676 137 L 676 139 L 677 140 L 677 142 L 678 143 L 678 145 L 679 146 L 679 148 L 680 149 L 680 151 L 681 152 L 681 154 L 682 155 L 682 156 L 683 157 L 683 159 L 684 160 L 684 162 L 685 163 L 685 165 L 686 166 L 686 168 L 687 169 L 687 171 L 688 172 L 688 174 L 689 175 L 689 176 L 690 177 L 690 179 L 691 180 L 691 182 L 692 183 L 692 185 L 693 186 L 693 188 L 694 189 L 694 191 L 695 192 L 695 194 L 696 195 L 696 197 L 697 198 L 697 199 L 698 200 L 698 202 L 699 203 L 699 205 L 700 206 L 700 208 L 701 209 L 701 211 L 702 212 L 702 214 L 703 215 L 703 217 L 704 218 L 704 220 L 705 221 L 705 222 L 706 223 L 706 226 L 707 227 L 707 228 L 708 229 L 708 231 L 709 232 L 709 234 L 710 235 L 710 237 L 711 238 L 711 240 L 712 241 L 712 243 L 713 244 L 713 246 L 714 247 L 714 249 L 715 250 L 715 252 L 716 253 L 716 255 L 717 256 L 717 258 L 718 259 L 718 261 L 719 262 L 719 264 L 720 265 L 720 267 L 721 268 L 721 269 L 722 270 L 722 272 L 723 273 L 723 275 L 724 276 L 724 278 L 725 279 L 725 281 L 726 282 L 726 284 L 727 285 L 727 287 L 728 288 L 741 288 L 741 34 L 742 33 L 742 31 L 743 30 L 743 29 L 744 28 L 744 27 L 746 25 L 747 25 L 749 23 L 750 23 L 727 23 L 728 24 L 729 24 L 734 29 L 734 30 L 735 31 L 735 32 L 736 33 L 736 233 L 735 234 L 734 233 L 734 232 L 733 231 L 733 228 L 732 227 L 732 225 L 731 224 L 731 223 L 730 222 L 730 220 L 729 219 L 729 217 L 728 216 L 728 214 L 727 213 L 727 211 L 726 210 L 726 209 L 725 208 L 725 206 L 724 205 L 724 203 L 723 202 L 723 200 L 722 199 L 722 197 L 721 196 L 721 194 L 720 193 L 720 191 L 719 190 L 719 188 L 718 187 L 718 185 L 717 184 L 717 182 L 716 181 L 716 179 L 715 178 L 715 176 L 714 175 L 714 174 L 713 173 L 713 171 L 712 170 L 712 168 L 711 167 L 711 165 L 710 164 L 710 162 L 709 161 L 709 159 L 708 158 L 708 157 L 707 156 L 707 154 L 706 153 L 706 151 L 705 150 L 705 148 L 704 147 L 704 145 L 703 144 L 703 143 L 702 142 L 702 140 L 701 139 L 701 137 L 700 136 L 700 134 L 699 133 L 699 131 L 698 130 L 698 128 L 697 127 L 697 126 L 696 125 L 696 123 L 695 122 L 695 120 L 694 119 L 694 117 L 693 116 L 693 114 L 692 113 L 692 111 L 691 110 L 691 108 L 690 107 L 690 105 L 689 104 L 689 103 L 688 102 L 688 100 L 687 99 L 687 97 L 686 96 L 686 94 L 685 93 L 685 91 L 684 90 L 684 88 L 683 87 L 683 85 L 682 84 L 682 82 L 681 81 L 681 80 L 680 79 L 680 77 L 679 76 L 679 74 L 678 73 L 678 71 L 677 70 L 677 69 L 676 68 L 676 65 L 675 64 L 675 63 L 674 62 L 674 60 L 673 59 L 673 57 L 672 56 L 672 54 L 671 53 L 671 51 L 670 50 L 670 48 L 669 47 L 669 45 L 668 44 L 668 42 L 667 41 L 667 39 L 666 38 L 666 36 L 665 35 L 665 33 L 664 32 L 664 31 L 663 30 L 663 28 L 662 27 L 662 25 L 661 24 L 661 23 Z M 503 23 L 508 28 L 508 29 L 509 30 L 509 31 L 510 32 L 510 39 L 511 40 L 511 91 L 510 92 L 511 93 L 511 184 L 510 185 L 510 191 L 511 192 L 511 275 L 510 276 L 510 279 L 509 280 L 509 282 L 507 284 L 507 285 L 506 286 L 505 286 L 503 288 L 611 288 L 612 287 L 612 267 L 611 266 L 612 265 L 612 257 L 612 258 L 611 259 L 611 262 L 610 263 L 610 264 L 609 265 L 609 267 L 607 269 L 607 270 L 605 272 L 605 273 L 600 278 L 599 278 L 597 280 L 596 280 L 595 281 L 594 281 L 593 282 L 591 282 L 590 283 L 588 283 L 587 284 L 535 284 L 534 283 L 534 157 L 535 156 L 560 156 L 561 157 L 565 157 L 566 158 L 568 158 L 570 160 L 571 160 L 576 165 L 576 166 L 577 167 L 577 169 L 578 170 L 578 141 L 578 142 L 577 143 L 577 144 L 575 146 L 575 147 L 573 149 L 572 149 L 569 152 L 567 152 L 566 153 L 563 153 L 562 154 L 535 154 L 534 153 L 534 27 L 535 26 L 586 26 L 587 27 L 591 27 L 592 28 L 594 28 L 595 29 L 597 29 L 598 30 L 599 30 L 602 33 L 603 33 L 605 35 L 605 36 L 607 38 L 607 39 L 609 41 L 609 43 L 610 44 L 610 45 L 611 46 L 611 50 L 612 49 L 612 23 Z M 436 23 L 437 24 L 438 24 L 440 26 L 440 27 L 441 28 L 441 29 L 442 30 L 442 33 L 443 34 L 443 279 L 442 280 L 442 282 L 441 283 L 441 284 L 438 287 L 437 287 L 436 288 L 475 288 L 474 288 L 473 287 L 472 287 L 470 285 L 470 284 L 468 282 L 468 281 L 467 280 L 467 277 L 466 276 L 466 36 L 467 35 L 467 31 L 468 30 L 468 29 L 469 28 L 469 27 L 472 24 L 473 24 L 474 23 L 475 23 Z M 268 23 L 269 23 L 270 24 L 271 24 L 272 25 L 272 26 L 274 28 L 274 29 L 275 30 L 275 32 L 276 33 L 276 240 L 277 241 L 277 245 L 278 246 L 278 249 L 279 250 L 279 252 L 280 253 L 280 254 L 281 255 L 281 257 L 282 258 L 282 259 L 283 260 L 283 261 L 285 263 L 285 264 L 287 266 L 287 267 L 297 277 L 298 277 L 300 279 L 301 279 L 303 281 L 304 281 L 305 282 L 306 282 L 307 283 L 308 283 L 309 284 L 310 284 L 311 285 L 313 285 L 314 286 L 316 286 L 317 287 L 319 287 L 320 288 L 323 288 L 324 289 L 329 289 L 330 290 L 349 290 L 350 289 L 355 289 L 356 288 L 359 288 L 360 287 L 362 287 L 363 286 L 364 286 L 365 285 L 367 285 L 368 284 L 369 284 L 371 282 L 372 282 L 373 281 L 374 281 L 376 279 L 377 279 L 385 271 L 385 270 L 387 268 L 387 267 L 389 265 L 389 264 L 391 262 L 391 261 L 392 260 L 392 258 L 393 257 L 393 256 L 394 255 L 394 253 L 395 252 L 395 250 L 396 249 L 396 245 L 397 244 L 397 238 L 398 237 L 398 33 L 399 32 L 399 30 L 400 29 L 400 28 L 404 24 L 405 24 L 406 23 L 407 23 L 383 23 L 384 23 L 385 24 L 386 24 L 391 29 L 391 30 L 392 31 L 392 33 L 393 34 L 393 237 L 392 238 L 392 244 L 391 245 L 391 248 L 390 249 L 390 251 L 389 252 L 389 254 L 388 255 L 388 256 L 387 257 L 387 258 L 386 259 L 386 260 L 385 261 L 385 262 L 384 263 L 384 264 L 381 267 L 381 268 L 375 274 L 374 274 L 370 278 L 369 278 L 367 280 L 366 280 L 365 281 L 364 281 L 363 282 L 361 282 L 360 283 L 358 283 L 357 284 L 354 284 L 353 285 L 335 285 L 334 284 L 331 284 L 330 283 L 329 283 L 328 282 L 326 282 L 325 281 L 324 281 L 322 279 L 321 279 L 320 278 L 319 278 L 315 274 L 314 274 L 312 272 L 312 271 L 308 267 L 308 266 L 306 264 L 306 263 L 305 262 L 305 261 L 304 260 L 304 259 L 303 258 L 303 257 L 302 256 L 302 254 L 301 253 L 301 250 L 300 249 L 300 244 L 299 243 L 299 33 L 300 32 L 300 30 L 301 29 L 301 28 L 305 24 L 306 24 L 307 23 Z M 1683 21 L 1682 22 L 1679 22 L 1678 23 L 1675 23 L 1674 24 L 1673 24 L 1672 25 L 1670 25 L 1669 26 L 1668 26 L 1667 27 L 1666 27 L 1665 28 L 1664 28 L 1663 29 L 1662 29 L 1661 30 L 1660 30 L 1658 32 L 1657 32 L 1653 36 L 1652 36 L 1638 50 L 1638 51 L 1635 54 L 1635 55 L 1632 58 L 1632 59 L 1630 61 L 1630 62 L 1629 63 L 1629 64 L 1627 66 L 1627 67 L 1626 68 L 1626 69 L 1625 70 L 1625 71 L 1624 72 L 1624 73 L 1623 74 L 1623 75 L 1622 76 L 1622 77 L 1621 78 L 1621 79 L 1620 80 L 1620 81 L 1619 82 L 1619 84 L 1618 85 L 1618 86 L 1617 87 L 1617 89 L 1616 90 L 1616 92 L 1615 93 L 1615 95 L 1614 96 L 1614 98 L 1613 99 L 1613 101 L 1612 102 L 1612 105 L 1611 106 L 1611 109 L 1610 110 L 1610 114 L 1609 115 L 1609 119 L 1608 120 L 1608 125 L 1607 126 L 1607 133 L 1606 134 L 1606 143 L 1605 144 L 1605 146 L 1606 147 L 1605 148 L 1605 163 L 1606 164 L 1606 177 L 1607 178 L 1607 185 L 1608 186 L 1608 191 L 1609 192 L 1609 196 L 1610 197 L 1610 201 L 1611 202 L 1611 205 L 1612 206 L 1612 209 L 1613 210 L 1613 212 L 1614 213 L 1614 215 L 1615 216 L 1615 218 L 1616 219 L 1616 221 L 1617 222 L 1617 224 L 1618 225 L 1618 226 L 1619 227 L 1619 229 L 1620 230 L 1620 231 L 1621 232 L 1621 233 L 1622 234 L 1622 235 L 1623 236 L 1623 237 L 1624 238 L 1624 239 L 1625 240 L 1625 241 L 1626 242 L 1626 243 L 1627 244 L 1627 245 L 1629 247 L 1629 248 L 1630 249 L 1630 250 L 1633 253 L 1633 254 L 1636 257 L 1636 258 L 1641 263 L 1641 264 L 1649 272 L 1650 272 L 1653 275 L 1654 275 L 1657 278 L 1658 278 L 1660 280 L 1661 280 L 1662 281 L 1663 281 L 1664 282 L 1665 282 L 1666 283 L 1667 283 L 1668 284 L 1669 284 L 1670 285 L 1671 285 L 1672 286 L 1674 286 L 1675 287 L 1678 287 L 1679 288 L 1682 288 L 1683 289 L 1692 289 L 1693 290 L 1694 289 L 1702 289 L 1703 288 L 1707 288 L 1708 287 L 1711 287 L 1712 286 L 1714 286 L 1715 285 L 1717 285 L 1718 284 L 1719 284 L 1720 283 L 1721 283 L 1722 282 L 1723 282 L 1724 281 L 1725 281 L 1726 280 L 1727 280 L 1729 278 L 1730 278 L 1734 274 L 1735 274 L 1748 261 L 1748 260 L 1751 257 L 1751 256 L 1754 253 L 1754 252 L 1756 250 L 1756 249 L 1758 247 L 1758 246 L 1759 245 L 1759 244 L 1760 243 L 1760 242 L 1761 241 L 1761 240 L 1762 239 L 1762 238 L 1763 237 L 1763 236 L 1764 235 L 1764 233 L 1765 232 L 1765 231 L 1766 230 L 1766 228 L 1767 227 L 1767 226 L 1768 225 L 1768 224 L 1769 223 L 1769 221 L 1770 220 L 1770 218 L 1771 217 L 1771 216 L 1772 215 L 1772 212 L 1773 211 L 1773 209 L 1774 208 L 1774 205 L 1775 204 L 1775 201 L 1776 200 L 1776 196 L 1777 195 L 1777 190 L 1778 189 L 1778 183 L 1779 182 L 1779 172 L 1780 171 L 1780 138 L 1779 137 L 1779 129 L 1778 128 L 1778 123 L 1777 122 L 1777 117 L 1776 116 L 1776 112 L 1775 111 L 1775 108 L 1774 107 L 1774 104 L 1773 103 L 1773 100 L 1772 99 L 1772 97 L 1771 96 L 1771 94 L 1770 93 L 1770 91 L 1769 90 L 1769 88 L 1768 87 L 1768 86 L 1767 85 L 1767 83 L 1766 82 L 1766 81 L 1765 80 L 1765 79 L 1764 78 L 1764 77 L 1763 76 L 1763 75 L 1762 74 L 1762 73 L 1761 72 L 1761 71 L 1760 70 L 1760 69 L 1759 68 L 1759 67 L 1758 66 L 1758 65 L 1756 63 L 1756 62 L 1755 61 L 1755 60 L 1753 58 L 1753 57 L 1750 54 L 1750 53 L 1747 50 L 1747 49 L 1743 45 L 1743 44 L 1739 40 L 1738 40 L 1733 35 L 1732 35 L 1729 32 L 1728 32 L 1726 30 L 1725 30 L 1724 29 L 1723 29 L 1722 28 L 1721 28 L 1720 27 L 1719 27 L 1718 26 L 1717 26 L 1716 25 L 1715 25 L 1714 24 L 1712 24 L 1711 23 L 1708 23 L 1707 22 L 1704 22 L 1703 21 Z M 1690 24 L 1691 23 L 1695 23 L 1696 24 L 1701 24 L 1702 25 L 1704 25 L 1705 26 L 1707 26 L 1708 27 L 1709 27 L 1710 28 L 1711 28 L 1713 30 L 1714 30 L 1726 42 L 1726 43 L 1729 46 L 1729 47 L 1731 49 L 1731 50 L 1732 51 L 1732 52 L 1734 54 L 1734 55 L 1735 56 L 1735 57 L 1736 58 L 1736 59 L 1737 60 L 1737 61 L 1738 62 L 1738 63 L 1739 64 L 1739 66 L 1740 67 L 1740 68 L 1741 69 L 1741 70 L 1742 71 L 1742 72 L 1743 73 L 1743 75 L 1744 76 L 1744 78 L 1745 79 L 1745 81 L 1746 82 L 1746 84 L 1747 85 L 1747 87 L 1748 88 L 1748 91 L 1749 92 L 1749 95 L 1750 96 L 1750 99 L 1751 100 L 1751 103 L 1752 104 L 1752 108 L 1753 109 L 1753 115 L 1754 116 L 1754 121 L 1755 122 L 1755 130 L 1756 131 L 1756 145 L 1757 146 L 1757 166 L 1756 167 L 1756 183 L 1755 184 L 1755 192 L 1754 193 L 1754 198 L 1753 199 L 1753 204 L 1752 205 L 1752 208 L 1751 209 L 1751 213 L 1750 214 L 1750 216 L 1749 217 L 1749 220 L 1748 221 L 1748 223 L 1747 224 L 1747 227 L 1746 228 L 1746 230 L 1745 231 L 1745 233 L 1744 234 L 1744 236 L 1743 237 L 1743 238 L 1742 239 L 1742 240 L 1741 241 L 1741 243 L 1740 244 L 1740 245 L 1739 246 L 1739 248 L 1738 249 L 1738 250 L 1737 251 L 1737 252 L 1736 253 L 1736 254 L 1734 256 L 1734 257 L 1732 259 L 1732 260 L 1731 261 L 1731 262 L 1729 264 L 1729 265 L 1725 269 L 1725 270 L 1717 278 L 1716 278 L 1714 280 L 1713 280 L 1711 282 L 1710 282 L 1709 283 L 1708 283 L 1707 284 L 1705 284 L 1704 285 L 1702 285 L 1701 286 L 1697 286 L 1696 287 L 1694 287 L 1693 286 L 1692 287 L 1691 286 L 1686 286 L 1685 285 L 1682 285 L 1681 284 L 1680 284 L 1679 283 L 1678 283 L 1677 282 L 1676 282 L 1675 281 L 1674 281 L 1672 279 L 1671 279 L 1667 275 L 1666 275 L 1661 270 L 1661 269 L 1657 265 L 1657 264 L 1655 262 L 1655 261 L 1653 259 L 1653 258 L 1652 257 L 1652 256 L 1650 254 L 1650 253 L 1649 252 L 1649 251 L 1648 250 L 1648 249 L 1647 248 L 1647 247 L 1646 246 L 1646 244 L 1645 243 L 1645 242 L 1644 241 L 1644 239 L 1643 238 L 1643 237 L 1642 236 L 1642 234 L 1641 233 L 1641 231 L 1640 230 L 1640 228 L 1639 227 L 1639 225 L 1638 224 L 1638 222 L 1637 221 L 1637 218 L 1636 217 L 1636 214 L 1635 213 L 1635 209 L 1634 208 L 1634 204 L 1633 203 L 1633 198 L 1632 197 L 1632 191 L 1631 190 L 1631 183 L 1630 182 L 1630 168 L 1629 167 L 1629 147 L 1630 146 L 1630 132 L 1631 131 L 1631 124 L 1632 123 L 1632 116 L 1633 115 L 1633 111 L 1634 110 L 1634 105 L 1635 104 L 1635 100 L 1636 99 L 1636 96 L 1637 95 L 1637 93 L 1638 92 L 1638 89 L 1639 88 L 1639 86 L 1640 85 L 1640 82 L 1641 81 L 1641 79 L 1642 78 L 1642 77 L 1643 76 L 1643 74 L 1644 73 L 1644 72 L 1645 71 L 1645 69 L 1646 68 L 1646 67 L 1647 66 L 1647 64 L 1648 63 L 1648 62 L 1649 61 L 1649 60 L 1650 59 L 1650 58 L 1651 57 L 1651 56 L 1652 55 L 1652 54 L 1654 52 L 1654 51 L 1655 50 L 1655 49 L 1658 46 L 1658 45 L 1662 41 L 1662 40 L 1670 32 L 1671 32 L 1673 30 L 1674 30 L 1676 28 L 1677 28 L 1678 27 L 1679 27 L 1680 26 L 1681 26 L 1682 25 L 1684 25 L 1685 24 Z M 1693 130 L 1693 131 L 1692 132 L 1692 136 L 1691 137 L 1691 138 L 1690 139 L 1690 140 L 1689 141 L 1689 142 L 1688 143 L 1688 144 L 1681 151 L 1680 151 L 1678 153 L 1677 153 L 1676 154 L 1674 154 L 1673 155 L 1670 155 L 1671 156 L 1674 156 L 1675 157 L 1676 157 L 1677 158 L 1678 158 L 1679 159 L 1680 159 L 1688 167 L 1688 168 L 1689 169 L 1689 170 L 1690 171 L 1690 172 L 1691 173 L 1691 175 L 1692 176 L 1692 179 L 1693 180 L 1693 181 L 1693 177 L 1694 176 L 1694 174 L 1695 173 L 1695 172 L 1696 171 L 1696 170 L 1697 169 L 1697 168 L 1699 166 L 1699 165 L 1703 161 L 1704 161 L 1707 158 L 1708 158 L 1709 157 L 1711 157 L 1712 156 L 1715 156 L 1716 155 L 1712 155 L 1711 154 L 1709 154 L 1708 153 L 1707 153 L 1705 151 L 1704 151 L 1698 145 L 1698 144 L 1697 143 L 1697 142 L 1696 141 L 1696 140 L 1695 139 L 1695 138 L 1694 137 L 1694 134 L 1693 133 Z M 1329 21 L 1328 22 L 1324 22 L 1323 23 L 1321 23 L 1320 24 L 1318 24 L 1317 25 L 1315 25 L 1314 26 L 1313 26 L 1312 27 L 1311 27 L 1310 28 L 1309 28 L 1308 29 L 1307 29 L 1305 31 L 1304 31 L 1302 33 L 1301 33 L 1298 36 L 1297 36 L 1284 49 L 1284 50 L 1280 54 L 1280 55 L 1278 57 L 1278 58 L 1276 60 L 1276 61 L 1274 63 L 1274 64 L 1273 65 L 1273 66 L 1271 68 L 1271 69 L 1270 70 L 1270 71 L 1269 72 L 1269 73 L 1268 74 L 1268 75 L 1267 76 L 1267 77 L 1266 78 L 1266 80 L 1265 81 L 1265 82 L 1264 83 L 1264 85 L 1263 86 L 1263 87 L 1262 88 L 1262 90 L 1261 91 L 1261 93 L 1260 94 L 1260 95 L 1259 96 L 1259 99 L 1258 100 L 1258 103 L 1257 104 L 1257 106 L 1256 107 L 1256 111 L 1255 112 L 1255 115 L 1254 116 L 1254 121 L 1253 122 L 1253 126 L 1252 127 L 1252 134 L 1251 135 L 1251 147 L 1250 148 L 1250 164 L 1251 165 L 1251 177 L 1252 178 L 1252 185 L 1253 186 L 1253 191 L 1254 192 L 1254 196 L 1255 197 L 1255 201 L 1256 202 L 1256 205 L 1257 206 L 1257 208 L 1258 209 L 1258 212 L 1259 213 L 1259 215 L 1260 216 L 1260 218 L 1261 219 L 1261 221 L 1262 222 L 1262 224 L 1263 225 L 1263 226 L 1264 227 L 1264 229 L 1265 230 L 1265 231 L 1266 232 L 1266 233 L 1267 234 L 1267 235 L 1268 236 L 1268 237 L 1269 238 L 1269 239 L 1270 240 L 1270 241 L 1271 242 L 1271 243 L 1272 244 L 1272 245 L 1274 247 L 1274 248 L 1276 250 L 1276 251 L 1278 253 L 1278 254 L 1282 258 L 1282 259 L 1287 264 L 1287 265 L 1293 271 L 1294 271 L 1298 275 L 1299 275 L 1302 278 L 1303 278 L 1305 280 L 1306 280 L 1307 281 L 1308 281 L 1309 282 L 1310 282 L 1311 283 L 1312 283 L 1313 284 L 1314 284 L 1315 285 L 1317 285 L 1318 286 L 1320 286 L 1321 287 L 1323 287 L 1324 288 L 1328 288 L 1329 289 L 1348 289 L 1349 288 L 1353 288 L 1354 287 L 1357 287 L 1358 286 L 1360 286 L 1361 285 L 1363 285 L 1364 284 L 1365 284 L 1366 283 L 1367 283 L 1368 282 L 1369 282 L 1370 281 L 1371 281 L 1373 279 L 1374 279 L 1376 277 L 1377 277 L 1380 274 L 1381 274 L 1393 262 L 1393 261 L 1396 258 L 1396 257 L 1399 254 L 1399 253 L 1401 251 L 1401 250 L 1403 248 L 1403 247 L 1404 246 L 1404 245 L 1405 244 L 1405 243 L 1406 242 L 1406 241 L 1407 240 L 1407 239 L 1408 238 L 1408 237 L 1409 236 L 1409 235 L 1410 234 L 1410 233 L 1411 232 L 1411 230 L 1412 229 L 1412 228 L 1413 227 L 1413 225 L 1414 224 L 1414 223 L 1415 222 L 1415 220 L 1416 219 L 1416 217 L 1417 216 L 1417 214 L 1418 213 L 1418 211 L 1419 210 L 1419 207 L 1420 206 L 1420 203 L 1421 202 L 1421 198 L 1422 197 L 1422 193 L 1423 192 L 1423 186 L 1424 185 L 1424 179 L 1425 178 L 1425 167 L 1426 166 L 1426 142 L 1425 141 L 1425 131 L 1424 130 L 1424 124 L 1423 123 L 1423 119 L 1422 118 L 1422 114 L 1421 113 L 1421 109 L 1420 108 L 1420 105 L 1419 104 L 1419 102 L 1418 101 L 1418 98 L 1417 97 L 1417 95 L 1416 94 L 1416 92 L 1415 91 L 1415 89 L 1414 88 L 1414 86 L 1413 85 L 1413 84 L 1412 83 L 1412 82 L 1411 81 L 1411 79 L 1410 78 L 1410 77 L 1409 76 L 1409 75 L 1408 74 L 1408 73 L 1407 72 L 1407 71 L 1405 69 L 1405 68 L 1404 67 L 1404 66 L 1403 65 L 1403 64 L 1402 63 L 1402 62 L 1400 60 L 1400 59 L 1398 57 L 1398 56 L 1395 53 L 1395 52 L 1391 48 L 1391 47 L 1382 38 L 1381 38 L 1377 34 L 1376 34 L 1373 31 L 1372 31 L 1371 30 L 1370 30 L 1369 29 L 1368 29 L 1366 27 L 1364 27 L 1363 26 L 1362 26 L 1361 25 L 1360 25 L 1359 24 L 1357 24 L 1356 23 L 1354 23 L 1353 22 L 1349 22 L 1348 21 Z M 1335 24 L 1336 23 L 1341 23 L 1342 24 L 1347 24 L 1348 25 L 1350 25 L 1351 26 L 1352 26 L 1353 27 L 1354 27 L 1355 28 L 1356 28 L 1358 30 L 1359 30 L 1361 32 L 1362 32 L 1369 39 L 1369 40 L 1373 44 L 1373 45 L 1375 47 L 1375 48 L 1377 50 L 1377 51 L 1379 53 L 1379 54 L 1380 55 L 1380 56 L 1381 57 L 1381 58 L 1382 59 L 1382 60 L 1383 61 L 1383 62 L 1384 63 L 1384 64 L 1385 65 L 1385 66 L 1386 67 L 1386 69 L 1387 70 L 1387 71 L 1388 72 L 1388 73 L 1389 74 L 1389 76 L 1390 77 L 1390 79 L 1391 80 L 1391 82 L 1392 83 L 1392 85 L 1393 86 L 1393 88 L 1394 89 L 1394 91 L 1395 92 L 1395 95 L 1396 96 L 1396 100 L 1397 101 L 1397 105 L 1398 106 L 1398 110 L 1399 111 L 1399 116 L 1400 117 L 1400 123 L 1401 124 L 1401 133 L 1402 134 L 1402 180 L 1401 181 L 1401 190 L 1400 191 L 1400 197 L 1399 198 L 1399 202 L 1398 203 L 1398 207 L 1397 208 L 1397 211 L 1396 212 L 1396 215 L 1395 216 L 1395 219 L 1394 220 L 1394 222 L 1393 223 L 1393 226 L 1392 227 L 1392 229 L 1391 230 L 1391 232 L 1390 233 L 1390 235 L 1389 236 L 1389 237 L 1388 238 L 1388 240 L 1387 241 L 1387 242 L 1386 243 L 1386 244 L 1385 245 L 1385 247 L 1384 248 L 1384 249 L 1383 250 L 1383 251 L 1382 252 L 1382 253 L 1381 254 L 1381 255 L 1379 257 L 1379 258 L 1378 259 L 1378 260 L 1376 262 L 1376 263 L 1373 266 L 1373 267 L 1361 279 L 1360 279 L 1358 281 L 1357 281 L 1356 282 L 1355 282 L 1354 283 L 1353 283 L 1352 284 L 1351 284 L 1350 285 L 1348 285 L 1347 286 L 1341 286 L 1340 287 L 1338 287 L 1337 286 L 1331 286 L 1330 285 L 1328 285 L 1327 284 L 1325 284 L 1324 283 L 1323 283 L 1322 282 L 1321 282 L 1320 281 L 1319 281 L 1317 279 L 1316 279 L 1303 266 L 1303 265 L 1300 262 L 1300 261 L 1298 259 L 1298 258 L 1297 257 L 1297 256 L 1296 255 L 1296 254 L 1294 252 L 1294 251 L 1293 250 L 1293 249 L 1292 248 L 1292 247 L 1291 246 L 1291 245 L 1290 244 L 1290 242 L 1289 241 L 1289 239 L 1288 238 L 1288 237 L 1287 236 L 1287 234 L 1286 233 L 1286 231 L 1285 230 L 1285 228 L 1284 227 L 1284 225 L 1283 224 L 1283 221 L 1282 220 L 1282 217 L 1281 216 L 1281 213 L 1280 212 L 1280 209 L 1279 208 L 1279 204 L 1278 203 L 1278 199 L 1277 198 L 1277 192 L 1276 191 L 1276 183 L 1275 182 L 1275 163 L 1274 162 L 1274 149 L 1275 148 L 1275 132 L 1276 131 L 1276 124 L 1277 123 L 1277 116 L 1278 115 L 1278 111 L 1279 110 L 1279 105 L 1280 104 L 1280 100 L 1281 99 L 1281 96 L 1282 95 L 1282 92 L 1283 91 L 1283 89 L 1284 88 L 1284 86 L 1285 85 L 1285 83 L 1286 82 L 1286 80 L 1287 79 L 1287 77 L 1288 76 L 1288 75 L 1289 74 L 1289 72 L 1290 71 L 1290 69 L 1291 68 L 1291 67 L 1292 66 L 1292 65 L 1293 64 L 1293 63 L 1294 62 L 1294 61 L 1295 60 L 1295 59 L 1296 58 L 1296 57 L 1297 56 L 1297 55 L 1298 54 L 1298 53 L 1299 52 L 1299 51 L 1301 49 L 1301 48 L 1304 45 L 1304 44 L 1310 38 L 1310 37 L 1312 35 L 1313 35 L 1318 30 L 1319 30 L 1320 29 L 1321 29 L 1323 27 L 1324 27 L 1325 26 L 1326 26 L 1327 25 L 1330 25 L 1331 24 Z M 1338 129 L 1338 133 L 1337 134 L 1337 136 L 1336 137 L 1336 139 L 1335 140 L 1335 141 L 1334 142 L 1334 143 L 1332 145 L 1332 146 L 1328 150 L 1327 150 L 1325 152 L 1324 152 L 1323 153 L 1322 153 L 1321 154 L 1319 154 L 1318 155 L 1315 155 L 1315 156 L 1318 156 L 1319 157 L 1321 157 L 1322 158 L 1323 158 L 1324 159 L 1325 159 L 1327 161 L 1328 161 L 1332 165 L 1332 166 L 1334 168 L 1334 169 L 1335 170 L 1335 171 L 1336 172 L 1336 174 L 1337 175 L 1337 177 L 1338 178 L 1338 181 L 1338 179 L 1339 178 L 1339 175 L 1340 174 L 1340 173 L 1341 172 L 1341 170 L 1343 168 L 1343 167 L 1351 159 L 1352 159 L 1353 158 L 1354 158 L 1355 157 L 1356 157 L 1357 156 L 1361 156 L 1361 155 L 1357 155 L 1356 154 L 1355 154 L 1354 153 L 1353 153 L 1352 152 L 1351 152 L 1349 150 L 1348 150 L 1344 146 L 1344 145 L 1342 143 L 1342 142 L 1341 141 L 1341 140 L 1340 139 L 1340 137 L 1339 136 L 1339 134 L 1338 133 Z M 1162 21 L 1161 22 L 1157 22 L 1156 23 L 1154 23 L 1153 24 L 1151 24 L 1150 25 L 1149 25 L 1148 26 L 1147 26 L 1146 27 L 1145 27 L 1142 30 L 1141 30 L 1137 34 L 1136 34 L 1135 35 L 1135 36 L 1131 40 L 1131 41 L 1129 43 L 1129 44 L 1128 45 L 1128 46 L 1127 47 L 1127 48 L 1126 49 L 1126 51 L 1125 52 L 1125 54 L 1124 55 L 1124 58 L 1123 59 L 1123 64 L 1122 65 L 1122 77 L 1123 78 L 1123 84 L 1124 85 L 1124 89 L 1125 90 L 1125 92 L 1126 93 L 1126 96 L 1127 97 L 1127 98 L 1128 99 L 1128 101 L 1129 102 L 1129 103 L 1130 104 L 1130 106 L 1131 107 L 1131 108 L 1132 109 L 1132 110 L 1133 111 L 1133 112 L 1134 113 L 1134 114 L 1135 115 L 1135 116 L 1136 117 L 1136 118 L 1138 120 L 1138 121 L 1140 123 L 1140 124 L 1141 125 L 1141 126 L 1143 128 L 1143 129 L 1145 131 L 1145 132 L 1148 135 L 1148 136 L 1150 138 L 1150 139 L 1153 142 L 1153 143 L 1156 146 L 1156 147 L 1160 151 L 1160 152 L 1163 155 L 1163 156 L 1166 159 L 1166 160 L 1170 164 L 1170 165 L 1173 168 L 1173 169 L 1177 173 L 1177 174 L 1180 177 L 1180 178 L 1183 181 L 1183 182 L 1186 185 L 1186 186 L 1188 188 L 1188 189 L 1190 191 L 1190 192 L 1192 194 L 1192 195 L 1193 196 L 1193 197 L 1195 199 L 1195 200 L 1196 201 L 1196 202 L 1197 203 L 1197 204 L 1198 205 L 1198 206 L 1199 207 L 1199 208 L 1200 209 L 1200 210 L 1201 211 L 1201 213 L 1202 214 L 1202 215 L 1203 216 L 1203 218 L 1204 219 L 1204 222 L 1205 223 L 1205 225 L 1206 226 L 1206 232 L 1207 233 L 1207 249 L 1206 250 L 1206 254 L 1205 255 L 1205 258 L 1204 259 L 1204 261 L 1203 262 L 1203 263 L 1202 264 L 1202 266 L 1201 267 L 1201 268 L 1199 270 L 1199 271 L 1197 273 L 1197 274 L 1191 280 L 1190 280 L 1188 282 L 1187 282 L 1186 283 L 1185 283 L 1184 284 L 1183 284 L 1182 285 L 1180 285 L 1179 286 L 1166 286 L 1165 285 L 1163 285 L 1162 284 L 1160 284 L 1159 283 L 1158 283 L 1156 281 L 1155 281 L 1153 279 L 1152 279 L 1144 271 L 1144 270 L 1142 268 L 1142 267 L 1140 265 L 1140 264 L 1139 263 L 1139 262 L 1137 260 L 1137 259 L 1136 258 L 1136 256 L 1135 255 L 1135 254 L 1134 253 L 1134 252 L 1133 251 L 1133 250 L 1132 249 L 1132 247 L 1131 246 L 1131 244 L 1130 243 L 1130 242 L 1129 241 L 1129 238 L 1128 237 L 1128 236 L 1127 235 L 1127 232 L 1126 231 L 1126 228 L 1125 229 L 1125 273 L 1127 273 L 1128 274 L 1129 274 L 1130 275 L 1131 275 L 1133 277 L 1134 277 L 1135 278 L 1136 278 L 1137 279 L 1138 279 L 1140 281 L 1141 281 L 1142 282 L 1143 282 L 1144 283 L 1145 283 L 1146 284 L 1147 284 L 1148 285 L 1150 285 L 1151 286 L 1153 286 L 1154 287 L 1156 287 L 1157 288 L 1160 288 L 1161 289 L 1165 289 L 1166 290 L 1182 290 L 1183 289 L 1188 289 L 1189 288 L 1192 288 L 1193 287 L 1194 287 L 1195 286 L 1197 286 L 1198 285 L 1199 285 L 1200 284 L 1201 284 L 1202 283 L 1203 283 L 1205 281 L 1206 281 L 1210 277 L 1211 277 L 1212 276 L 1212 275 L 1217 270 L 1217 269 L 1219 267 L 1219 266 L 1220 265 L 1220 264 L 1222 262 L 1222 260 L 1223 259 L 1223 258 L 1224 257 L 1224 256 L 1225 255 L 1225 252 L 1226 251 L 1226 249 L 1227 248 L 1227 243 L 1228 242 L 1228 221 L 1227 220 L 1227 216 L 1226 215 L 1226 212 L 1225 211 L 1225 208 L 1224 207 L 1224 205 L 1223 204 L 1223 202 L 1222 201 L 1222 200 L 1221 199 L 1221 197 L 1220 196 L 1220 195 L 1219 194 L 1219 193 L 1218 192 L 1218 191 L 1217 190 L 1217 189 L 1216 188 L 1216 187 L 1214 185 L 1214 184 L 1213 183 L 1213 182 L 1212 181 L 1212 180 L 1210 178 L 1210 177 L 1208 175 L 1208 174 L 1205 171 L 1205 170 L 1203 168 L 1203 167 L 1200 164 L 1200 163 L 1196 159 L 1196 158 L 1191 153 L 1191 152 L 1187 148 L 1187 147 L 1183 143 L 1183 142 L 1178 137 L 1178 136 L 1174 132 L 1174 131 L 1170 127 L 1170 126 L 1166 122 L 1166 121 L 1163 118 L 1163 117 L 1161 115 L 1161 114 L 1158 111 L 1158 110 L 1157 109 L 1157 108 L 1155 106 L 1155 105 L 1154 104 L 1154 103 L 1153 102 L 1153 101 L 1151 99 L 1151 98 L 1150 97 L 1150 96 L 1149 95 L 1149 94 L 1148 93 L 1148 91 L 1147 90 L 1147 89 L 1146 88 L 1146 86 L 1145 85 L 1145 83 L 1144 82 L 1144 80 L 1143 79 L 1143 75 L 1142 74 L 1142 65 L 1141 64 L 1141 60 L 1142 59 L 1142 52 L 1143 51 L 1143 47 L 1144 46 L 1144 44 L 1145 43 L 1145 42 L 1146 41 L 1146 40 L 1148 38 L 1148 37 L 1150 35 L 1150 34 L 1154 30 L 1155 30 L 1158 27 L 1159 27 L 1160 26 L 1161 26 L 1162 25 L 1164 25 L 1165 24 L 1170 24 L 1171 23 L 1173 23 L 1174 24 L 1179 24 L 1180 25 L 1182 25 L 1183 26 L 1184 26 L 1185 27 L 1186 27 L 1188 29 L 1189 29 L 1198 38 L 1198 39 L 1201 42 L 1201 43 L 1204 46 L 1204 47 L 1206 49 L 1206 50 L 1208 52 L 1208 53 L 1210 55 L 1210 56 L 1212 58 L 1212 59 L 1213 60 L 1213 61 L 1214 62 L 1214 63 L 1215 64 L 1215 65 L 1216 66 L 1216 68 L 1217 69 L 1217 71 L 1217 64 L 1218 63 L 1218 49 L 1219 48 L 1219 42 L 1217 40 L 1216 40 L 1213 37 L 1212 37 L 1208 33 L 1207 33 L 1205 31 L 1204 31 L 1202 29 L 1201 29 L 1200 28 L 1199 28 L 1198 27 L 1197 27 L 1196 26 L 1195 26 L 1194 25 L 1193 25 L 1192 24 L 1190 24 L 1189 23 L 1187 23 L 1186 22 L 1182 22 L 1181 21 Z M 952 21 L 951 22 L 947 22 L 946 23 L 944 23 L 943 24 L 942 24 L 941 25 L 940 25 L 939 26 L 938 26 L 937 27 L 936 27 L 934 29 L 933 29 L 931 31 L 930 31 L 924 37 L 924 38 L 921 41 L 921 42 L 920 43 L 920 44 L 918 46 L 918 48 L 917 49 L 917 50 L 916 51 L 916 53 L 915 54 L 915 56 L 914 57 L 914 61 L 913 62 L 913 80 L 914 81 L 914 86 L 915 87 L 915 90 L 916 91 L 916 93 L 917 94 L 917 97 L 918 98 L 918 99 L 919 100 L 919 102 L 920 103 L 920 104 L 921 105 L 921 107 L 922 108 L 922 109 L 923 110 L 923 111 L 924 112 L 924 113 L 926 115 L 926 116 L 927 117 L 927 118 L 928 119 L 928 120 L 930 122 L 930 123 L 932 125 L 932 126 L 934 128 L 934 129 L 936 131 L 936 132 L 939 135 L 939 136 L 941 138 L 941 139 L 945 143 L 945 144 L 949 148 L 949 149 L 953 153 L 953 154 L 957 158 L 957 159 L 961 163 L 961 164 L 964 167 L 964 168 L 968 172 L 968 173 L 971 176 L 971 177 L 974 180 L 974 181 L 977 184 L 977 185 L 979 187 L 979 188 L 981 190 L 981 191 L 982 192 L 982 193 L 984 195 L 984 196 L 985 197 L 985 198 L 986 199 L 986 200 L 987 201 L 987 202 L 988 203 L 988 204 L 989 205 L 989 206 L 990 207 L 990 208 L 991 209 L 991 210 L 992 211 L 992 213 L 993 214 L 993 216 L 994 217 L 994 219 L 995 220 L 995 222 L 996 223 L 996 227 L 997 228 L 997 235 L 998 236 L 998 244 L 997 245 L 997 252 L 996 253 L 996 256 L 995 257 L 995 260 L 994 261 L 994 263 L 993 264 L 993 265 L 992 266 L 992 267 L 991 268 L 991 269 L 990 270 L 990 271 L 987 274 L 987 275 L 984 278 L 983 278 L 979 282 L 978 282 L 977 283 L 976 283 L 975 284 L 974 284 L 973 285 L 971 285 L 970 286 L 964 286 L 963 287 L 962 287 L 961 286 L 956 286 L 955 285 L 953 285 L 952 284 L 950 284 L 949 283 L 948 283 L 946 281 L 945 281 L 943 279 L 942 279 L 935 272 L 935 271 L 932 268 L 932 267 L 931 266 L 931 265 L 929 263 L 929 262 L 928 261 L 928 260 L 927 259 L 927 258 L 926 257 L 926 256 L 925 255 L 925 253 L 924 252 L 924 251 L 923 250 L 923 248 L 922 247 L 922 246 L 921 245 L 921 243 L 920 242 L 920 240 L 919 239 L 919 237 L 918 236 L 918 234 L 917 233 L 917 231 L 916 230 L 916 228 L 915 228 L 915 236 L 914 237 L 914 272 L 916 272 L 917 273 L 918 273 L 920 275 L 921 275 L 922 276 L 923 276 L 925 278 L 926 278 L 927 279 L 928 279 L 929 280 L 930 280 L 931 281 L 932 281 L 933 282 L 934 282 L 935 283 L 936 283 L 937 284 L 938 284 L 939 285 L 940 285 L 941 286 L 943 286 L 944 287 L 947 287 L 948 288 L 951 288 L 952 289 L 957 289 L 958 290 L 973 290 L 974 289 L 978 289 L 979 288 L 982 288 L 983 287 L 985 287 L 986 286 L 987 286 L 988 285 L 989 285 L 990 284 L 991 284 L 992 283 L 993 283 L 994 282 L 995 282 L 998 279 L 999 279 L 1006 272 L 1006 271 L 1008 269 L 1008 268 L 1010 266 L 1010 265 L 1011 264 L 1011 263 L 1012 262 L 1012 261 L 1013 260 L 1013 259 L 1014 258 L 1014 257 L 1015 256 L 1015 254 L 1016 253 L 1016 251 L 1017 250 L 1017 246 L 1018 245 L 1018 239 L 1019 238 L 1019 225 L 1018 224 L 1018 218 L 1017 217 L 1017 213 L 1016 212 L 1016 209 L 1015 208 L 1015 205 L 1014 204 L 1014 202 L 1013 201 L 1013 200 L 1012 199 L 1012 197 L 1011 196 L 1011 195 L 1010 194 L 1010 193 L 1009 192 L 1009 191 L 1008 190 L 1008 189 L 1007 188 L 1007 187 L 1006 186 L 1006 185 L 1005 184 L 1005 183 L 1003 181 L 1003 180 L 1002 179 L 1002 178 L 999 175 L 999 174 L 997 172 L 997 171 L 995 169 L 995 168 L 991 164 L 991 163 L 988 160 L 988 159 L 984 155 L 984 154 L 979 149 L 979 148 L 974 143 L 974 142 L 968 136 L 968 135 L 964 131 L 964 130 L 959 125 L 959 124 L 956 121 L 956 120 L 953 117 L 953 116 L 950 113 L 950 112 L 948 110 L 948 109 L 946 107 L 946 106 L 945 105 L 945 104 L 943 102 L 943 101 L 942 100 L 942 99 L 941 98 L 941 97 L 940 96 L 940 95 L 939 94 L 939 93 L 938 92 L 938 91 L 937 90 L 937 88 L 936 87 L 936 85 L 935 84 L 935 82 L 934 81 L 934 78 L 933 77 L 933 72 L 932 71 L 932 55 L 933 54 L 933 50 L 934 49 L 934 46 L 935 45 L 935 44 L 936 43 L 936 42 L 937 41 L 937 40 L 938 39 L 938 38 L 940 36 L 940 35 L 946 29 L 947 29 L 949 27 L 950 27 L 951 26 L 952 26 L 953 25 L 955 25 L 956 24 L 961 24 L 962 23 L 964 23 L 965 24 L 971 24 L 972 25 L 973 25 L 974 26 L 976 26 L 978 28 L 979 28 L 989 38 L 989 39 L 992 42 L 992 43 L 994 45 L 994 46 L 996 48 L 996 49 L 998 51 L 998 52 L 1000 54 L 1000 55 L 1002 57 L 1002 58 L 1004 60 L 1004 61 L 1005 62 L 1005 63 L 1006 64 L 1006 66 L 1007 67 L 1007 69 L 1008 70 L 1008 64 L 1009 63 L 1009 50 L 1010 49 L 1010 44 L 1011 43 L 1007 39 L 1006 39 L 1003 36 L 1002 36 L 999 33 L 998 33 L 996 31 L 995 31 L 994 30 L 993 30 L 991 28 L 990 28 L 989 27 L 988 27 L 987 26 L 986 26 L 985 25 L 983 25 L 982 24 L 981 24 L 980 23 L 977 23 L 976 22 L 973 22 L 972 21 Z M 1844 20 L 1843 21 L 1836 21 L 1835 22 L 1832 22 L 1831 23 L 1828 23 L 1827 24 L 1826 24 L 1825 25 L 1824 25 L 1823 26 L 1822 26 L 1821 27 L 1820 27 L 1819 28 L 1818 28 L 1816 30 L 1815 30 L 1806 39 L 1806 40 L 1804 42 L 1804 43 L 1803 44 L 1803 45 L 1802 46 L 1802 47 L 1801 48 L 1801 49 L 1800 50 L 1800 52 L 1799 53 L 1799 55 L 1798 56 L 1798 60 L 1797 61 L 1797 82 L 1798 83 L 1798 87 L 1799 88 L 1799 91 L 1800 92 L 1800 94 L 1801 95 L 1801 97 L 1802 98 L 1802 100 L 1803 101 L 1803 103 L 1804 104 L 1804 105 L 1805 106 L 1805 107 L 1806 108 L 1806 110 L 1807 111 L 1807 112 L 1808 113 L 1808 114 L 1810 116 L 1810 117 L 1811 118 L 1811 119 L 1813 121 L 1813 122 L 1814 123 L 1814 124 L 1816 126 L 1816 127 L 1819 130 L 1819 131 L 1821 133 L 1821 134 L 1823 136 L 1823 137 L 1826 140 L 1826 141 L 1829 144 L 1829 145 L 1832 148 L 1832 149 L 1836 153 L 1836 154 L 1839 157 L 1839 158 L 1843 162 L 1843 163 L 1846 166 L 1846 167 L 1850 171 L 1850 172 L 1853 175 L 1853 176 L 1855 178 L 1855 179 L 1858 182 L 1858 183 L 1860 185 L 1860 186 L 1862 188 L 1862 189 L 1864 191 L 1864 192 L 1866 194 L 1866 195 L 1868 197 L 1868 198 L 1869 199 L 1869 200 L 1870 201 L 1870 202 L 1871 203 L 1871 204 L 1872 205 L 1872 206 L 1873 207 L 1873 208 L 1874 209 L 1874 211 L 1875 212 L 1875 213 L 1876 214 L 1876 216 L 1877 217 L 1877 219 L 1878 220 L 1878 223 L 1879 224 L 1879 228 L 1880 229 L 1880 236 L 1881 237 L 1881 245 L 1880 246 L 1880 252 L 1879 253 L 1879 257 L 1878 258 L 1878 260 L 1877 261 L 1877 263 L 1876 264 L 1876 266 L 1875 267 L 1875 268 L 1873 270 L 1873 271 L 1871 273 L 1871 274 L 1865 280 L 1864 280 L 1862 282 L 1861 282 L 1859 284 L 1857 284 L 1856 285 L 1854 285 L 1853 286 L 1840 286 L 1839 285 L 1837 285 L 1836 284 L 1835 284 L 1834 283 L 1833 283 L 1832 282 L 1831 282 L 1830 281 L 1829 281 L 1825 277 L 1824 277 L 1823 276 L 1823 275 L 1817 269 L 1817 268 L 1815 266 L 1815 265 L 1814 264 L 1814 263 L 1813 262 L 1813 261 L 1812 260 L 1812 259 L 1811 258 L 1811 257 L 1810 256 L 1810 255 L 1809 254 L 1809 253 L 1808 252 L 1808 251 L 1807 250 L 1807 248 L 1806 247 L 1806 245 L 1805 244 L 1805 243 L 1804 242 L 1804 240 L 1803 239 L 1803 237 L 1802 236 L 1802 234 L 1801 233 L 1801 231 L 1800 230 L 1800 228 L 1800 232 L 1799 233 L 1799 274 L 1800 273 L 1801 273 L 1802 274 L 1804 274 L 1805 275 L 1806 275 L 1808 277 L 1809 277 L 1811 279 L 1812 279 L 1813 280 L 1814 280 L 1815 281 L 1816 281 L 1817 282 L 1818 282 L 1819 283 L 1820 283 L 1821 284 L 1822 284 L 1823 285 L 1824 285 L 1825 286 L 1827 286 L 1828 287 L 1830 287 L 1831 288 L 1834 288 L 1835 289 L 1839 289 L 1840 290 L 1856 290 L 1857 289 L 1862 289 L 1863 288 L 1865 288 L 1866 287 L 1868 287 L 1869 286 L 1870 286 L 1871 285 L 1873 285 L 1874 284 L 1875 284 L 1877 282 L 1878 282 L 1880 280 L 1881 280 L 1891 270 L 1891 269 L 1893 267 L 1893 266 L 1894 265 L 1894 264 L 1895 263 L 1895 262 L 1896 261 L 1896 260 L 1897 259 L 1897 258 L 1898 257 L 1898 255 L 1899 254 L 1899 252 L 1900 251 L 1900 248 L 1901 247 L 1901 242 L 1902 241 L 1902 221 L 1901 220 L 1901 216 L 1900 215 L 1900 211 L 1899 210 L 1899 208 L 1898 207 L 1898 205 L 1897 204 L 1897 202 L 1896 201 L 1896 199 L 1895 198 L 1895 197 L 1894 196 L 1894 195 L 1893 194 L 1893 192 L 1892 191 L 1892 190 L 1891 189 L 1891 188 L 1889 186 L 1889 185 L 1888 184 L 1888 183 L 1886 181 L 1886 180 L 1885 179 L 1885 178 L 1883 176 L 1883 175 L 1881 173 L 1881 172 L 1878 169 L 1878 168 L 1876 166 L 1876 165 L 1872 161 L 1872 160 L 1868 156 L 1868 155 L 1864 151 L 1864 150 L 1859 145 L 1859 144 L 1855 140 L 1855 139 L 1851 135 L 1851 134 L 1848 131 L 1848 130 L 1843 125 L 1843 124 L 1840 121 L 1840 120 L 1837 117 L 1837 116 L 1834 113 L 1834 112 L 1832 110 L 1832 109 L 1830 107 L 1830 106 L 1829 105 L 1829 104 L 1827 102 L 1827 101 L 1826 100 L 1826 99 L 1825 98 L 1825 97 L 1824 96 L 1824 95 L 1823 94 L 1823 93 L 1822 92 L 1822 91 L 1821 90 L 1821 88 L 1820 87 L 1820 86 L 1819 85 L 1819 82 L 1818 81 L 1818 78 L 1817 77 L 1817 73 L 1816 72 L 1816 54 L 1817 53 L 1817 49 L 1818 48 L 1818 46 L 1819 45 L 1819 43 L 1820 42 L 1820 41 L 1821 40 L 1821 39 L 1823 37 L 1823 36 L 1830 29 L 1831 29 L 1833 27 L 1834 27 L 1835 26 L 1836 26 L 1837 25 L 1838 25 L 1839 24 L 1845 24 L 1846 23 L 1847 23 L 1848 24 L 1854 24 L 1855 25 L 1856 25 L 1857 26 L 1858 26 L 1859 27 L 1860 27 L 1862 29 L 1863 29 L 1871 37 L 1871 38 L 1874 41 L 1874 42 L 1876 44 L 1876 45 L 1878 47 L 1878 48 L 1880 50 L 1880 51 L 1882 53 L 1882 54 L 1884 56 L 1884 57 L 1886 59 L 1886 60 L 1887 61 L 1887 62 L 1888 63 L 1888 64 L 1889 65 L 1889 67 L 1890 68 L 1890 70 L 1891 71 L 1891 58 L 1892 57 L 1892 45 L 1893 44 L 1893 42 L 1892 42 L 1888 38 L 1887 38 L 1883 34 L 1882 34 L 1879 31 L 1878 31 L 1876 29 L 1875 29 L 1874 28 L 1873 28 L 1872 27 L 1871 27 L 1870 26 L 1869 26 L 1868 25 L 1867 25 L 1866 24 L 1864 24 L 1863 23 L 1861 23 L 1860 22 L 1857 22 L 1856 21 L 1849 21 L 1848 20 Z M 121 20 L 120 21 L 112 21 L 111 22 L 107 22 L 106 23 L 103 23 L 102 24 L 100 24 L 99 25 L 97 25 L 96 26 L 94 26 L 93 27 L 91 27 L 90 28 L 89 28 L 88 29 L 87 29 L 86 30 L 85 30 L 84 31 L 83 31 L 82 32 L 81 32 L 79 34 L 78 34 L 77 35 L 76 35 L 74 37 L 73 37 L 70 40 L 69 40 L 52 57 L 52 58 L 49 61 L 49 62 L 46 65 L 46 66 L 44 68 L 44 69 L 42 71 L 42 72 L 41 73 L 41 74 L 39 76 L 39 77 L 38 78 L 38 79 L 37 80 L 37 81 L 36 82 L 36 83 L 35 84 L 35 85 L 34 86 L 34 88 L 33 89 L 33 90 L 32 91 L 32 93 L 31 94 L 31 95 L 30 96 L 30 98 L 29 99 L 29 101 L 28 102 L 28 104 L 27 105 L 27 107 L 26 108 L 26 110 L 25 111 L 25 114 L 24 115 L 24 119 L 23 120 L 23 123 L 22 124 L 22 129 L 21 130 L 21 137 L 20 138 L 20 172 L 21 173 L 21 178 L 22 179 L 22 184 L 23 185 L 23 189 L 24 190 L 24 193 L 25 194 L 25 198 L 26 199 L 26 201 L 27 202 L 27 204 L 28 205 L 28 207 L 29 208 L 29 210 L 30 211 L 30 213 L 31 214 L 31 215 L 32 216 L 32 218 L 33 219 L 33 220 L 34 221 L 34 222 L 35 223 L 35 225 L 36 226 L 36 227 L 37 228 L 37 229 L 38 230 L 38 231 L 40 233 L 40 234 L 41 235 L 41 236 L 42 237 L 42 238 L 44 240 L 44 241 L 46 243 L 46 244 L 48 246 L 48 247 L 52 251 L 52 252 L 59 259 L 59 260 L 60 261 L 61 261 L 69 269 L 70 269 L 72 271 L 73 271 L 75 273 L 76 273 L 78 275 L 79 275 L 81 277 L 82 277 L 83 278 L 84 278 L 85 279 L 86 279 L 87 280 L 88 280 L 89 281 L 90 281 L 91 282 L 93 282 L 94 283 L 95 283 L 96 284 L 98 284 L 99 285 L 101 285 L 102 286 L 105 286 L 106 287 L 108 287 L 109 288 L 108 289 L 104 289 L 103 290 L 100 290 L 99 291 L 97 291 L 96 292 L 95 292 L 94 293 L 92 293 L 91 294 L 90 294 L 89 295 L 88 295 L 87 296 L 86 296 L 85 297 L 84 297 L 82 299 L 81 299 L 78 302 L 77 302 L 68 311 L 68 313 L 69 313 L 70 312 L 71 312 L 74 309 L 75 309 L 77 307 L 78 307 L 79 306 L 80 306 L 81 305 L 82 305 L 83 304 L 85 304 L 86 303 L 88 303 L 89 302 L 93 302 L 94 301 L 109 301 L 110 302 L 114 302 L 115 303 L 118 303 L 119 304 L 121 304 L 122 305 L 124 305 L 125 306 L 126 306 L 127 307 L 128 307 L 129 308 L 130 308 L 131 309 L 132 309 L 133 310 L 134 310 L 135 311 L 136 311 L 138 313 L 139 313 L 140 314 L 141 314 L 143 316 L 144 316 L 145 317 L 146 317 L 148 319 L 149 319 L 151 321 L 152 321 L 153 322 L 154 322 L 156 324 L 157 324 L 159 326 L 160 326 L 162 328 L 163 328 L 164 329 L 165 329 L 166 330 L 167 330 L 168 331 L 169 331 L 170 332 L 171 332 L 172 333 L 173 333 L 174 334 L 176 334 L 177 335 L 178 335 L 179 336 L 181 336 L 182 337 L 184 337 L 185 338 L 189 338 L 190 339 L 196 339 L 197 340 L 206 340 L 207 339 L 213 339 L 214 338 L 217 338 L 218 337 L 220 337 L 221 336 L 223 336 L 224 335 L 225 335 L 226 334 L 227 334 L 228 333 L 229 333 L 231 331 L 232 331 L 234 329 L 235 329 L 239 325 L 240 325 L 244 321 L 244 320 L 250 314 L 250 313 L 252 311 L 252 310 L 250 310 L 243 317 L 242 317 L 240 319 L 239 319 L 238 320 L 237 320 L 236 321 L 235 321 L 234 322 L 232 322 L 231 323 L 228 323 L 227 324 L 211 324 L 210 323 L 206 323 L 205 322 L 202 322 L 201 321 L 200 321 L 199 320 L 197 320 L 196 319 L 195 319 L 194 318 L 192 318 L 191 317 L 190 317 L 189 316 L 188 316 L 187 315 L 186 315 L 185 314 L 184 314 L 183 313 L 182 313 L 180 311 L 179 311 L 178 310 L 177 310 L 176 309 L 175 309 L 173 307 L 172 307 L 171 306 L 170 306 L 169 305 L 168 305 L 166 303 L 165 303 L 164 302 L 163 302 L 162 301 L 161 301 L 160 300 L 159 300 L 158 299 L 157 299 L 156 298 L 155 298 L 154 297 L 153 297 L 152 296 L 151 296 L 150 295 L 149 295 L 148 294 L 146 294 L 145 293 L 143 293 L 142 292 L 140 292 L 139 291 L 137 291 L 136 290 L 137 289 L 143 289 L 144 288 L 149 288 L 150 287 L 154 287 L 155 286 L 157 286 L 158 285 L 161 285 L 162 284 L 164 284 L 165 283 L 166 283 L 167 282 L 169 282 L 170 281 L 171 281 L 172 280 L 173 280 L 174 279 L 175 279 L 176 278 L 177 278 L 178 277 L 179 277 L 181 275 L 182 275 L 183 274 L 184 274 L 186 272 L 187 272 L 190 269 L 191 269 L 206 254 L 206 253 L 210 249 L 210 248 L 212 246 L 212 245 L 214 243 L 214 242 L 216 240 L 216 239 L 218 237 L 218 236 L 219 235 L 219 234 L 220 233 L 220 232 L 221 231 L 221 230 L 222 229 L 222 228 L 223 227 L 223 226 L 224 225 L 224 224 L 225 223 L 225 222 L 226 221 L 226 220 L 227 219 L 227 217 L 228 216 L 228 215 L 229 214 L 229 212 L 230 211 L 230 209 L 231 208 L 231 206 L 232 205 L 232 203 L 233 202 L 233 199 L 234 198 L 234 195 L 235 194 L 235 190 L 236 189 L 236 185 L 237 184 L 237 178 L 238 177 L 238 169 L 239 168 L 239 141 L 238 140 L 238 131 L 237 130 L 237 125 L 236 124 L 236 120 L 235 119 L 235 115 L 234 114 L 234 112 L 233 111 L 233 108 L 232 107 L 232 105 L 231 104 L 231 102 L 230 101 L 230 99 L 229 98 L 229 96 L 228 95 L 228 93 L 227 92 L 227 91 L 226 90 L 226 88 L 225 87 L 225 86 L 224 85 L 224 84 L 223 83 L 223 82 L 222 81 L 222 80 L 221 79 L 221 78 L 220 77 L 220 76 L 219 75 L 219 74 L 217 72 L 217 71 L 216 70 L 216 69 L 214 67 L 214 66 L 212 64 L 212 63 L 210 61 L 210 60 L 206 56 L 206 55 L 192 41 L 191 41 L 187 37 L 186 37 L 184 35 L 183 35 L 182 34 L 181 34 L 179 32 L 178 32 L 177 31 L 176 31 L 175 30 L 174 30 L 173 29 L 172 29 L 171 28 L 170 28 L 169 27 L 167 27 L 166 26 L 165 26 L 164 25 L 162 25 L 161 24 L 158 24 L 157 23 L 154 23 L 153 22 L 149 22 L 148 21 L 140 21 L 139 20 Z M 127 24 L 128 23 L 130 23 L 131 24 L 140 24 L 141 25 L 144 25 L 145 26 L 147 26 L 148 27 L 150 27 L 151 28 L 153 28 L 154 29 L 155 29 L 156 30 L 157 30 L 159 32 L 160 32 L 161 33 L 162 33 L 165 36 L 166 36 L 181 51 L 181 52 L 184 55 L 184 56 L 186 58 L 186 59 L 188 61 L 188 62 L 189 63 L 189 64 L 191 66 L 191 67 L 192 68 L 192 69 L 193 70 L 193 71 L 194 72 L 194 73 L 195 74 L 195 75 L 196 76 L 196 78 L 197 79 L 197 80 L 198 81 L 198 82 L 199 83 L 199 85 L 200 86 L 200 87 L 201 88 L 201 90 L 202 91 L 202 93 L 203 94 L 203 96 L 204 97 L 204 99 L 205 100 L 205 103 L 206 104 L 206 107 L 207 108 L 207 112 L 208 113 L 208 117 L 209 118 L 209 123 L 210 124 L 210 131 L 211 132 L 211 146 L 212 147 L 212 161 L 211 162 L 211 177 L 210 178 L 210 184 L 209 185 L 209 190 L 208 191 L 208 195 L 207 196 L 207 200 L 206 201 L 206 203 L 205 204 L 205 207 L 204 208 L 204 210 L 203 211 L 203 214 L 202 215 L 202 217 L 201 218 L 201 219 L 200 220 L 200 222 L 199 223 L 199 224 L 198 225 L 198 227 L 197 228 L 197 229 L 196 230 L 196 232 L 195 233 L 195 234 L 194 235 L 194 236 L 193 237 L 193 238 L 192 239 L 192 240 L 191 241 L 191 242 L 189 244 L 189 245 L 188 246 L 188 247 L 186 249 L 186 250 L 184 252 L 184 253 L 182 255 L 182 256 L 178 260 L 178 261 L 167 272 L 166 272 L 163 275 L 162 275 L 160 277 L 159 277 L 158 278 L 157 278 L 155 280 L 154 280 L 153 281 L 152 281 L 151 282 L 149 282 L 148 283 L 146 283 L 145 284 L 142 284 L 141 285 L 137 285 L 136 286 L 124 286 L 123 285 L 118 285 L 117 284 L 115 284 L 114 283 L 112 283 L 111 282 L 109 282 L 108 281 L 107 281 L 106 280 L 105 280 L 104 279 L 103 279 L 102 278 L 101 278 L 99 276 L 98 276 L 96 274 L 95 274 L 90 269 L 89 269 L 83 263 L 83 262 L 78 257 L 78 256 L 75 253 L 75 252 L 73 250 L 73 249 L 71 247 L 71 246 L 70 245 L 70 244 L 69 243 L 69 242 L 68 241 L 68 240 L 66 238 L 66 237 L 65 236 L 65 235 L 64 234 L 64 232 L 63 231 L 63 230 L 62 229 L 62 228 L 61 227 L 61 226 L 60 225 L 60 223 L 59 222 L 59 221 L 58 220 L 58 218 L 57 217 L 57 215 L 56 214 L 56 211 L 55 210 L 55 208 L 54 207 L 54 205 L 53 204 L 53 201 L 52 200 L 52 196 L 51 195 L 51 192 L 50 191 L 50 186 L 49 185 L 49 178 L 48 177 L 48 165 L 47 164 L 47 143 L 48 142 L 48 130 L 49 129 L 49 123 L 50 122 L 50 118 L 51 117 L 51 112 L 52 111 L 52 108 L 53 107 L 53 104 L 54 103 L 54 100 L 55 99 L 55 97 L 56 96 L 56 94 L 57 93 L 57 91 L 58 90 L 58 88 L 59 87 L 59 85 L 60 84 L 60 83 L 61 82 L 61 80 L 62 79 L 62 78 L 63 77 L 63 76 L 64 75 L 64 74 L 65 73 L 65 72 L 66 71 L 66 70 L 67 69 L 67 68 L 68 67 L 68 66 L 70 64 L 70 63 L 71 62 L 71 61 L 73 59 L 73 58 L 75 56 L 75 55 L 78 52 L 78 51 L 91 38 L 92 38 L 95 35 L 96 35 L 98 33 L 99 33 L 101 31 L 102 31 L 103 30 L 104 30 L 105 29 L 106 29 L 107 28 L 108 28 L 109 27 L 111 27 L 112 26 L 114 26 L 115 25 L 118 25 L 119 24 Z M 129 130 L 129 134 L 128 135 L 128 137 L 127 138 L 127 140 L 125 142 L 125 143 L 123 145 L 123 146 L 118 151 L 117 151 L 116 152 L 115 152 L 114 153 L 113 153 L 112 154 L 111 154 L 110 155 L 106 155 L 106 156 L 110 156 L 111 157 L 112 157 L 113 158 L 115 158 L 117 160 L 118 160 L 124 166 L 124 167 L 126 169 L 126 170 L 127 171 L 127 173 L 128 174 L 128 176 L 129 177 L 129 181 L 130 180 L 130 176 L 131 175 L 131 173 L 132 172 L 132 171 L 133 170 L 133 169 L 134 168 L 134 167 L 141 160 L 142 160 L 144 158 L 145 158 L 146 157 L 148 157 L 149 156 L 151 156 L 152 155 L 153 155 L 149 155 L 148 154 L 146 154 L 145 153 L 144 153 L 143 152 L 142 152 L 139 149 L 138 149 L 137 148 L 137 147 L 134 144 L 134 143 L 133 142 L 133 141 L 132 140 L 132 139 L 131 138 L 131 136 L 130 135 L 130 132 L 129 131 Z" fill="#000000" fill-rule="evenodd"/>
</svg>
